#N canvas 0 0 381 475 16;
#X obj -201 -4 cup;
#X msg -151 -44 0;
#X obj -171 36 select 314;
#X obj -201 -84 metro 50;
#X obj -221 -244 inlet;
#X msg -171 -134 1;
#X msg -221 -134 0;
#X obj -221 -214 select 0;
#X text -128 -216 pi = 3.14159;
#X obj -201 156 outlet;
#X obj -157 -174 t b f b;
#X obj -201 76 / 10;
#X obj -201 116 expr sin(2*3.14*$f1)*sin($f1*0.5);
#X connect 0 0 2 0;
#X connect 0 0 11 0;
#X connect 1 0 0 0;
#X connect 2 0 1 0;
#X connect 3 0 0 0;
#X connect 4 0 7 0;
#X connect 5 0 3 0;
#X connect 6 0 3 0;
#X connect 7 0 6 0;
#X connect 7 1 10 0;
#X connect 10 0 5 0;
#X connect 10 1 3 1;
#X connect 10 2 1 0;
#X connect 11 0 12 0;
#X connect 12 0 9 0;
