#N canvas 8 36 356 333 16;
#N canvas 48 79 638 320 main 0;
#X obj 242 176 entry 55 55 white black;
#X obj 239 173 cnv 15 60 60 empty \$0-pnum_cnv_rcv empty 4 18 1 24
-1 -262144 0;
#N canvas 720 125 399 551 \$0-participant_GUI_window 0;
#N canvas 635 288 785 542 participant_GUI 0;
#X obj 40 443 hsl 300 60 0 99 0 0 \$0-rating_slider_snd \$0-rating_slider_rcv
empty 120 30 0 20 -66577 -257985 -257985 0 0;
#X obj 37 277 vsl 30 55 0 1.5 0 0 \$0-fader_snd \$0-fader_rcv empty
0 -9 0 10 -66577 -232576 -1 3600 1;
#X obj 282 275 bng 60 250 50 0 \$0-playnext_snd \$0-playnext_rcv empty
17 7 0 10 -4034 -99865 -1;
#X text 70 269 audio level;
#X obj 37 356 cnv 15 52 66 empty empty empty 4 18 1 24 -191407 -1 0
;
#X obj 46 383 cnv 15 34 30 empty \$0-total_disp_rcv empty 4 18 1 24
-1 -261234 0;
#X text 37 355 total;
#X obj 135 356 cnv 15 100 66 empty empty empty 4 18 1 24 -191407 -1
0;
#X obj 155 383 cnv 15 60 30 empty \$0-current_disp_rcv empty 4 18 1
24 -1 -4034 0;
#X text 148 355 current;
#X obj 276 356 cnv 15 66 66 empty empty empty 4 18 1 24 -191407 -1
0;
#X obj 291 383 cnv 15 34 30 empty \$0-rating_disp_rcv empty 4 18 1
24 -1 -257985 0;
#X text 276 355 rating;
#X text 136 317 start/next/end;
#X text 48 146 button to confirm your rating;
#X text 48 166 and advance to the next piece.;
#X text 48 186 After rating the last piece;
#X text 48 226 message "done" will appear.;
#X text 48 206 instead of advancing the;
#X text 18 42 2) Rate with the slider;
#X text 47 62 (move the vertical yellow line;
#X text 47 82 horizontally with the mouse or;
#X text 47 102 trackpad).;
#X text 18 18 1) Click the green button to start.;
#X text 18 126 3) After rating click the green;
#X obj 444 248 f \$0;
#X obj 394 368 pack f f;
#X msg 394 408 \; pd-\$2-participant_GUI_window vis \$1;
#X msg 394 308 1;
#X obj 444 218 loadbang;
#X msg 444 308 0;
#X obj 444 278 trigger b f;
#N canvas 589 22 434 352 open_p_GUI 0;
#X obj 24 -34 r \$0-pn_act;
#X obj -86 -34 r \$0-path;
#X obj 147 -34 loadbang;
#X obj 141 176 s \$0-loadp_cnv_rcv;
#X obj -56 176 s \$0-pnum_cnv_rcv;
#N canvas 371 289 418 549 colour_alternator 0;
#X obj -2 15 inlet;
#X obj -111 506 outlet;
#X obj -2 45 select 0 1 2;
#X msg -111 465 color \$1;
#X obj -111 385 select 1;
#X msg -111 425 13;
#X msg -34 425 22;
#X obj -11 385 pipe 500;
#X obj 99 506 outlet;
#X msg 99 465 color \$1;
#X obj 99 385 select 1;
#X msg 99 425 13;
#X msg 176 425 22;
#X obj 199 385 pipe 500;
#X msg 199 197 0;
#X msg -54 197 0;
#X msg -97 197 1;
#X msg 156 197 1;
#X obj -111 345 spigot;
#X obj 9 295 tgl 15 0 empty empty empty 17 7 0 10 -262144 -1 -1 0 1
;
#X obj 9 245 tgl 15 0 empty empty empty 17 7 0 10 -262144 -1 -1 1 1
;
#X obj 9 265 metro 500;
#X obj 99 345 spigot;
#X msg 52 197 0;
#X msg 9 197 1;
#X connect 0 0 2 0;
#X connect 2 0 16 0;
#X connect 2 0 17 0;
#X connect 2 0 24 0;
#X connect 2 1 17 0;
#X connect 2 1 15 0;
#X connect 2 1 24 0;
#X connect 2 2 16 0;
#X connect 2 2 14 0;
#X connect 2 2 24 0;
#X connect 2 3 15 0;
#X connect 2 3 14 0;
#X connect 2 3 23 0;
#X connect 3 0 1 0;
#X connect 4 0 5 0;
#X connect 4 1 6 0;
#X connect 5 0 3 0;
#X connect 6 0 3 0;
#X connect 7 0 6 0;
#X connect 9 0 8 0;
#X connect 10 0 11 0;
#X connect 10 1 12 0;
#X connect 11 0 9 0;
#X connect 12 0 9 0;
#X connect 13 0 12 0;
#X connect 14 0 13 0;
#X connect 14 0 22 1;
#X connect 15 0 7 0;
#X connect 15 0 18 1;
#X connect 16 0 18 1;
#X connect 17 0 22 1;
#X connect 18 0 4 0;
#X connect 19 0 18 0;
#X connect 19 0 22 0;
#X connect 20 0 21 0;
#X connect 21 0 19 0;
#X connect 22 0 10 0;
#X connect 23 0 20 0;
#X connect 24 0 20 0;
#X restore -56 146 pd colour_alternator;
#X obj -76 86 expr $f1 + $f2;
#X msg -76 6 2;
#X msg 14 6 1;
#X obj -76 256 outlet;
#X obj 14 46 t b a;
#X obj -76 216 select 3;
#X msg 147 86 0;
#X connect 0 0 8 0;
#X connect 1 0 7 0;
#X connect 2 0 12 0;
#X connect 5 0 4 0;
#X connect 5 1 3 0;
#X connect 6 0 5 0;
#X connect 6 0 11 0;
#X connect 7 0 6 0;
#X connect 8 0 10 0;
#X connect 10 0 6 0;
#X connect 10 1 6 1;
#X connect 11 0 9 0;
#X connect 12 0 5 0;
#X restore 394 180 pd open_p_GUI;
#X connect 25 0 31 0;
#X connect 26 0 27 0;
#X connect 28 0 26 0;
#X connect 29 0 25 0;
#X connect 30 0 26 0;
#X connect 31 0 30 0;
#X connect 31 1 26 1;
#X connect 32 0 28 0;
#X coords 0 -1 1 1 380 520 2 0 0;
#X restore 6 6 pd participant_GUI;
#X restore 342 203 pd \$0-participant_GUI_window;
#X text 67 108 1) load playlist;
#X text 27 191 2) input participant;
#X obj 54 21 cnv 15 100 30 empty empty Audiofile 0 12 1 30 -262144
-66577 0;
#X obj 180 21 cnv 15 100 30 empty empty Rating 0 12 1 30 -262144 -66577
0;
#X obj 135 51 cnv 15 100 30 empty empty v0.1.2 0 12 1 20 -262144 -66577
0;
#X obj 72 261 cnv 15 20 30 empty empty Juan 0 12 1 14 -262144 -66577
0;
#X obj 109 261 cnv 15 20 30 empty empty Ignacio 0 12 1 14 -262144 -66577
0;
#X obj 159 261 cnv 15 20 30 empty empty Mendoza 0 12 1 14 -262144 -66577
0;
#X obj 225 261 cnv 15 20 30 empty empty 2017 0 12 1 14 -262144 -66577
0;
#N canvas 565 22 183 192 initialise 0;
#X obj 8 11 loadbang;
#X msg 18 51 \; pd dsp 1;
#X obj 8 141 s \$0-fader_rcv;
#X msg 8 111 1;
#X connect 0 0 1 0;
#X connect 0 0 3 0;
#X connect 3 0 2 0;
#X restore 342 3 pd initialise;
#N canvas 569 22 363 575 audio_playback 0;
#X msg 73 94 open \$1;
#X obj 123 406 dac~;
#X obj 120 254 readsf~ 2;
#X obj 120 366 *~;
#X obj 163 366 *~;
#X msg 10 214 1;
#X obj 190 324 r \$0-fader_snd;
#X obj 10 184 delay 500;
#X obj 183 -106 r \$0-filename;
#X obj 207 284 s \$0-playdone;
#X obj 73 24 symbol;
#X obj 130 -6 r \$0-path;
#X obj 183 -76 t b a;
#X obj 73 134 t b a;
#X obj 73 64 makesymbol;
#X msg 230 -6 symbol %s/\$1;
#X connect 0 0 13 0;
#X connect 2 0 3 0;
#X connect 2 1 4 0;
#X connect 2 2 9 0;
#X connect 3 0 1 0;
#X connect 4 0 1 1;
#X connect 5 0 2 0;
#X connect 6 0 3 1;
#X connect 6 0 4 1;
#X connect 7 0 5 0;
#X connect 8 0 12 0;
#X connect 10 0 14 0;
#X connect 11 0 10 1;
#X connect 12 0 10 0;
#X connect 12 1 15 0;
#X connect 13 0 7 0;
#X connect 13 1 2 0;
#X connect 14 0 0 0;
#X connect 15 0 14 1;
#X restore 342 83 pd audio_playback;
#N canvas 474 22 748 392 record_responses 0;
#X obj 8 26 s \$0-rating_disp_rcv;
#X obj 8 -214 ftos;
#X msg 8 -174 label \$1;
#X obj 345 26 msgfile;
#X obj 440 -84 pack s s;
#X obj 440 -54 makesymbol %s/%s;
#X obj 610 -224 l2s;
#X obj 440 -114 symbol;
#X obj 610 -194 t b s;
#X msg 610 -254 p\$1.txt;
#X msg 345 -24 add \$1;
#X msg 440 -24 write \$1 cr;
#X obj 8 -284 r \$0-rating_slider_snd;
#X obj 8 -244 int;
#X msg 28 -24 label;
#X obj 610 -284 r \$0-partnum;
#X obj 138 -84 loadbang;
#X obj 345 -144 int;
#X obj 238 -284 r \$0-counter;
#X obj 305 -194 bang;
#X obj 238 -254 moses 2;
#X obj 345 -114 ftos;
#X msg 238 -24 clear;
#X obj 497 -194 r \$0-path;
#X obj 372 -224 r \$0-rating_slider_snd;
#X obj 440 26 s \$0-writedone;
#X obj 28 -124 r \$0-next;
#X obj 372 -284 r \$0-flush;
#X connect 1 0 2 0;
#X connect 2 0 0 0;
#X connect 4 0 5 0;
#X connect 5 0 11 0;
#X connect 6 0 8 0;
#X connect 7 0 4 0;
#X connect 8 0 7 0;
#X connect 8 1 4 1;
#X connect 9 0 6 0;
#X connect 10 0 3 0;
#X connect 11 0 3 0;
#X connect 11 0 25 0;
#X connect 12 0 13 0;
#X connect 13 0 1 0;
#X connect 14 0 0 0;
#X connect 15 0 9 0;
#X connect 16 0 14 0;
#X connect 16 0 22 0;
#X connect 17 0 21 0;
#X connect 18 0 20 0;
#X connect 19 0 17 0;
#X connect 20 0 22 0;
#X connect 20 1 19 0;
#X connect 21 0 10 0;
#X connect 22 0 3 0;
#X connect 23 0 7 1;
#X connect 24 0 17 1;
#X connect 26 0 14 0;
#X connect 27 0 19 0;
#X restore 342 163 pd record_responses;
#N canvas 266 22 917 534 playlist_manager 0;
#X obj 583 -9 openpanel;
#X obj 603 161 msgfile;
#X obj 603 31 symbol;
#X obj 583 -79 r \$0-loadbtn_snd;
#X obj 583 351 splitfilename;
#X msg 743 101 rewind;
#X msg 603 61 read \$1 cr \, end \, where;
#X obj 230 11 once;
#X obj 230 378 s \$0-current_disp_rcv;
#X obj 230 221 cup;
#X msg 230 311 label \$1;
#X obj 230 281 ftos;
#X obj 670 271 s \$0-flush;
#X obj 250 141 r \$0-flush;
#X obj 380 87 ftos;
#X msg 380 117 label \$1;
#X obj 380 147 s \$0-total_disp_rcv;
#X msg 13 311 label;
#X obj 13 221 r \$0-loadbtn_snd;
#X msg 230 191 1;
#X obj 670 201 route bang;
#X obj 250 61 loadbang;
#X msg 270 101 label;
#X msg 390 311 label done;
#X obj 380 57 + 1;
#X obj 90 311 s \$0-counter;
#X obj 33 251 loadbang;
#X obj 13 -109 r \$0-playnext_snd;
#X obj 13 61 spigot;
#X msg 70 11 0;
#X msg 120 11 1;
#X obj 70 -69 loadbang;
#X obj 583 381 s \$0-path;
#X obj 603 311 s \$0-filename;
#X obj 230 -49 r \$0-listinfo;
#X obj 767 231 s \$0-listinfo;
#N canvas 523 22 387 258 allow_next 0;
#X obj 19 -65 r \$0-playdone;
#X obj 19 35 once;
#X obj 159 -65 r \$0-rating_slider_snd;
#X obj 159 5 once;
#X obj 249 85 cup;
#X obj 249 115 select 2;
#X msg 249 5 1;
#X obj 249 155 outlet;
#X obj 159 35 bang;
#X obj 249 -35 r \$0-next;
#X connect 0 0 1 0;
#X connect 1 0 4 0;
#X connect 2 0 3 0;
#X connect 3 0 8 0;
#X connect 4 0 5 0;
#X connect 5 0 1 1;
#X connect 5 0 7 0;
#X connect 6 0 4 0;
#X connect 8 0 4 0;
#X connect 9 0 6 0;
#X connect 9 0 3 1;
#X restore 230 -79 pd allow_next;
#X obj 230 -109 r \$0-writedone;
#X obj 623 101 r \$0-next;
#X obj 13 181 s \$0-next;
#X obj 90 61 r \$0-filename;
#X obj 90 91 bang;
#X connect 0 0 2 0;
#X connect 0 0 4 0;
#X connect 1 0 33 0;
#X connect 1 1 5 0;
#X connect 1 1 20 0;
#X connect 2 0 6 0;
#X connect 3 0 0 0;
#X connect 3 0 7 1;
#X connect 4 0 32 0;
#X connect 5 0 1 0;
#X connect 6 0 1 0;
#X connect 7 0 24 0;
#X connect 7 0 19 0;
#X connect 9 0 11 0;
#X connect 9 0 25 0;
#X connect 10 0 8 0;
#X connect 11 0 10 0;
#X connect 13 0 19 0;
#X connect 13 0 23 0;
#X connect 14 0 15 0;
#X connect 15 0 16 0;
#X connect 17 0 8 0;
#X connect 18 0 17 0;
#X connect 19 0 9 0;
#X connect 20 0 12 0;
#X connect 20 1 35 0;
#X connect 21 0 22 0;
#X connect 21 0 19 0;
#X connect 22 0 16 0;
#X connect 23 0 8 0;
#X connect 24 0 14 0;
#X connect 26 0 17 0;
#X connect 27 0 28 0;
#X connect 28 0 29 0;
#X connect 28 0 39 0;
#X connect 29 0 28 1;
#X connect 30 0 28 1;
#X connect 31 0 29 0;
#X connect 34 0 30 0;
#X connect 34 0 7 0;
#X connect 36 0 30 0;
#X connect 37 0 30 0;
#X connect 38 0 1 0;
#X connect 40 0 41 0;
#X connect 41 0 9 0;
#X restore 342 43 pd playlist_manager;
#N canvas 615 223 246 421 set_partnum 0;
#X obj 8 17 r \$0-flush;
#X obj 8 377 outlet;
#X obj 38 57 r \$0-partnum;
#X obj 38 97 + 1;
#X msg 38 157 set \$1;
#X obj 38 127 pipe 100;
#X msg 115 267 fontsize 40;
#X obj 68 187 loadbang;
#X obj 68 217 t b b;
#X msg 48 267 clear;
#X connect 0 0 1 0;
#X connect 2 0 3 0;
#X connect 3 0 5 0;
#X connect 4 0 1 0;
#X connect 5 0 4 0;
#X connect 6 0 1 0;
#X connect 7 0 8 0;
#X connect 8 0 9 0;
#X connect 8 1 6 0;
#X connect 9 0 1 0;
#X restore 342 123 pd set_partnum;
#X obj 239 92 cnv 15 60 60 empty \$0-loadp_cnv_rcv empty 4 18 1 24
-1 -262144 0;
#X obj 241 94 bng 56 250 50 0 \$0-loadbtn_snd \$0-loadbtn_rcv empty
17 7 0 10 -204800 -66577 -1;
#X obj 342 273 s \$0-partnum;
#X obj 342 243 s \$0-pn_act;
#X connect 0 0 19 0;
#X connect 0 1 20 0;
#X connect 16 0 0 0;
#X coords 0 -1 1 1 322 299 2 0 0;
#X restore 13 9 pd main;
