#N canvas 254 0 546 665 16;
#X obj 125 -157 bng 20 250 50 0 empty \$0-reset_table empty 17 7 0
10 -262144 -1 -1;
#X msg -248 -221 0;
#X msg -198 -221 50;
#X obj -88 72 oscilloscope;
#X obj -248 -61 pow 2;
#X obj -88 -128 oscilloscope;
#X obj -88 -28 oscilloscope;
#X obj -248 39 * 4;
#X obj -88 172 oscilloscope;
#X obj -248 0 average 10;
#X obj -88 272 oscilloscope;
#X obj 235 43 bng 20 250 50 0 \$0-reset_table empty empty 17 7 0 10
-262144 -1 -1;
#X obj 125 -57 bng 20 250 50 0 empty \$0-reset_table empty 17 7 0 10
-262144 -1 -1;
#X obj 125 43 bng 20 250 50 0 empty \$0-reset_table empty 17 7 0 10
-262144 -1 -1;
#X obj 125 143 bng 20 250 50 0 empty \$0-reset_table empty 17 7 0 10
-262144 -1 -1;
#X obj 125 243 bng 20 250 50 0 empty \$0-reset_table empty 17 7 0 10
-262144 -1 -1;
#X obj -248 139 average 10;
#X obj -248 199 delta;
#X obj -248 239 * 10;
#X text -131 404 Juan Ignacio Mendoza - 2017;
#X text -151 -222 <--- stop/sample-period;
#X text 109 -174 |;
#X text 258 -174 |;
#X text 113 -189 _______________;
#X text 185 -189 |;
#X text 166 -203 reset;
#X obj -248 -161 am_wavegen;
#X connect 0 0 5 1;
#X connect 1 0 26 0;
#X connect 2 0 26 0;
#X connect 4 0 6 0;
#X connect 4 0 9 0;
#X connect 7 0 3 0;
#X connect 7 0 16 0;
#X connect 9 0 7 0;
#X connect 12 0 6 1;
#X connect 13 0 3 1;
#X connect 14 0 8 1;
#X connect 15 0 10 1;
#X connect 16 0 8 0;
#X connect 16 0 17 0;
#X connect 17 0 18 0;
#X connect 18 0 10 0;
#X connect 26 0 4 0;
#X connect 26 0 5 0;
