#N canvas 3 22 366 617 12;
#X declare -lib mrpeach;
#N canvas 17 59 568 628 engines 0;
#X obj 348 0 cnv 15 200 600 empty empty empty 20 12 0 14 -229361 -66577
0;
#X obj 1 1 cnv 10 340 600 empty empty empty 12 26 0 20 -1 -13381 0
;
#X obj 3 3 cnv 25 336 596 empty empty Record_Wii+Audio 70 20 0 22 -245312
-1 0;
#X obj 222 88 entry 30 20 white black;
#X obj 192 88 entry 20 20 white black;
#X obj 301 202 entry 20 20 white black;
#X obj 3 75 cnv 2 336 2 empty empty empty 20 12 0 14 -1 -66577 0;
#X obj 3 138 cnv 2 336 2 empty empty empty 20 12 0 14 -191407 -66577
0;
#X obj 3 188 cnv 2 336 2 empty empty empty 20 12 0 14 -191407 -66577
0;
#X obj 3 288 cnv 2 336 2 empty empty empty 20 12 0 14 -191407 -66577
0;
#X obj 3 238 cnv 2 336 2 empty empty empty 20 12 0 14 -191407 -66577
0;
#X obj 262 253 bng 16 250 50 0 \$0-setready \$0-nono empty 17 7 0 10
-4034 -1 -1;
#X text 19 253 4) click to set the system ready;
#X obj 162 88 entry 20 20 white black;
#X text 161 109 day;
#X text 186 109 month;
#X text 224 109 year;
#X obj 359 323 s \$0-partic;
#X obj 359 93 r \$0-datatrig;
#X text 19 93 1) enter the date;
#N canvas 510 402 350 83 day_month_year_hub 0;
#X obj -230 -14 s \$0-day;
#X obj -161 -14 s \$0-month;
#X obj -80 -14 s \$0-year;
#X obj -80 -44 inlet year;
#X obj -161 -44 inlet month;
#X obj -230 -44 inlet day;
#X connect 3 0 2 0;
#X connect 4 0 1 0;
#X connect 5 0 0 0;
#X restore 359 202 pd day_month_year_hub;
#N canvas 645 181 294 201 set_partic 0;
#X obj 189 104 symbol;
#X msg 84 74 normal;
#X msg 189 74 disabled;
#X msg 189 134 option state \$1;
#X obj 15 14 r \$0-clrp;
#X msg 15 114 clear;
#X obj 15 164 outlet to participant number input;
#X obj 84 14 r loadbang;
#X obj 15 44 t b b;
#X obj 94 44 r \$0-setready;
#X obj 189 14 r \$0-setnormal;
#X connect 0 0 3 0;
#X connect 1 0 0 0;
#X connect 2 0 0 0;
#X connect 3 0 6 0;
#X connect 4 0 8 0;
#X connect 5 0 6 0;
#X connect 7 0 1 0;
#X connect 7 0 5 0;
#X connect 8 0 5 0;
#X connect 8 1 1 0;
#X connect 9 0 1 0;
#X connect 10 0 2 0;
#X restore 359 293 pd set_partic;
#N canvas 637 505 208 154 set_date 0;
#X obj 4 50 symbol;
#X msg -85 20 normal;
#X msg 4 20 disabled;
#X msg 4 80 option state \$1;
#X msg -95 60 clear;
#X obj -95 110 outlet day month year;
#X obj -95 -10 inlet loadbang;
#X obj 4 -10 r \$0-setready;
#X connect 0 0 3 0;
#X connect 1 0 0 0;
#X connect 2 0 0 0;
#X connect 3 0 5 0;
#X connect 4 0 5 0;
#X connect 6 0 1 0;
#X connect 6 0 4 0;
#X connect 7 0 2 0;
#X restore 359 63 pd set_date;
#X text 352 -4 -------------------------;
#X text 351 6 USERS INTERFACE;
#X obj 262 153 bng 16 250 50 0 \$0-opentestw \$0-nono empty 17 7 0
10 -2752 -1 -1;
#X text 19 153 2) click to set \, adjust and test;
#X obj 3 501 cnv 2 336 2 empty empty empty 20 12 0 14 -191407 -66577
0;
#X obj 3 499 cnv 2 336 2 empty empty empty 20 12 0 14 -1 -66577 0;
#X text 352 356 -------------------------;
#X text 351 366 ENGINE MODULES;
#X obj 3 377 cnv 2 336 2 empty empty empty 20 12 0 14 -191407 -66577
0;
#X text 19 203 3) input number of participant/dataset;
#N canvas 867 253 228 543 startup 0;
#X obj 94 75 s loadbang;
#X msg 94 145 0;
#X obj 64 334 outlet loadbang;
#X obj 94 45 import mrpeach;
#X msg 94 105 \; pd dsp 1;
#X obj 4 -45 loadbang;
#X obj 34 394 s \$0-progname;
#X obj 114 205 s \$0-icounter;
#X obj 126 176 s \$0-btnAact;
#X msg 74 235 1;
#X obj 94 265 s \$0-tgl_keyb;
#X msg 34 364 set W+A;
#X obj 94 15 s \$0-oscport_def;
#X msg 94 -15 5600;
#X obj 74 304 s \$0-tgl_wiimote;
#X obj 4 454 s \$0-prg_path;
#X msg 4 424 set <--_click_to_set_path;
#X connect 1 0 7 0;
#X connect 1 0 8 0;
#X connect 5 0 4 0;
#X connect 5 0 0 0;
#X connect 5 0 3 0;
#X connect 5 0 1 0;
#X connect 5 0 2 0;
#X connect 5 0 11 0;
#X connect 5 0 9 0;
#X connect 5 0 13 0;
#X connect 5 0 16 0;
#X connect 9 0 10 0;
#X connect 9 0 14 0;
#X connect 11 0 6 0;
#X connect 13 0 12 0;
#X connect 16 0 15 0;
#X restore 359 33 pd startup W+A;
#N canvas 907 380 444 518 OSC_receive 0;
#X obj -82 -37 unpack s f;
#X obj -82 -67 routeOSC /button;
#X obj -82 -137 unpackOSC;
#X obj -82 -107 routeOSC /wii;
#X obj -82 262 s \$0-Wii_btns;
#N canvas 867 22 469 292 udp_receive 0;
#X obj 198 205 outlet;
#N canvas 1237 172 147 94 \$0-udp_prov 0;
#X obj 1 1 udpreceive 5600;
#X obj 1 50 send udprecout;
#X connect 0 0 1 0;
#X restore 18 176 pd \$0-udp_prov;
#X obj -102 176 s pd-\$0-udp_prov;
#X obj -154 -45 r \$0-tgl_wiimote;
#X msg -102 135 clear \, obj 1 1 udpreceive \$1 \, obj 1 50 send udprecout
\, connect 0 0 1 0;
#X obj 198 176 r udprecout;
#X msg -154 135 clear;
#X msg -69 15 set \$1;
#X obj -69 45 t a a;
#X obj -124 75 bng 15 250 50 0 empty empty empty 17 7 0 10 -262144
-1 -1;
#X obj -154 -15 route 0 1;
#X msg -124 105 5600;
#X obj -69 -15 r \$0-oscport_usr;
#X connect 3 0 10 0;
#X connect 4 0 2 0;
#X connect 5 0 0 0;
#X connect 6 0 2 0;
#X connect 7 0 8 0;
#X connect 8 0 9 0;
#X connect 8 1 11 0;
#X connect 9 0 11 0;
#X connect 10 0 6 0;
#X connect 10 1 9 0;
#X connect 11 0 4 0;
#X connect 12 0 7 0;
#X restore -82 -169 pd udp_receive;
#X obj 58 -37 unpack f f f;
#X obj 191 -37 unpack f f;
#X obj 58 -67 routeOSC /acc /orientation;
#N canvas 443 635 181 198 wii-accel-x 0;
#X obj 9 165 s \$0-wii_x;
#X obj 9 35 s \$0-wii_x_test_r;
#X obj 9 65 r \$0-wii_x_test_s;
#X obj 9 135 spigot;
#X obj 9 5 inlet;
#X obj 48 104 r \$0-tglwii_xyzRP;
#X connect 2 0 3 0;
#X connect 3 0 0 0;
#X connect 4 0 1 0;
#X connect 5 0 3 1;
#X restore 38 302 pd wii-accel-x;
#N canvas 443 635 178 200 wii-accel-y 0;
#X obj 9 135 spigot;
#X obj 9 5 inlet;
#X obj 9 35 s \$0-wii_y_test_r;
#X obj 9 65 r \$0-wii_y_test_s;
#X obj 9 165 s \$0-wii_y;
#X obj 48 104 r \$0-tglwii_xyzRP;
#X connect 0 0 4 0;
#X connect 1 0 2 0;
#X connect 3 0 0 0;
#X connect 5 0 0 1;
#X restore 88 272 pd wii-accel-y;
#N canvas 443 635 177 197 wii-accel-z 0;
#X obj 9 135 spigot;
#X obj 9 5 inlet;
#X obj 9 66 r \$0-wii_z_test_s;
#X obj 9 35 s \$0-wii_z_test_r;
#X obj 9 165 s \$0-wii_z;
#X obj 48 104 r \$0-tglwii_xyzRP;
#X connect 0 0 4 0;
#X connect 1 0 3 0;
#X connect 2 0 0 0;
#X connect 5 0 0 1;
#X restore 139 242 pd wii-accel-z;
#N canvas 659 741 181 205 wii-roll 0;
#X obj 9 135 spigot;
#X obj 9 5 inlet;
#X obj 9 165 s \$0-wii_roll;
#X obj 9 35 s \$0-wii_roll_test_r;
#X obj 9 65 r \$0-wii_roll_test_s;
#X obj 48 104 r \$0-tglwii_xyzRP;
#X connect 0 0 2 0;
#X connect 1 0 3 0;
#X connect 4 0 0 0;
#X connect 5 0 0 1;
#X restore 191 212 pd wii-roll;
#N canvas 443 635 184 195 wii-pitch 0;
#X obj 9 135 spigot;
#X obj 9 5 inlet;
#X obj 9 35 s \$0-wii_pitch_test_r;
#X obj 9 65 r \$0-wii_pitch_test_s;
#X obj 9 165 s \$0-wii_pitch;
#X obj 48 104 r \$0-tglwii_xyzRP;
#X connect 0 0 4 0;
#X connect 1 0 2 0;
#X connect 3 0 0 0;
#X connect 5 0 0 1;
#X restore 258 182 pd wii-pitch;
#X obj 258 72 * -1;
#X obj 38 42 - 264;
#X obj 38 72 / 3;
#X obj 88 72 / 3;
#X obj 139 72 / 3;
#X obj 139 42 - 266;
#X obj 88 42 - 268;
#X floatatom 48 103 5 0 0 0 - - -;
#X floatatom 149 103 5 0 0 0 - - -;
#X floatatom 98 103 5 0 0 0 - - -;
#X floatatom 201 103 5 0 0 0 - - -;
#X floatatom 268 103 5 0 0 0 - - -;
#N canvas 53 91 566 154 wii 0;
#X obj 6 111 outlet x;
#X obj 116 111 outlet y;
#X obj 226 111 outlet z;
#X obj 336 111 outlet R;
#X obj 446 111 outlet P;
#X obj 6 11 inlet x;
#X obj 116 11 inlet y;
#X obj 226 11 inlet z;
#X obj 336 11 inlet R;
#X obj 446 11 inlet P;
#X obj 15 44 r \$0-tglwii_x;
#X obj 6 74 spigot;
#X obj 116 74 spigot;
#X obj 125 44 r \$0-tglwii_y;
#X obj 226 74 spigot;
#X obj 235 44 r \$0-tglwii_z;
#X obj 336 74 spigot;
#X obj 345 44 r \$0-tglwii_R;
#X obj 446 74 spigot;
#X obj 455 44 r \$0-tglwii_P;
#X connect 5 0 11 0;
#X connect 6 0 12 0;
#X connect 7 0 14 0;
#X connect 8 0 16 0;
#X connect 9 0 18 0;
#X connect 10 0 11 1;
#X connect 11 0 0 0;
#X connect 12 0 1 0;
#X connect 13 0 12 1;
#X connect 14 0 2 0;
#X connect 15 0 14 1;
#X connect 16 0 3 0;
#X connect 17 0 16 1;
#X connect 18 0 4 0;
#X connect 19 0 18 1;
#X restore 94 3 pd wii data spigots;
#X obj -82 232 spigot;
#X obj -43 3 r \$0-tgl_wii_btns;
#N canvas 686 331 619 413 test_signals 0;
#N canvas 216 420 196 262 singen 0;
#X obj 9 105 sin;
#X obj 9 15 cup;
#X msg 76 -15 0;
#X obj 39 45 select 31;
#X obj 9 75 / 10;
#X obj 9 -15 metro;
#X obj 9 -45 inlet;
#X obj 9 165 outlet;
#X obj 67 -45 inlet;
#X obj 9 135 expr ($f1-0.5)*200;
#X connect 0 0 9 0;
#X connect 1 0 3 0;
#X connect 1 0 4 0;
#X connect 2 0 1 0;
#X connect 3 0 2 0;
#X connect 4 0 0 0;
#X connect 5 0 1 0;
#X connect 6 0 5 0;
#X connect 8 0 5 1;
#X connect 9 0 7 0;
#X restore -91 82 pd singen;
#N canvas 0 22 122 262 singen 0;
#X obj 9 105 sin;
#X obj 9 15 cup;
#X msg 76 -15 0;
#X obj 39 45 select 31;
#X obj 9 75 / 10;
#X obj 9 -15 metro;
#X obj 9 -45 inlet;
#X obj 9 165 outlet;
#X obj 67 -45 inlet;
#X obj 9 135 expr ($f1-0.5)*200;
#X connect 0 0 9 0;
#X connect 1 0 3 0;
#X connect 1 0 4 0;
#X connect 2 0 1 0;
#X connect 3 0 2 0;
#X connect 4 0 0 0;
#X connect 5 0 1 0;
#X connect 6 0 5 0;
#X connect 8 0 5 1;
#X connect 9 0 7 0;
#X restore 149 82 pd singen;
#N canvas 0 22 122 262 singen 0;
#X obj 9 105 sin;
#X obj 9 15 cup;
#X msg 76 -15 0;
#X obj 39 45 select 31;
#X obj 9 75 / 10;
#X obj 9 -15 metro;
#X obj 9 -45 inlet;
#X obj 9 165 outlet;
#X obj 67 -45 inlet;
#X obj 9 135 expr ($f1-0.5)*200;
#X connect 0 0 9 0;
#X connect 1 0 3 0;
#X connect 1 0 4 0;
#X connect 2 0 1 0;
#X connect 3 0 2 0;
#X connect 4 0 0 0;
#X connect 5 0 1 0;
#X connect 6 0 5 0;
#X connect 8 0 5 1;
#X connect 9 0 7 0;
#X restore 389 82 pd singen;
#X obj -91 2 pipe;
#X obj -81 112 outlet;
#X obj 39 112 outlet;
#X obj 160 112 outlet;
#X obj 282 112 outlet;
#X obj 399 112 outlet;
#N canvas 0 22 122 262 singen 0;
#X obj 9 15 cup;
#X msg 76 -15 0;
#X obj 39 45 select 31;
#X obj 9 75 / 10;
#X obj 9 -15 metro;
#X obj 9 -45 inlet;
#X obj 9 165 outlet;
#X obj 67 -45 inlet;
#X obj 9 135 expr ($f1-0.5)*200;
#X obj 9 105 sin;
#X connect 0 0 2 0;
#X connect 0 0 3 0;
#X connect 1 0 0 0;
#X connect 2 0 1 0;
#X connect 3 0 9 0;
#X connect 4 0 0 0;
#X connect 5 0 4 0;
#X connect 7 0 4 1;
#X connect 8 0 6 0;
#X connect 9 0 8 0;
#X restore 29 82 pd singen;
#X obj 29 2 pipe;
#N canvas 0 22 169 279 singen 0;
#X obj 9 15 cup;
#X msg 76 -15 0;
#X obj 39 45 select 31;
#X obj 9 75 / 10;
#X obj 9 -15 metro;
#X obj 9 -45 inlet;
#X obj 9 165 outlet;
#X obj 67 -45 inlet;
#X obj 9 135 expr ($f1-0.5)*200;
#X obj 9 105 sin;
#X connect 0 0 2 0;
#X connect 0 0 3 0;
#X connect 1 0 0 0;
#X connect 2 0 1 0;
#X connect 3 0 9 0;
#X connect 4 0 0 0;
#X connect 5 0 4 0;
#X connect 7 0 4 1;
#X connect 8 0 6 0;
#X connect 9 0 8 0;
#X restore 269 82 pd singen;
#X obj 269 2 pipe;
#X floatatom 99 -198 5 0 0 0 period - -;
#X obj 239 -198 tgl 15 0 empty empty start 17 7 0 10 -262144 -1 -1
0 1;
#X obj 239 -228 inlet;
#X obj 99 -258 loadbang;
#X obj -66 -108 r test_s_per;
#X obj -91 -138 r test_s_tgl;
#X obj 54 -108 r test_s_per;
#X obj 29 -138 r test_s_tgl;
#X obj 149 -138 r test_s_tgl;
#X obj 294 -108 r test_s_per;
#X obj 269 -138 r test_s_tgl;
#X obj 414 42 r test_s_per;
#X obj 389 -138 r test_s_tgl;
#X obj -66 42 r test_s_per;
#X obj 54 42 r test_s_per;
#X obj 174 42 r test_s_per;
#X obj 239 -168 s test_s_tgl;
#X obj 99 -168 s test_s_per;
#X obj 54 -28 * 3;
#X obj -66 -28 * 2;
#X obj 149 2 pipe;
#X obj 174 -108 r test_s_per;
#X obj 174 -28 * 6;
#X msg 99 -228 50;
#X obj 294 -28 * 4;
#X obj 294 42 r test_s_per;
#X connect 0 0 4 0;
#X connect 1 0 6 0;
#X connect 2 0 8 0;
#X connect 3 0 0 0;
#X connect 9 0 5 0;
#X connect 10 0 9 0;
#X connect 11 0 7 0;
#X connect 12 0 11 0;
#X connect 13 0 30 0;
#X connect 14 0 29 0;
#X connect 15 0 14 0;
#X connect 16 0 36 0;
#X connect 17 0 32 0;
#X connect 18 0 3 0;
#X connect 19 0 31 0;
#X connect 20 0 10 0;
#X connect 21 0 33 0;
#X connect 22 0 37 0;
#X connect 23 0 12 0;
#X connect 24 0 2 1;
#X connect 25 0 2 0;
#X connect 26 0 0 1;
#X connect 27 0 9 1;
#X connect 28 0 1 1;
#X connect 31 0 10 1;
#X connect 32 0 3 1;
#X connect 33 0 1 0;
#X connect 34 0 35 0;
#X connect 35 0 33 1;
#X connect 36 0 13 0;
#X connect 37 0 12 1;
#X connect 38 0 11 1;
#X restore -32 143 pd test_signals;
#X obj -32 102 r \$0-t_sg;
#X connect 0 0 27 0;
#X connect 1 0 0 0;
#X connect 2 0 3 0;
#X connect 3 0 1 0;
#X connect 3 0 8 0;
#X connect 5 0 2 0;
#X connect 6 0 26 0;
#X connect 6 1 26 1;
#X connect 6 2 26 2;
#X connect 7 0 26 3;
#X connect 7 1 26 4;
#X connect 8 0 6 0;
#X connect 8 1 7 0;
#X connect 14 0 13 0;
#X connect 15 0 16 0;
#X connect 16 0 9 0;
#X connect 17 0 10 0;
#X connect 18 0 11 0;
#X connect 19 0 18 0;
#X connect 20 0 17 0;
#X connect 26 0 15 0;
#X connect 26 1 20 0;
#X connect 26 2 19 0;
#X connect 26 3 12 0;
#X connect 26 4 14 0;
#X connect 27 0 4 0;
#X connect 28 0 27 1;
#X connect 29 0 9 0;
#X connect 29 1 10 0;
#X connect 29 2 11 0;
#X connect 29 3 12 0;
#X connect 29 4 13 0;
#X connect 30 0 29 0;
#X restore 359 123 pd OSC_receive W+A;
#N canvas 375 22 301 617 \$0-adjust_and_test 0;
#X text -74 27 pitch offset:;
#N canvas 309 22 303 736 adjust_and_test_SUBa 0;
#X obj 11 11 cnv 15 280 598 empty empty set-adjust-test 88 12 0 12
-262130 -86853 0;
#X obj 10 648 f \$0;
#X obj 10 618 r \$0-opentestw;
#X msg 10 683 \; pd-\$1-adjust_and_test vis 1;
#X obj 20 35 cnv 15 262 122 empty empty adjust_audio_levels 72 12 0
10 -260097 -13381 0;
#X obj 20 257 cnv 15 262 172 empty empty set_Wiimote_accelerometer_data
43 12 0 10 -260097 -13381 0;
#X obj 20 166 cnv 15 127 82 empty empty Wiimote_OSC_port 14 12 0 10
-260097 -13381 0;
#X obj 155 166 cnv 15 127 82 empty empty data_capture_rate 12 12 0
10 -260097 -13381 0;
#X obj 20 438 cnv 15 262 102 empty empty Wiimote_buttons_and_keyboard
46 12 0 10 -260097 -13381 0;
#X obj 20 549 cnv 15 262 52 empty empty empty 108 12 0 10 -260097 -13381
0;
#X obj 21 36 cnv 15 260 120 empty empty adjust_audio_levels 72 12 0
10 -249661 -13381 0;
#X obj 27 90 cnv 10 200 34 empty empty empty 20 12 0 14 -43798 -66577
0;
#X obj 29 92 cnv 15 196 30 empty empty empty 20 12 0 14 -204786 -66577
0;
#X obj 112 100 hsl 100 15 0 1 0 0 \$0-infader empty (-)----------(+)
-2 7 0 10 -262144 -1 -86277 0 1;
#X obj 242 62 vu 8 80 \$0-vul empty -1 -8 0 10 -1 -1 0 0;
#X obj 260 62 vu 8 80 \$0-vur empty -1 -8 0 10 -1 -1 0 0;
#X obj 81 100 tgl 15 0 \$0-tgltestin \$0-nono empty 17 7 0 10 -259678
-1 -1 0 1;
#X text 42 100 input;
#X obj 21 258 cnv 15 260 170 empty empty set_Wiimote_accelerometer_data
43 12 0 10 -249661 -13381 0;
#X obj 21 167 cnv 15 125 80 empty empty Wiimote_OSC_port 14 12 0 10
-249661 -13381 0;
#X floatatom 67 203 5 0 0 0 - #0-oscport_def #0-oscport_usr;
#X obj 156 167 cnv 15 125 80 empty empty data_capture_rate 12 12 0
10 -249661 -13381 0;
#X obj 226 193 vradio 15 1 1 3 \$0-rt_rate \$0-nono empty 0 -8 0 10
-262144 -1 -1 1;
#X text 193 192 4 Hz;
#X text 187 206 10 Hz;
#X text 181 221 100 Hz;
#X obj 21 439 cnv 15 260 100 empty empty Wiimote_buttons_and_keyboard
46 12 0 10 -249661 -13381 0;
#X obj 134 514 bng 15 250 50 0 \$0-A/space \$0-f_A/space A/space 20
7 0 10 -258113 -1 -1;
#X obj 88 484 tgl 15 1 \$0-tgl_keyb \$0-nono Keyboard -14 -10 0 10
-262130 -1 -1 1 1;
#X obj 178 484 tgl 15 1 \$0-tgl_wii_btns \$0-nono Wiimote -12 -10 0
10 -204800 -1 -1 0 1;
#X obj 21 550 cnv 15 260 50 empty empty empty 108 12 0 10 -249661 -13381
0;
#X obj 63 286 hsl 205 12 -100 100 0 1 \$0-wii_x_test_s \$0-wii_x_test_r
x -14 6 0 10 -262144 -1 -1 2879 1;
#X obj 63 316 hsl 205 12 -100 100 0 1 \$0-wii_y_test_s \$0-wii_y_test_r
y -14 6 0 10 -262144 -1 -1 7944 1;
#X obj 63 346 hsl 205 12 -100 100 0 1 \$0-wii_z_test_s \$0-wii_z_test_r
z -14 6 0 10 -262144 -1 -1 9780 1;
#X obj 63 376 hsl 205 12 -100 100 0 1 \$0-wii_roll_test_s \$0-wii_roll_test_r
R -14 6 0 10 -262144 -1 -1 6834 1;
#X obj 63 406 hsl 205 12 -100 100 0 1 \$0-wii_pitch_test_s \$0-wii_pitch_test_r
P -14 6 0 10 -262144 -1 -1 4881 1;
#X obj 29 285 tgl 15 1 \$0-tglwii_x \$0-noreceive empty 17 7 0 10 -262144
-1 -1 1 1;
#X obj 29 315 tgl 15 1 \$0-tglwii_y \$0-noreceive empty 17 7 0 10 -262144
-1 -1 1 1;
#X obj 29 344 tgl 15 1 \$0-tglwii_z \$0-noreceive empty 17 7 0 10 -262144
-1 -1 1 1;
#X obj 29 374 tgl 15 1 \$0-tglwii_R \$0-noreceive empty 17 7 0 10 -262144
-1 -1 1 1;
#X obj 29 405 tgl 15 1 \$0-tglwii_P \$0-noreceive empty 17 7 0 10 -262144
-1 -1 1 1;
#X obj 29 572 bng 15 250 50 0 \$0-openpanel_load_prg \$0-nono empty
17 7 0 10 -194112 -1 -1;
#X symbolatom 58 571 30 0 0 0 - #0-prg_path #0-nosend;
#X connect 1 0 3 0;
#X connect 2 0 1 0;
#X coords 0 -1 1 1 282 600 1 10 10;
#X restore -196 -4 pd adjust_and_test_SUBa;
#X coords 0 0 1 1 452 226 0;
#X restore 359 233 pd \$0-adjust_and_test W+A;
#N canvas 736 22 262 106 buttons_keys 0;
#N canvas 86 22 349 148 keyboard 0;
#X obj -1 3 select 32;
#X text -43 2 space;
#X text 50 -38 keyboard action;
#X obj 99 33 s \$0-f_A/space;
#X obj -118 -38 key;
#X connect 0 0 3 0;
#X connect 4 0 0 0;
#X restore -86 3 pd keyboard W+A;
#N canvas 400 222 294 180 Wiimote_buttons 0;
#X obj -80 54 select /a;
#X obj -80 114 select 1;
#X obj -80 85 tgl 15 0 empty empty empty 17 7 0 10 -262144 -1 -1 0
1;
#X obj 21 140 s \$0-f_A/space;
#X obj -140 10 r \$0-Wii_btns;
#X connect 0 0 2 0;
#X connect 1 0 3 0;
#X connect 2 0 1 0;
#X connect 4 0 0 0;
#X restore -86 33 pd Wiimote_buttons W+A;
#N canvas 25 22 441 259 button_A/space_action 0;
#X obj -241 201 s \$0-next;
#N canvas 975 412 145 133 restart 0;
#X obj 3 -1 inlet;
#X obj 3 89 s \$0-next;
#X obj 3 29 t b b;
#X obj 30 59 s \$0-setready_bng;
#X connect 0 0 2 0;
#X connect 2 0 1 0;
#X connect 2 1 3 0;
#X restore -220 141 pd restart;
#X obj -230 171 s \$0-rep_inst;
#X text -78 142 3: restart;
#X text -78 172 2: repeat playback;
#X text -78 202 1: next;
#X obj -241 11 r \$0-btnAact;
#X text -193 52 btnAact: btnA/space action;
#X obj -138 10 r \$0-A/space;
#X obj -210 111 s \$0-rtcap_nom;
#X text -78 112 4: real time nominal data capture;
#X obj -241 51 gate 5;
#X text -78 82 5: Start Recording of Wii + Audio;
#N canvas 53 393 161 121 Start_Rec_W+A 0;
#X obj -52 67 s a_datacap_rec_W+A;
#X obj -52 7 inlet;
#X msg -52 37 W+A;
#X connect 1 0 2 0;
#X connect 2 0 0 0;
#X restore -202 81 pd Start_Rec_W+A;
#X connect 6 0 11 0;
#X connect 8 0 11 1;
#X connect 11 0 0 0;
#X connect 11 1 2 0;
#X connect 11 2 1 0;
#X connect 11 3 9 0;
#X connect 11 4 13 0;
#X restore -86 63 pd button_A/space_action W+A;
#X restore 359 263 pd buttons_keys W+A;
#N canvas 681 22 213 260 modules 0;
#X text -72 -6 -------------------------;
#X text -73 -162 -------------------------;
#X text -72 4 DATA CAPTURE;
#X text -73 -101 -------------------------;
#X text -73 -91 AUDIO ENGINES;
#N canvas 320 120 138 141 VU_display_W+A 0;
#X obj 7 39 env~;
#X obj 70 39 env~;
#X obj 7 69 - 100;
#X obj 70 69 - 100;
#X obj 7 99 s \$0-vul;
#X obj 70 99 s \$0-vur;
#X obj 7 9 r~ \$0-vuin;
#X connect 0 0 2 0;
#X connect 1 0 3 0;
#X connect 2 0 4 0;
#X connect 3 0 5 0;
#X connect 6 0 0 0;
#X connect 6 0 1 0;
#X restore -65 -65 pd VU_display_W+A;
#N canvas 984 495 306 545 audio_file_recorder 0;
#X obj -126 -39 *~;
#X obj -126 -69 *~;
#X obj -16 -39 r \$0-startaudiorec;
#X obj -75 -99 r \$0-tgltestin;
#X obj -74 -69 r \$0-infader;
#X obj -146 396 writesf~ 1;
#X obj -146 -99 adc~ 1;
#X obj -66 151 spigot;
#X msg 16 51 1;
#X msg 54 51 0;
#X obj -126 51 r \$0-datafilename;
#X obj -126 21 s \$0-make_file_name;
#X msg -43 341 start;
#X msg 39 212 stop;
#X obj -16 -9 t b b;
#X msg -66 181 open \$1;
#X obj 25 -9 r \$0-setready;
#X obj -66 212 t b b a;
#X obj -66 396 s \$0-filecounter;
#X obj -126 -9 s~ \$0-vuin;
#X obj -43 369 s \$0-recsync;
#X obj 39 239 s \$0-recdone;
#X msg -1 212 stop;
#X obj -126 181 bang;
#X msg -66 121 0;
#X obj -77 76 r loadbang;
#X obj 39 162 r \$0-stop_rec;
#X connect 0 0 19 0;
#X connect 1 0 0 0;
#X connect 2 0 14 0;
#X connect 3 0 1 1;
#X connect 4 0 0 1;
#X connect 6 0 1 0;
#X connect 6 0 5 0;
#X connect 7 0 15 0;
#X connect 7 0 23 0;
#X connect 8 0 7 1;
#X connect 9 0 7 1;
#X connect 9 0 22 0;
#X connect 10 0 7 0;
#X connect 12 0 5 0;
#X connect 12 0 20 0;
#X connect 13 0 5 0;
#X connect 13 0 21 0;
#X connect 14 0 11 0;
#X connect 14 1 8 0;
#X connect 15 0 17 0;
#X connect 16 0 9 0;
#X connect 17 0 18 0;
#X connect 17 1 12 0;
#X connect 17 2 5 0;
#X connect 22 0 5 0;
#X connect 23 0 24 0;
#X connect 24 0 7 1;
#X connect 25 0 24 0;
#X connect 26 0 13 0;
#X restore -65 -37 pd audio_file_recorder W+A;
#N canvas 735 517 588 577 make_file_name 0;
#X obj 263 235 symbol;
#X obj 194 384 s \$0-datafilename;
#X obj 114 -115 r \$0-make_file_name;
#X msg 24 -85 set \$1;
#X obj 24 55 r \$0-year;
#X obj -53 25 r \$0-month;
#X obj -63 125 r \$0-day;
#X obj 24 -115 r \$0-partic;
#X msg 24 85 set \$1;
#X msg -53 55 set \$1;
#X msg -63 155 set \$1;
#X msg 207 205 1;
#X obj 194 324 symbol;
#X msg 126 205 1;
#X msg 164 205 1;
#X msg 88 205 1;
#X obj 114 -85 bng 15 250 50 0 empty empty empty 17 7 0 10 -262144
-1 -1;
#X obj 114 -55 delay 100;
#N canvas 301 686 383 259 add_path_n_filename 0;
#X obj 250 -28 inlet;
#X obj 229 162 outlet;
#X obj 7 -28 r \$0-prg_path;
#X msg 7 62 <--_click_to_set_path;
#X obj 229 102 pack s s;
#X obj 282 61 l2s;
#X obj 229 132 makesymbol %s/%s;
#X obj 171 -28 r loadbang;
#X msg 171 2 set;
#X obj 250 2 t b a;
#X connect 0 0 9 0;
#X connect 2 0 3 0;
#X connect 3 0 4 0;
#X connect 4 0 6 0;
#X connect 5 0 4 1;
#X connect 6 0 1 0;
#X connect 7 0 8 0;
#X connect 8 0 3 0;
#X connect 9 0 3 0;
#X connect 9 1 5 0;
#X restore 194 354 pd add_path_n_filename;
#X text 102 409 d_m_y_participantnumber_audiofilename_trialnumber;
#X msg 263 205 W+A;
#X msg 320 235 1;
#X msg 320 105 set \$1;
#X obj 320 204 t b a;
#X obj 194 262 pack f f f f s f;
#X msg 194 294 \$1_\$2_\$3_p\$4_\$5_f\$6;
#X obj 114 -25 t b b b b b;
#N canvas 693 791 162 215 filecounter 0;
#X obj -28 45 cup;
#X obj -2 -15 t b b;
#X obj -28 -75 bng 15 250 50 0 empty empty empty 17 7 0 10 -262144
-1 -1;
#X msg 30 15 1;
#X obj -28 -105 r \$0-filecounter;
#X obj -28 75 outlet;
#X obj 18 -45 loadbang;
#X obj -2 -75 r \$0-clrp;
#X connect 0 0 5 0;
#X connect 1 0 0 0;
#X connect 1 1 3 0;
#X connect 2 0 0 0;
#X connect 3 0 0 0;
#X connect 4 0 2 0;
#X connect 6 0 1 0;
#X connect 7 0 1 0;
#X restore 320 75 pd filecounter W+A;
#X obj 206 -55 s \$0-datatrig;
#X connect 0 0 24 4;
#X connect 2 0 16 0;
#X connect 3 0 11 0;
#X connect 4 0 8 0;
#X connect 5 0 9 0;
#X connect 6 0 10 0;
#X connect 7 0 3 0;
#X connect 8 0 14 0;
#X connect 9 0 13 0;
#X connect 10 0 15 0;
#X connect 11 0 24 3;
#X connect 12 0 18 0;
#X connect 13 0 24 1;
#X connect 14 0 24 2;
#X connect 15 0 24 0;
#X connect 16 0 17 0;
#X connect 16 0 28 0;
#X connect 17 0 26 0;
#X connect 18 0 1 0;
#X connect 20 0 0 0;
#X connect 21 0 24 5;
#X connect 22 0 23 0;
#X connect 23 0 21 0;
#X connect 23 1 21 0;
#X connect 24 0 25 0;
#X connect 25 0 12 0;
#X connect 26 0 15 0;
#X connect 26 1 13 0;
#X connect 26 2 14 0;
#X connect 26 3 11 0;
#X connect 26 4 20 0;
#X connect 27 0 22 0;
#X restore -69 59 pd make_file_name W+A;
#N canvas 901 22 359 722 save_wi2 0;
#X msg 53 438 write \$1;
#X obj 13 498 textfile;
#X obj 53 278 r \$0-datafilename;
#X obj 103 498 s \$0-filecounter;
#X obj 53 378 pack s s;
#X obj 53 408 makesymbol %s%s;
#X obj 103 468 bang;
#X obj 53 348 spigot;
#X msg 92 308 0;
#X msg 192 308 1;
#X obj 33 -142 r \$0-clrp;
#X obj 13 -172 r \$0-tglrtdatacap;
#X obj 133 -142 r \$0-setready;
#X msg 33 -112 0;
#N canvas 1086 674 114 131 rt_rate 0;
#X obj -3 -6 r \$0-rt_rate;
#X obj -3 24 route 0 1 2;
#X obj -3 94 outlet;
#X msg -3 54 250;
#X msg 37 54 100;
#X msg 77 54 10;
#X connect 0 0 1 0;
#X connect 1 0 3 0;
#X connect 1 1 4 0;
#X connect 1 2 5 0;
#X connect 3 0 2 0;
#X connect 4 0 2 0;
#X connect 5 0 2 0;
#X restore 73 -112 pd rt_rate;
#X obj 13 -82 metro 250;
#X obj 13 98 pack f f f f f f;
#X msg 13 128 add \$2 \$3 \$4 \$5 \$6;
#X msg 264 308 symbol .wi2;
#X obj 56 -22 r \$0-wii_y;
#X obj 78 8 r \$0-wii_z;
#X obj 100 38 r \$0-wii_roll;
#X obj 122 68 r \$0-wii_pitch;
#X obj 34 -50 r \$0-wii_x;
#X obj 218 -22 s \$0-t_sg;
#X obj 218 -42 tgl 15 0 empty empty test_signal 17 7 0 10 -262144 -1
-1 0 1;
#X obj 33 158 r \$0-reset_rtd;
#X msg 33 188 clear;
#X obj 218 98 r \$0-tglrtdatacap;
#X obj 53 248 s \$0-make_file_name;
#X obj 160 183 t b b;
#X obj 218 138 route 0;
#X connect 0 0 1 0;
#X connect 0 0 6 0;
#X connect 2 0 7 0;
#X connect 4 0 5 0;
#X connect 5 0 0 0;
#X connect 6 0 3 0;
#X connect 7 0 4 0;
#X connect 7 0 8 0;
#X connect 8 0 7 1;
#X connect 9 0 7 1;
#X connect 10 0 13 0;
#X connect 11 0 15 0;
#X connect 12 0 13 0;
#X connect 13 0 15 0;
#X connect 14 0 15 1;
#X connect 15 0 16 0;
#X connect 16 0 17 0;
#X connect 17 0 1 0;
#X connect 18 0 4 1;
#X connect 19 0 16 2;
#X connect 20 0 16 3;
#X connect 21 0 16 4;
#X connect 22 0 16 5;
#X connect 23 0 16 1;
#X connect 25 0 24 0;
#X connect 26 0 27 0;
#X connect 27 0 1 0;
#X connect 28 0 31 0;
#X connect 30 0 29 0;
#X connect 30 1 9 0;
#X connect 31 0 30 0;
#X connect 31 1 18 0;
#X restore -65 29 pd save_wi2 W+A;
#N canvas 425 399 416 651 a_datacap_rec_W+A 0;
#X obj -305 -187 r a_datacap_rec_W+A;
#X obj -291 63 s \$0-dispcurr;
#X obj -291 33 pack s;
#X obj -305 391 s \$0-next;
#X obj -305 361 spigot;
#X msg -173 331 0;
#X msg -220 331 1;
#X obj -305 203 spigot;
#X msg -212 123 1;
#X msg -165 123 0;
#X obj -305 331 delay 3000;
#X obj -173 183 spigot;
#X msg -305 153 0;
#X obj -271 -17 s \$0-btnAact;
#X obj -173 213 s \$0-tglrtdatacap;
#X msg -35 -77 1;
#X obj -35 -107 s \$0-reset_rtd;
#X obj -98 -77 delay;
#X obj -305 93 s \$0-startaudiorec;
#X obj -173 303 r \$0-startaudiorec;
#X obj -128 123 r \$0-recsync;
#X obj -305 123 r \$0-recdone;
#X msg -271 -47 0;
#X msg -128 153 1;
#X msg -75 393 0;
#X obj -35 423 s \$0-tglwii_xyzRP;
#X msg -155 -187 test;
#X obj -243 273 s \$0-rec_disp;
#X obj -243 213 select 1;
#X msg -243 243 label .;
#X msg -173 243 label;
#X obj -165 93 r \$0-next;
#X obj -305 -147 t a a b b b b b;
#X connect 0 0 32 0;
#X connect 2 0 1 0;
#X connect 4 0 3 0;
#X connect 4 0 24 0;
#X connect 5 0 4 1;
#X connect 6 0 4 1;
#X connect 7 0 6 0;
#X connect 7 0 10 0;
#X connect 8 0 7 1;
#X connect 8 0 11 1;
#X connect 9 0 7 1;
#X connect 9 0 11 1;
#X connect 10 0 4 0;
#X connect 11 0 14 0;
#X connect 11 0 28 0;
#X connect 12 0 11 0;
#X connect 12 0 7 0;
#X connect 15 0 25 0;
#X connect 17 0 8 0;
#X connect 19 0 5 0;
#X connect 20 0 23 0;
#X connect 21 0 12 0;
#X connect 22 0 13 0;
#X connect 23 0 11 0;
#X connect 24 0 25 0;
#X connect 26 0 32 0;
#X connect 28 0 29 0;
#X connect 28 1 30 0;
#X connect 29 0 27 0;
#X connect 30 0 27 0;
#X connect 31 0 9 0;
#X connect 32 0 18 0;
#X connect 32 2 22 0;
#X connect 32 4 17 0;
#X connect 32 5 15 0;
#X connect 32 6 16 0;
#X restore -65 -126 pd a_datacap_rec_W+A;
#X text -73 -152 PROGRAM COMMAND;
#X restore 359 393 pd modules W+A;
#X obj 262 395 bng 16 250 50 0 \$0-stop_rec \$0-noreceive empty 17
7 0 10 -258113 -1 -1;
#X obj 262 454 bng 16 250 50 0 \$0-clrp \$0-restartfrom3 empty 17 7
0 10 -260097 -1 -1;
#X obj 3 438 cnv 2 336 2 empty empty empty 20 12 0 14 -191407 -66577
0;
#X text 19 453 7) click to restart from (3);
#N canvas 457 247 452 476 setready 0;
#X obj 107 18 r \$0-year;
#X obj 107 -12 r \$0-month;
#X obj 97 -42 r \$0-day;
#X obj 107 47 r \$0-partic;
#X obj -27 -12 r \$0-setready;
#X obj -131 46 s \$0-datatrig;
#X obj -60 185 spigot;
#X msg -64 117 0;
#X msg -27 117 1;
#X obj -27 18 t b b;
#X obj -111 155 delay 250;
#X obj -140 216 bng 15 250 50 0 empty empty empty 20 7 0 10 -262144
-1 -1;
#X obj -140 -42 r \$0-setready_bng;
#X obj -103 245 s \$0-setnormal;
#X obj -103 305 s \$0-btnAact;
#X obj 69 77 route bang;
#X obj 5 305 s \$0-restartfrom3;
#X obj 132 305 s \$0-clrp;
#X obj 132 245 key;
#X msg -103 275 5;
#N canvas 1119 236 199 171 path 0;
#X obj 8 7 r \$0-openpanel_load_prg;
#X obj 8 67 splitfilename;
#X obj 8 128 s \$0-prg_path;
#X obj 8 37 savepanel;
#X msg 8 97 set \$1;
#X connect 0 0 3 0;
#X connect 1 0 4 0;
#X connect 3 0 1 0;
#X connect 4 0 2 0;
#X restore 118 335 pd path W+A;
#X obj 5 245 s \$0-rec_disp;
#X msg 5 215 label .;
#X msg 93 215 label;
#N canvas 1312 371 135 177 alternator 0;
#X obj -33 -66 inlet start/stop;
#X obj -33 -5 tgl 15 0 empty empty empty 17 7 0 10 -262144 -1 -1 0
1;
#X obj -33 86 outlet;
#X obj 36 86 outlet;
#X obj -33 -36 metro 250;
#X obj -33 25 route 1;
#X obj -33 56 bang;
#X obj 35 56 bang;
#X connect 0 0 4 0;
#X connect 1 0 5 0;
#X connect 4 0 1 0;
#X connect 5 0 6 0;
#X connect 5 1 7 0;
#X connect 6 0 2 0;
#X connect 7 0 3 0;
#X restore 5 186 pd alternator;
#X obj 69 107 r \$0-reset_rtd;
#X msg 69 137 0;
#X obj 132 275 route 27;
#X connect 0 0 15 0;
#X connect 1 0 15 0;
#X connect 2 0 15 0;
#X connect 3 0 15 0;
#X connect 4 0 9 0;
#X connect 6 0 11 0;
#X connect 7 0 6 1;
#X connect 8 0 6 1;
#X connect 9 0 8 0;
#X connect 9 0 5 0;
#X connect 9 0 10 0;
#X connect 9 1 24 0;
#X connect 10 0 6 0;
#X connect 11 0 13 0;
#X connect 11 0 19 0;
#X connect 12 0 11 0;
#X connect 15 0 7 0;
#X connect 18 0 27 0;
#X connect 19 0 14 0;
#X connect 22 0 21 0;
#X connect 23 0 21 0;
#X connect 24 0 22 0;
#X connect 24 1 23 0;
#X connect 25 0 26 0;
#X connect 26 0 24 0;
#X connect 27 0 17 0;
#X connect 27 0 16 0;
#X restore 359 153 pd setready W+A;
#X text 68 573 Juan Ignacio Mendoza - 2015;
#X text 19 303 5) press Wii button A or spacebar to start;
#N canvas 311 787 322 380 \$0-wii-data-arrays 0;
#N canvas 65 603 323 499 wii-data-arrays-SUB 0;
#N canvas 0 22 348 132 rtd 0;
#N canvas 388 324 483 357 (subpatch) 0;
#X array \$0-real_time_wii-x 1 float 0;
#X coords 0 100 100 -100 290 40 1;
#X restore 11 11 graph;
#X obj 11 11 cnv 15 290 40 empty empty empty 20 12 0 14 -245500 -66577
0;
#X coords 0 -100 100 100 292 42 2 10 10;
#X restore 5 27 pd rtd;
#N canvas 0 22 348 132 rtd 0;
#N canvas 388 324 483 357 (subpatch) 0;
#X array \$0-real_time_wii-y 1.36177e+06 float 0;
#X coords 0 100 1.36177e+06 -100 290 40 1;
#X restore 11 11 graph;
#X obj 11 11 cnv 15 290 40 empty empty empty 20 12 0 14 -245500 -66577
0;
#X coords 0 -100 1 100 292 42 2 10 10;
#X restore 5 97 pd rtd;
#N canvas 0 22 348 132 rtd 0;
#N canvas 388 324 483 357 (subpatch) 0;
#X array \$0-real_time_wii-z 1.36177e+06 float 0;
#X coords 0 100 1.36177e+06 -100 290 40 1;
#X restore 11 11 graph;
#X obj 11 11 cnv 15 290 40 empty empty empty 20 12 0 14 -245500 -66577
0;
#X coords 0 -100 1 100 292 42 2 10 10;
#X restore 5 167 pd rtd;
#N canvas 5 187 348 132 rtd 0;
#N canvas 388 324 483 357 (subpatch) 0;
#X array \$0-real_time_wii-roll 1.36177e+06 float 0;
#X coords 0 100 1.36177e+06 -100 290 40 1;
#X restore 11 11 graph;
#X obj 11 11 cnv 15 290 40 empty empty empty 20 12 0 14 -245500 -66577
0;
#X coords 0 -100 1 100 292 42 2 10 10;
#X restore 5 237 pd rtd;
#N canvas 0 22 348 132 rtd 0;
#N canvas 388 324 483 357 (subpatch) 0;
#X array \$0-real_time_wii-pitch 1.36177e+06 float 0;
#X coords 0 100 1.36177e+06 -100 290 40 1;
#X restore 11 11 graph;
#X obj 11 11 cnv 15 290 40 empty empty empty 20 12 0 14 -245500 -66577
0;
#X coords 0 -100 1 100 292 42 2 10 10;
#X restore 5 307 pd rtd;
#X obj 2 406 f \$0;
#X obj 2 376 r \$0-openarrays;
#X msg 2 441 \; pd-\$1-wii-data-arrays vis 1;
#X connect 5 0 7 0;
#X connect 6 0 5 0;
#X coords 0 -1 1 1 300 360 2 1 1;
#X restore -2 -105 pd wii-data-arrays-SUB;
#X coords 0 0 1 1 300 400 0;
#X restore 359 423 pd \$0-wii-data-arrays;
#X text 19 393 6) click to stop and save data;
#X obj 160 333 cnv 15 28 28 empty empty empty 20 12 0 14 -191407 -66577
0;
#X obj 162 335 cnv 18 24 24 empty \$0-rec_disp empty -17 -19 0 100
-1 -258113 0;
#X text 146 43 v 0.1.3;
#X connect 3 0 20 2;
#X connect 4 0 20 1;
#X connect 5 0 17 0;
#X connect 13 0 20 0;
#X connect 18 0 13 0;
#X connect 18 0 4 0;
#X connect 18 0 3 0;
#X connect 18 0 5 0;
#X connect 21 0 5 0;
#X connect 22 0 13 0;
#X connect 22 0 4 0;
#X connect 22 0 3 0;
#X connect 33 0 22 0;
#X coords 0 0 1 1 342 600 1 0 0;
#X restore 6 9 pd engines;
