#N canvas 695 26 630 269 12;
#N canvas 430 22 624 641 control_panel 0;
#N canvas 36 59 1113 442 elapsed_frames_display 0;
#X msg 18 348 \; elapsed_frames_54321 label \$1;
#X msg 891 347 \; elapsed_frames_1 label \$1;
#X obj 944 278 expr $f2 - $f1*10;
#N canvas 555 448 221 209 null_manager 0;
#X obj 113 16 inlet current;
#X obj 11 156 outlet symbol to display;
#X obj 113 111 ftos;
#X msg 11 111 symbol;
#X obj 21 46 r reset_bang;
#X obj 21 76 delay 250;
#X obj 11 16 inlet iszero;
#X connect 0 0 2 0;
#X connect 2 0 1 0;
#X connect 3 0 1 0;
#X connect 4 0 5 0;
#X connect 5 0 3 0;
#X connect 6 0 3 0;
#X restore 891 317 pd null_manager;
#X msg 680 347 \; elapsed_frames_21 label \$1;
#X obj 733 278 expr $f2 - $f1*10;
#X obj 680 118 div 10;
#X msg 471 348 \; elapsed_frames_321 label \$1;
#X obj 524 278 expr $f2 - $f1*10;
#X obj 471 118 div 100;
#X msg 250 348 \; elapsed_frames_4321 label \$1;
#X obj 303 278 expr $f2 - $f1*10;
#X obj 250 118 div 1000;
#X obj 18 118 div 10000;
#X obj 944 239 int;
#X obj 733 239 int;
#X obj 524 238 int;
#X obj 303 238 int;
#X obj 891 148 select 0;
#X obj 680 148 select 0;
#N canvas 555 448 221 209 null_manager 0;
#X obj 113 16 inlet current;
#X obj 11 156 outlet symbol to display;
#X obj 113 111 ftos;
#X msg 11 111 symbol;
#X obj 21 46 r reset_bang;
#X obj 21 76 delay 250;
#X obj 11 16 inlet iszero;
#X connect 0 0 2 0;
#X connect 2 0 1 0;
#X connect 3 0 1 0;
#X connect 4 0 5 0;
#X connect 5 0 3 0;
#X connect 6 0 3 0;
#X restore 680 318 pd null_manager;
#X obj 471 148 select 0;
#N canvas 555 448 221 209 null_manager 0;
#X obj 113 16 inlet current;
#X obj 11 156 outlet symbol to display;
#X obj 113 111 ftos;
#X msg 11 111 symbol;
#X obj 21 46 r reset_bang;
#X obj 21 76 delay 250;
#X obj 11 16 inlet iszero;
#X connect 0 0 2 0;
#X connect 2 0 1 0;
#X connect 3 0 1 0;
#X connect 4 0 5 0;
#X connect 5 0 3 0;
#X connect 6 0 3 0;
#X restore 471 318 pd null_manager;
#X obj 250 148 select 0;
#N canvas 555 448 221 209 null_manager 0;
#X obj 113 16 inlet current;
#X obj 11 156 outlet symbol to display;
#X obj 113 111 ftos;
#X msg 11 111 symbol;
#X obj 21 46 r reset_bang;
#X obj 21 76 delay 250;
#X obj 11 16 inlet iszero;
#X connect 0 0 2 0;
#X connect 2 0 1 0;
#X connect 3 0 1 0;
#X connect 4 0 5 0;
#X connect 5 0 3 0;
#X connect 6 0 3 0;
#X restore 250 318 pd null_manager;
#X obj 18 148 select 0;
#N canvas 555 448 221 209 null_manager 0;
#X obj 113 16 inlet current;
#X obj 11 156 outlet symbol to display;
#X obj 113 111 ftos;
#X msg 11 111 symbol;
#X obj 21 46 r reset_bang;
#X obj 21 76 delay 250;
#X obj 11 16 inlet iszero;
#X connect 0 0 2 0;
#X connect 2 0 1 0;
#X connect 3 0 1 0;
#X connect 4 0 5 0;
#X connect 5 0 3 0;
#X connect 6 0 3 0;
#X restore 18 318 pd null_manager;
#X obj 944 188 t b f;
#X obj 303 178 t b f;
#X obj 524 178 t b f;
#X obj 733 178 t b f;
#X obj 560 8 r current_frame;
#X obj 560 38 t f f f f f;
#X connect 2 0 3 1;
#X connect 3 0 1 0;
#X connect 5 0 20 1;
#X connect 6 0 19 0;
#X connect 6 0 14 1;
#X connect 8 0 22 1;
#X connect 9 0 21 0;
#X connect 9 0 15 1;
#X connect 11 0 24 1;
#X connect 12 0 23 0;
#X connect 12 0 16 1;
#X connect 13 0 25 0;
#X connect 13 0 17 1;
#X connect 14 0 2 0;
#X connect 15 0 5 0;
#X connect 16 0 8 0;
#X connect 17 0 11 0;
#X connect 18 0 3 0;
#X connect 18 1 27 0;
#X connect 19 0 20 0;
#X connect 19 1 30 0;
#X connect 20 0 4 0;
#X connect 21 0 22 0;
#X connect 21 1 29 0;
#X connect 22 0 7 0;
#X connect 23 0 24 0;
#X connect 23 1 28 0;
#X connect 24 0 10 0;
#X connect 25 0 26 0;
#X connect 25 1 26 1;
#X connect 26 0 0 0;
#X connect 27 0 14 0;
#X connect 27 1 2 1;
#X connect 28 0 17 0;
#X connect 28 1 11 1;
#X connect 29 0 16 0;
#X connect 29 1 8 1;
#X connect 30 0 15 0;
#X connect 30 1 5 1;
#X connect 31 0 32 0;
#X connect 32 0 18 0;
#X connect 32 1 6 0;
#X connect 32 2 9 0;
#X connect 32 3 12 0;
#X connect 32 4 13 0;
#X restore 431 261 pd elapsed_frames_display;
#N canvas 192 69 923 755 elapsed_time_display 0;
#X obj 570 258 expr $f2 - $f1*10;
#X obj 570 208 t b f;
#X obj 570 178 div 10;
#X obj 424 178 div 100;
#X obj 424 258 expr $f2 - $f1*10;
#X obj 424 208 t b f;
#X obj 714 258 expr $f2 - $f1*10;
#X obj 714 218 t b f;
#X obj 424 288 ftos;
#X obj 570 288 ftos;
#X obj 714 288 ftos;
#X obj 284 258 expr $f2 - $f1*10;
#X obj 284 208 t b f;
#X obj 284 288 ftos;
#X obj 284 178 div 1000;
#X obj 144 208 t b f;
#X obj 144 288 ftos;
#X obj 570 98 *;
#X obj 4 258 expr $f2 - $f1*10;
#X obj 4 208 t b f;
#X obj 4 288 ftos;
#X obj 4 178 div 60000;
#X obj 144 178 div 10000;
#X obj 144 258 expr $f2 - $f1*6;
#X obj 450 28 - 1;
#X obj 570 -2 r fps_snd;
#X obj 450 -2 r current_frame;
#X msg 714 438 \; elapsed_time_XXms label \$1;
#X msg 570 488 \; elapsed_time_XmsX label \$1;
#X msg 424 538 \; elapsed_time_msXX label \$1;
#X msg 284 588 \; elapsed_time_Xs label \$1;
#X msg 144 638 \; elapsed_time_sX label \$1;
#X msg 4 688 \; elapsed_time_m label \$1;
#X msg 22 382 symbol;
#X obj 22 322 r reset_bang;
#X obj 22 352 delay 250;
#X obj 570 28 expr 1000/$f1;
#X obj 570 58 t b f;
#X connect 0 0 9 0;
#X connect 1 0 0 0;
#X connect 1 1 0 1;
#X connect 2 0 1 0;
#X connect 2 0 6 0;
#X connect 3 0 5 0;
#X connect 3 0 0 0;
#X connect 4 0 8 0;
#X connect 5 0 4 0;
#X connect 5 1 4 1;
#X connect 6 0 10 0;
#X connect 7 0 6 0;
#X connect 7 1 6 1;
#X connect 8 0 29 0;
#X connect 9 0 28 0;
#X connect 10 0 27 0;
#X connect 11 0 13 0;
#X connect 12 0 11 0;
#X connect 12 1 11 1;
#X connect 13 0 30 0;
#X connect 14 0 12 0;
#X connect 14 0 4 0;
#X connect 15 0 23 0;
#X connect 15 1 23 1;
#X connect 16 0 31 0;
#X connect 17 0 21 0;
#X connect 17 0 14 0;
#X connect 17 0 3 0;
#X connect 17 0 2 0;
#X connect 17 0 7 0;
#X connect 17 0 22 0;
#X connect 18 0 20 0;
#X connect 19 0 18 0;
#X connect 19 1 18 1;
#X connect 20 0 32 0;
#X connect 21 0 19 0;
#X connect 21 0 23 0;
#X connect 22 0 15 0;
#X connect 22 0 11 0;
#X connect 23 0 16 0;
#X connect 24 0 17 0;
#X connect 25 0 36 0;
#X connect 26 0 24 0;
#X connect 33 0 32 0;
#X connect 33 0 31 0;
#X connect 33 0 30 0;
#X connect 33 0 29 0;
#X connect 33 0 28 0;
#X connect 33 0 27 0;
#X connect 34 0 35 0;
#X connect 35 0 33 0;
#X connect 36 0 37 0;
#X connect 37 0 17 0;
#X connect 37 1 17 1;
#X restore 445 321 pd elapsed_time_display;
#N canvas 57 23 1084 421 total_frames_display 0;
#X msg 774 307 \; total_frames_1 label \$1;
#X msg 563 307 \; total_frames_21 label \$1;
#X msg 354 308 \; total_frames_321 label \$1;
#X msg -99 308 \; total_frames_54321 label \$1;
#X obj 443 -32 r total_frames;
#X msg 133 308 \; total_frames_4321 label \$1;
#X obj 827 238 expr $f2 - $f1*10;
#N canvas 555 448 221 209 null_manager 0;
#X obj 113 16 inlet current;
#X obj 11 156 outlet symbol to display;
#X obj 113 111 ftos;
#X msg 11 111 symbol;
#X obj 21 46 r reset_bang;
#X obj 21 76 delay 250;
#X obj 11 16 inlet iszero;
#X connect 0 0 2 0;
#X connect 2 0 1 0;
#X connect 3 0 1 0;
#X connect 4 0 5 0;
#X connect 5 0 3 0;
#X connect 6 0 3 0;
#X restore 774 277 pd null_manager;
#X obj 616 238 expr $f2 - $f1*10;
#X obj 563 78 div 10;
#X obj 407 238 expr $f2 - $f1*10;
#X obj 354 78 div 100;
#X obj 186 238 expr $f2 - $f1*10;
#X obj 133 78 div 1000;
#X obj -99 78 div 10000;
#X obj 827 199 int;
#X obj 616 199 int;
#X obj 407 198 int;
#X obj 186 198 int;
#X obj 774 108 select 0;
#X obj 563 108 select 0;
#N canvas 555 448 221 209 null_manager 0;
#X obj 113 16 inlet current;
#X obj 11 156 outlet symbol to display;
#X obj 113 111 ftos;
#X msg 11 111 symbol;
#X obj 21 46 r reset_bang;
#X obj 21 76 delay 250;
#X obj 11 16 inlet iszero;
#X connect 0 0 2 0;
#X connect 2 0 1 0;
#X connect 3 0 1 0;
#X connect 4 0 5 0;
#X connect 5 0 3 0;
#X connect 6 0 3 0;
#X restore 563 278 pd null_manager;
#X obj 354 108 select 0;
#N canvas 555 448 221 209 null_manager 0;
#X obj 113 16 inlet current;
#X obj 11 156 outlet symbol to display;
#X obj 113 111 ftos;
#X msg 11 111 symbol;
#X obj 21 46 r reset_bang;
#X obj 21 76 delay 250;
#X obj 11 16 inlet iszero;
#X connect 0 0 2 0;
#X connect 2 0 1 0;
#X connect 3 0 1 0;
#X connect 4 0 5 0;
#X connect 5 0 3 0;
#X connect 6 0 3 0;
#X restore 354 278 pd null_manager;
#X obj 133 108 select 0;
#N canvas 555 448 221 209 null_manager 0;
#X obj 113 16 inlet current;
#X obj 11 156 outlet symbol to display;
#X obj 113 111 ftos;
#X msg 11 111 symbol;
#X obj 21 46 r reset_bang;
#X obj 21 76 delay 250;
#X obj 11 16 inlet iszero;
#X connect 0 0 2 0;
#X connect 2 0 1 0;
#X connect 3 0 1 0;
#X connect 4 0 5 0;
#X connect 5 0 3 0;
#X connect 6 0 3 0;
#X restore 133 278 pd null_manager;
#X obj -99 108 select 0;
#N canvas 555 448 221 209 null_manager 0;
#X obj 113 16 inlet current;
#X obj 11 156 outlet symbol to display;
#X obj 113 111 ftos;
#X msg 11 111 symbol;
#X obj 21 46 r reset_bang;
#X obj 21 76 delay 250;
#X obj 11 16 inlet iszero;
#X connect 0 0 2 0;
#X connect 2 0 1 0;
#X connect 3 0 1 0;
#X connect 4 0 5 0;
#X connect 5 0 3 0;
#X connect 6 0 3 0;
#X restore -99 278 pd null_manager;
#X obj 827 148 t b f;
#X obj 186 138 t b f;
#X obj 407 138 t b f;
#X obj 616 138 t b f;
#X obj 443 -2 t f f f f f;
#X connect 4 0 32 0;
#X connect 6 0 7 1;
#X connect 7 0 0 0;
#X connect 8 0 21 1;
#X connect 9 0 20 0;
#X connect 9 0 15 1;
#X connect 10 0 23 1;
#X connect 11 0 22 0;
#X connect 11 0 16 1;
#X connect 12 0 25 1;
#X connect 13 0 24 0;
#X connect 13 0 17 1;
#X connect 14 0 26 0;
#X connect 14 0 18 1;
#X connect 15 0 6 0;
#X connect 16 0 8 0;
#X connect 17 0 10 0;
#X connect 18 0 12 0;
#X connect 19 0 7 0;
#X connect 19 1 28 0;
#X connect 20 0 21 0;
#X connect 20 1 31 0;
#X connect 21 0 1 0;
#X connect 22 0 23 0;
#X connect 22 1 30 0;
#X connect 23 0 2 0;
#X connect 24 0 25 0;
#X connect 24 1 29 0;
#X connect 25 0 5 0;
#X connect 26 0 27 0;
#X connect 26 1 27 1;
#X connect 27 0 3 0;
#X connect 28 0 15 0;
#X connect 28 1 6 1;
#X connect 29 0 18 0;
#X connect 29 1 12 1;
#X connect 30 0 17 0;
#X connect 30 1 10 1;
#X connect 31 0 16 0;
#X connect 31 1 8 1;
#X connect 32 0 19 0;
#X connect 32 1 9 0;
#X connect 32 2 11 0;
#X connect 32 3 13 0;
#X connect 32 4 14 0;
#X restore 445 291 pd total_frames_display;
#N canvas 26 71 931 761 total_time_display 0;
#X obj 570 268 expr $f2 - $f1*10;
#X obj 570 218 t b f;
#X obj 570 188 div 10;
#X obj 424 188 div 100;
#X obj 424 268 expr $f2 - $f1*10;
#X obj 424 218 t b f;
#X obj 714 268 expr $f2 - $f1*10;
#X obj 714 228 t b f;
#X obj 424 298 ftos;
#X obj 570 298 ftos;
#X obj 714 298 ftos;
#X obj 284 268 expr $f2 - $f1*10;
#X obj 284 218 t b f;
#X obj 284 298 ftos;
#X obj 284 188 div 1000;
#X obj 144 218 t b f;
#X obj 144 298 ftos;
#X obj 570 108 *;
#X obj 4 268 expr $f2 - $f1*10;
#X obj 4 218 t b f;
#X obj 4 298 ftos;
#X obj 4 188 div 60000;
#X obj 144 188 div 10000;
#X obj 144 268 expr $f2 - $f1*6;
#X obj 570 18 r fps_snd;
#X msg 714 389 \; total_time_XXms label \$1;
#X msg 570 438 \; total_time_XmsX label \$1;
#X msg 424 488 \; total_time_msXX label \$1;
#X msg 284 538 \; total_time_Xs label \$1;
#X msg 144 588 \; total_time_sX label \$1;
#X msg 4 638 \; total_time_m label \$1;
#X obj 450 18 r total_frames;
#X msg 24 358 symbol;
#X obj 24 328 r reset_bang;
#X obj 450 48 - 1;
#X obj 570 48 expr 1000/$f1;
#X obj 570 78 t b f;
#X connect 0 0 9 0;
#X connect 1 0 0 0;
#X connect 1 1 0 1;
#X connect 2 0 1 0;
#X connect 2 0 6 0;
#X connect 3 0 5 0;
#X connect 3 0 0 0;
#X connect 4 0 8 0;
#X connect 5 0 4 0;
#X connect 5 1 4 1;
#X connect 6 0 10 0;
#X connect 7 0 6 0;
#X connect 7 1 6 1;
#X connect 8 0 27 0;
#X connect 9 0 26 0;
#X connect 10 0 25 0;
#X connect 11 0 13 0;
#X connect 12 0 11 0;
#X connect 12 1 11 1;
#X connect 13 0 28 0;
#X connect 14 0 12 0;
#X connect 14 0 4 0;
#X connect 15 0 23 0;
#X connect 15 1 23 1;
#X connect 16 0 29 0;
#X connect 17 0 21 0;
#X connect 17 0 14 0;
#X connect 17 0 3 0;
#X connect 17 0 2 0;
#X connect 17 0 7 0;
#X connect 17 0 22 0;
#X connect 18 0 20 0;
#X connect 19 0 18 0;
#X connect 19 1 18 1;
#X connect 20 0 30 0;
#X connect 21 0 19 0;
#X connect 21 0 23 0;
#X connect 22 0 15 0;
#X connect 22 0 11 0;
#X connect 23 0 16 0;
#X connect 24 0 35 0;
#X connect 31 0 34 0;
#X connect 32 0 30 0;
#X connect 32 0 25 0;
#X connect 32 0 29 0;
#X connect 32 0 28 0;
#X connect 32 0 27 0;
#X connect 32 0 26 0;
#X connect 33 0 32 0;
#X connect 34 0 17 0;
#X connect 35 0 36 0;
#X connect 36 0 17 0;
#X connect 36 1 17 1;
#X restore 459 351 pd total_time_display;
#N canvas 727 192 282 539 speedplay 0;
#X obj 16 221 cursor;
#X obj 16 251 route button;
#X obj 16 281 unpack f f;
#X obj 83 311 select 0;
#X obj 83 501 s speedplay_rcv;
#X obj 16 21 r speedplay_snd;
#X msg 55 51 0;
#X obj 83 431 line;
#X obj 83 371 int;
#X obj 16 101 spigot;
#X msg 175 51 1;
#X msg 83 401 \$1 \, 0 200;
#X msg 173 151 0;
#X msg 16 191 1;
#X msg 83 471 set \$1;
#X obj 101 341 r speedplay_snd;
#X obj 173 211 s playstop_snd;
#X obj 173 401 r reset_bang;
#X obj 163 371 loadbang;
#X msg 163 431 0;
#X obj 175 21 loadbang;
#X obj 26 161 s playstop_rcv;
#X msg 26 131 set 0;
#X connect 0 0 1 0;
#X connect 1 0 2 0;
#X connect 2 1 3 0;
#X connect 3 0 8 0;
#X connect 3 0 10 0;
#X connect 3 0 12 0;
#X connect 5 0 9 0;
#X connect 6 0 9 1;
#X connect 7 0 14 0;
#X connect 8 0 11 0;
#X connect 9 0 6 0;
#X connect 9 0 13 0;
#X connect 9 0 22 0;
#X connect 10 0 9 1;
#X connect 11 0 7 0;
#X connect 12 0 0 0;
#X connect 12 0 16 0;
#X connect 13 0 0 0;
#X connect 14 0 4 0;
#X connect 15 0 8 1;
#X connect 17 0 19 0;
#X connect 18 0 19 0;
#X connect 19 0 14 0;
#X connect 20 0 10 0;
#X connect 22 0 21 0;
#X restore 522 501 pd speedplay;
#N canvas 157 98 648 716 video_playback 0;
#X obj -20 401 metro;
#X obj 22 551 cup;
#X msg 42 511 1;
#X obj 22 331 int;
#X obj 168 301 int;
#X obj -20 -19 r playstop_snd;
#X obj 186 -19 r fps_snd;
#X obj 42 461 r movie_end;
#X obj 40 301 r current_frame;
#X obj 22 671 s play_frame;
#X obj 267 -19 r speedplay_snd;
#X obj 223 533 int;
#X obj 241 503 r current_frame;
#X obj 61 641 expr $f2 - $f1;
#X obj 22 611 gate 2;
#X msg 140 413 1;
#X msg 200 433 2;
#X obj 200 463 t f b b;
#X obj 140 463 t f b;
#X obj 200 373 r play_forward;
#X obj 200 403 r play_backward;
#X obj 206 141 spigot;
#X msg 206 111 1;
#X obj 12 41 select 1;
#X obj 336 141 t b f;
#X obj -20 11 t f f;
#X obj -20 191 t f b;
#X msg 245 111 0;
#X msg 285 111 1;
#X msg 268 301 1;
#X obj 168 331 expr 1000/($f1 * $f2);
#X obj 386 51 moses 0;
#X obj 336 111 abs;
#X obj 386 261 spigot;
#X msg 425 231 0;
#X msg 465 231 1;
#X obj 386 291 s play_backward;
#X obj 432 161 s play_forward;
#X obj 465 201 r playstop_snd;
#X obj 432 131 spigot;
#X msg 471 101 0;
#X msg 511 101 1;
#X obj 511 71 r playstop_snd;
#X obj 290 51 route 0;
#X obj 78 111 s play_forward;
#X obj 12 81 t b b b;
#X obj 267 11 t f f f;
#X msg 290 81 0.02;
#X connect 0 0 1 0;
#X connect 1 0 14 1;
#X connect 2 0 1 0;
#X connect 3 0 1 0;
#X connect 4 0 30 0;
#X connect 5 0 25 0;
#X connect 6 0 4 1;
#X connect 7 0 2 0;
#X connect 8 0 3 1;
#X connect 10 0 46 0;
#X connect 11 0 13 1;
#X connect 12 0 11 1;
#X connect 13 0 9 0;
#X connect 14 0 9 0;
#X connect 14 1 13 0;
#X connect 15 0 18 0;
#X connect 16 0 17 0;
#X connect 17 0 14 0;
#X connect 17 1 11 0;
#X connect 17 2 2 0;
#X connect 18 0 14 0;
#X connect 18 1 3 0;
#X connect 19 0 15 0;
#X connect 20 0 16 0;
#X connect 21 0 26 0;
#X connect 21 0 27 0;
#X connect 22 0 21 0;
#X connect 23 0 45 0;
#X connect 23 1 28 0;
#X connect 24 0 4 0;
#X connect 24 1 30 1;
#X connect 25 0 26 0;
#X connect 25 1 23 0;
#X connect 26 0 0 0;
#X connect 26 1 3 0;
#X connect 27 0 21 1;
#X connect 28 0 21 1;
#X connect 29 0 30 1;
#X connect 30 0 0 1;
#X connect 31 0 33 0;
#X connect 31 1 39 0;
#X connect 32 0 24 0;
#X connect 33 0 34 0;
#X connect 33 0 36 0;
#X connect 33 0 41 0;
#X connect 34 0 33 1;
#X connect 35 0 33 1;
#X connect 38 0 35 0;
#X connect 39 0 40 0;
#X connect 39 0 37 0;
#X connect 39 0 35 0;
#X connect 40 0 39 1;
#X connect 41 0 39 1;
#X connect 42 0 41 0;
#X connect 43 0 47 0;
#X connect 43 1 32 0;
#X connect 45 0 4 0;
#X connect 45 1 29 0;
#X connect 45 2 44 0;
#X connect 46 0 22 0;
#X connect 46 1 43 0;
#X connect 46 2 31 0;
#X connect 47 0 32 0;
#X restore 487 411 pd video_playback;
#N canvas 891 428 198 236 fps_select 0;
#X obj 30 11 r select_fps;
#X obj 57 201 s fps_rcv;
#X obj 30 61 select 0 1 2;
#X msg 17 111 30;
#X msg 57 151 25;
#X msg 147 111 24;
#X obj 67 111 loadbang;
#X connect 0 0 2 0;
#X connect 2 0 3 0;
#X connect 2 1 4 0;
#X connect 2 2 5 0;
#X connect 3 0 1 0;
#X connect 4 0 1 0;
#X connect 5 0 1 0;
#X connect 6 0 4 0;
#X restore 515 471 pd fps_select;
#X text 220 596 Juan Ignacio Mendoza - 2016;
#N canvas 502 30 184 390 settings_window 0;
#N canvas 177 47 225 477 settings_panel 0;
#X obj 1 1 cnv 15 158 360 empty empty empty 8 46 0 12 -99865 -262144
0;
#X obj 3 4 cnv 15 154 354 empty empty SETTINGS 36 14 0 16 -162280 -204786
0;
#X obj 10 176 cnv 15 139 82 empty empty empty 18 40 0 12 -1 -262144
0;
#X obj 30 228 cnv 10 116 12 empty empty original 2 5 0 12 -162280 -262144
0;
#X obj 30 213 cnv 10 116 12 empty empty half 2 5 0 12 -162280 -262144
0;
#X obj 30 243 cnv 10 116 12 empty empty double 2 5 0 12 -162280 -262144
0;
#X obj 12 196 vradio 15 1 0 4 screen_scale no_rcv empty 0 -8 0 10 -204786
-1 -1 0;
#X obj 26 176 cnv 15 54 14 empty empty screen 4 8 0 12 -1 -262144 0
;
#X obj 76 176 cnv 15 54 14 empty empty scaling 4 8 0 12 -1 -262144
0;
#X obj 10 65 cnv 15 139 100 empty empty empty 18 40 0 12 -1 -262144
0;
#X obj 37 65 cnv 15 54 14 empty empty frame 4 8 0 12 -1 -262144 0;
#X obj 84 65 cnv 15 54 14 empty empty rate 4 8 0 12 -1 -262144 0;
#X obj 13 137 cnv 15 42 19 empty empty empty 18 40 0 12 -228856 -262144
0;
#X floatatom 13 137 2 0 0 1 fps fps_rcv fps_snd;
#X obj 12 85 vradio 15 1 1 3 select_fps no_rcv empty 0 -8 0 10 -204800
-1 -1 1;
#X obj 30 87 cnv 10 116 12 empty empty 30 2 5 0 12 -162280 -262144
0;
#X obj 30 102 cnv 10 116 12 empty empty 25 2 5 0 12 -162280 -262144
0;
#X obj 30 117 cnv 10 116 12 empty empty 24 2 5 0 12 -162280 -262144
0;
#X obj 60 141 cnv 10 86 12 empty empty other 2 5 0 12 -162280 -262144
0;
#X obj 52 102 cnv 10 80 12 empty empty (default) 2 5 0 12 -162280 -262144
0;
#X obj 10 36 cnv 15 139 18 empty empty empty 18 40 0 12 -1 -262144
0;
#X obj 13 38 bng 14 250 50 0 open_panel no_rcv open 19 7 0 12 -262144
-4034 -262144;
#X obj 64 40 cnv 10 80 12 empty empty video 2 5 0 12 -1 -262144 0;
#X obj 105 40 cnv 10 40 12 empty empty file 2 5 0 12 -33289 -262144
0;
#X obj 10 334 cnv 15 139 18 empty empty empty 18 40 0 12 -1 -262144
0;
#X obj 13 336 bng 14 250 50 0 close_movie no_rcv close 19 7 0 12 -262144
-258113 -262144;
#X obj 74 338 cnv 10 70 12 empty empty video 2 5 0 12 -1 -262144 0
;
#X obj 115 338 cnv 10 32 12 empty empty file 2 5 0 12 -33289 -262144
0;
#X obj 30 198 cnv 10 116 12 empty empty screen 2 5 0 12 -162280 -262144
0;
#X obj 80 198 cnv 10 10 12 empty empty 2 2 5 0 12 -162280 -262144 0
;
#X obj 94 198 cnv 10 40 12 empty empty (def.) 2 5 0 12 -162280 -262144
0;
#X obj 10 269 cnv 15 139 54 empty empty empty 18 40 0 12 -1 -262144
0;
#X obj 30 269 cnv 15 54 14 empty empty adjust 4 8 0 12 -1 -262144 0
;
#X obj 80 269 cnv 15 54 14 empty empty screen 4 8 0 12 -1 -262144 0
;
#X obj 14 291 hsl 131 14 1 20 0 0 adjust_v_snd adjust_v_rcv vertical
38 7 0 12 -162280 -261682 -262144 0 1;
#X obj 14 307 hsl 131 14 1 20 0 0 adjust_h_snd adjust_h_rcv horizontal
31 7 0 12 -162280 -262130 -262144 0 1;
#X msg 0 414 \; pd-settings_window vis 1 \;;
#X obj 0 384 r open_settings_window_snd;
#X connect 37 0 36 0;
#X coords 0 -1 1 1 160 362 1 0 0;
#X restore 12 -145 pd settings_panel;
#X restore 480 381 pd settings_window;
#N canvas 274 23 565 533 scroll 0;
#X obj 137 184 - 1;
#X obj 137 154 int;
#X obj -3 69 int;
#X msg 137 424 set \$1;
#X obj 287 154 int;
#X obj 287 184 + 1;
#X obj 137 464 s scroll_rcv;
#X obj 457 24 r play_frame;
#X obj 287 24 r 1_frame_forward_snd;
#X obj 137 24 r 1_frame_back_snd;
#X obj -3 24 r scroll_snd;
#X obj 27 154 r reset_bang;
#X msg 27 184 1;
#X obj 43 494 s current_frame;
#X obj -3 464 moses 1;
#X connect 0 0 3 0;
#X connect 0 0 1 1;
#X connect 0 0 4 1;
#X connect 0 0 14 0;
#X connect 1 0 0 0;
#X connect 2 0 1 1;
#X connect 2 0 4 1;
#X connect 2 0 14 0;
#X connect 3 0 6 0;
#X connect 4 0 5 0;
#X connect 5 0 4 1;
#X connect 5 0 3 0;
#X connect 5 0 1 1;
#X connect 5 0 14 0;
#X connect 7 0 3 0;
#X connect 7 0 4 1;
#X connect 7 0 1 1;
#X connect 7 0 14 0;
#X connect 8 0 4 0;
#X connect 9 0 1 0;
#X connect 10 0 1 1;
#X connect 10 0 2 0;
#X connect 11 0 12 0;
#X connect 12 0 3 0;
#X connect 12 0 14 0;
#X connect 14 1 13 0;
#X restore 543 531 pd scroll;
#N canvas 831 95 300 742 video_display 0;
#X msg 42 667 0 \, destroy;
#X obj 24 105 gemhead;
#X msg 94 103 open \$1;
#X obj 94 41 openpanel;
#X msg 50 333 range 1 \$1;
#X msg 140 393 1;
#X obj 24 703 gemwin 50;
#X obj 50 433 s scroll_rcv;
#X obj 140 333 r beginning;
#X obj 157 213 s movie_end;
#X obj 77 143 r current_frame;
#X obj 132 697 s reset_bang;
#X obj 94 11 r open_panel;
#X msg 24 75 1;
#X obj 180 433 s playstop_rcv;
#X obj 140 363 t b b;
#X msg 180 393 0;
#X obj 132 627 r close_movie;
#X obj 42 627 loadbang;
#X obj 132 667 delay 250;
#X obj 70 303 s total_frames;
#X obj 131 243 s original_height;
#X obj 90 273 s original_width;
#X obj 50 213 unpack f f f;
#X obj 84 523 r adjust_v_snd;
#X obj 54 493 r adjust_h_snd;
#X obj 24 173 pix_film;
#X obj 24 463 pix_texture;
#N canvas 647 56 668 689 screen_scaling 0;
#X obj 90 358 / 1;
#X obj -90 358 / 1;
#X msg 40 228 0.5;
#X msg 3 228 1;
#X msg -37 228 2;
#X obj 204 8 r screen_scale;
#X obj -90 528 pack f f;
#X obj -60 178 select 0 1 2 3;
#X msg 236 168 0 \, destroy;
#X obj 255 530 pack f f;
#X obj -90 318 int;
#X obj 90 318 int;
#X obj 40 268 t b b f;
#X obj 255 358 int;
#X obj -72 108 r original_width;
#X obj 108 108 r original_height;
#X obj 204 38 t f b;
#X msg 255 560 reset \, dimen \$2 \$1 \, fullscreen 2 \, create \,
1;
#X obj 236 630 outlet to gemwin;
#X obj 308 358 int;
#X msg 365 68 1;
#X obj 328 198 select 1;
#X obj 255 248 t b b;
#X msg 463 168 0;
#X obj 365 98 t b f;
#X obj 328 168 ==;
#X msg 328 68 1;
#X msg 463 138 2;
#X obj 328 8 r original_width;
#X obj 365 38 r original_height;
#X obj 351 318 r original_width;
#X obj 333 288 r original_height;
#X obj -40 358 /;
#X obj -40 468 *;
#X obj -40 388 t b f;
#X msg -40 418 3;
#X obj 54 510 s adjust_h_snd;
#X obj 54 460 s adjust_v_snd;
#X msg 181 410 3.05;
#X msg 181 460 7.1;
#X msg -90 560 reset \, dimen \$1 \$2 \, create \, 1;
#X obj 328 400 r adjust_v_snd;
#X obj 438 400 r adjust_h_snd;
#X obj 328 460 s adjust_v_rcv;
#X obj 438 460 s adjust_h_rcv;
#X msg 328 430 set \$1;
#X msg 438 430 set \$1;
#X connect 0 0 6 1;
#X connect 1 0 6 0;
#X connect 2 0 12 0;
#X connect 3 0 12 0;
#X connect 4 0 12 0;
#X connect 5 0 16 0;
#X connect 6 0 40 0;
#X connect 7 0 22 0;
#X connect 7 1 4 0;
#X connect 7 2 3 0;
#X connect 7 3 2 0;
#X connect 8 0 18 0;
#X connect 9 0 17 0;
#X connect 10 0 1 0;
#X connect 10 0 32 0;
#X connect 11 0 0 0;
#X connect 11 0 32 1;
#X connect 12 0 10 0;
#X connect 12 1 11 0;
#X connect 12 2 0 1;
#X connect 12 2 1 1;
#X connect 13 0 9 0;
#X connect 13 0 38 0;
#X connect 14 0 10 1;
#X connect 15 0 11 1;
#X connect 16 0 7 0;
#X connect 16 1 8 0;
#X connect 17 0 18 0;
#X connect 19 0 9 1;
#X connect 19 0 39 0;
#X connect 20 0 24 0;
#X connect 21 0 22 0;
#X connect 21 0 27 0;
#X connect 22 0 13 0;
#X connect 22 1 19 0;
#X connect 23 0 25 1;
#X connect 24 0 25 0;
#X connect 24 1 25 1;
#X connect 25 0 21 0;
#X connect 26 0 25 0;
#X connect 27 0 25 0;
#X connect 27 0 23 0;
#X connect 28 0 26 0;
#X connect 29 0 20 0;
#X connect 30 0 19 1;
#X connect 31 0 13 1;
#X connect 32 0 34 0;
#X connect 33 0 36 0;
#X connect 34 0 35 0;
#X connect 34 1 33 1;
#X connect 35 0 33 0;
#X connect 35 0 37 0;
#X connect 38 0 37 0;
#X connect 39 0 36 0;
#X connect 40 0 18 0;
#X connect 41 0 45 0;
#X connect 42 0 46 0;
#X connect 45 0 43 0;
#X connect 46 0 44 0;
#X restore 24 593 pd screen_scaling;
#X obj 24 563 rectangle;
#X obj 194 173 s beginning;
#X obj 194 73 bang;
#X obj 204 103 r reset_bang;
#X connect 0 0 6 0;
#X connect 1 0 26 0;
#X connect 2 0 26 0;
#X connect 3 0 2 0;
#X connect 3 0 13 0;
#X connect 3 0 31 0;
#X connect 4 0 7 0;
#X connect 5 0 7 0;
#X connect 8 0 15 0;
#X connect 10 0 26 1;
#X connect 12 0 3 0;
#X connect 13 0 1 0;
#X connect 15 0 5 0;
#X connect 15 1 16 0;
#X connect 16 0 14 0;
#X connect 17 0 0 0;
#X connect 17 0 19 0;
#X connect 18 0 0 0;
#X connect 18 0 19 0;
#X connect 19 0 11 0;
#X connect 23 0 4 0;
#X connect 23 0 20 0;
#X connect 23 1 22 0;
#X connect 23 2 21 0;
#X connect 24 0 29 2;
#X connect 25 0 29 1;
#X connect 26 0 27 0;
#X connect 26 1 23 0;
#X connect 26 2 9 0;
#X connect 27 0 29 0;
#X connect 28 0 6 0;
#X connect 31 0 30 0;
#X connect 32 0 30 0;
#X restore 494 441 pd video_display;
#N canvas 527 348 450 300 loop 0;
#X obj 128 10 r loop_snd;
#X obj 130 214 s playstop_rcv;
#X obj 144 151 spigot;
#X msg 123 100 0;
#X obj 17 38 r movie_end;
#X obj 131 43 select 1;
#X msg 164 100 0;
#X msg 204 100 1;
#X connect 0 0 5 0;
#X connect 2 0 1 0;
#X connect 3 0 2 0;
#X connect 4 0 3 0;
#X connect 5 0 6 0;
#X connect 5 1 7 0;
#X connect 6 0 2 1;
#X connect 7 0 2 1;
#X restore 557 561 pd loop;
#X obj 1 1 cnv 15 608 248 empty empty empty 18 40 0 12 -191407 -262144
0;
#X obj 5 5 cnv 15 600 240 empty empty empty 18 40 0 12 -13330 -262144
0;
#X obj 172 40 cnv 15 266 172 empty empty empty 18 40 0 12 -228856 -262144
0;
#X obj 176 55 cnv 15 104 50 empty empty empty 25 40 0 12 -162280 -262144
0;
#X obj 293 55 cnv 20 141 50 empty empty empty 22 40 0 12 -162280 -262144
0;
#X obj 180 59 cnv 15 25 28 empty elapsed_frames_54321 empty 11 14 0
20 -66577 -4034 0;
#X obj 206 59 cnv 15 16 28 empty elapsed_frames_4321 empty 2 14 0 20
-66577 -4034 0;
#X obj 223 59 cnv 15 16 28 empty elapsed_frames_321 empty 2 14 0 20
-66577 -4034 0;
#X obj 240 59 cnv 15 16 28 empty elapsed_frames_21 empty 2 14 0 20
-66577 -4034 0;
#X obj 257 59 cnv 15 19 28 empty elapsed_frames_1 empty 2 14 0 20 -66577
-4034 0;
#X obj 297 59 cnv 15 19 28 empty elapsed_time_m empty 5 14 0 20 -66577
-261234 0;
#X obj 317 59 cnv 15 12 28 empty empty : 0 14 0 20 -66577 -261234 0
;
#X obj 330 59 cnv 15 16 28 empty elapsed_time_sX empty 2 14 0 20 -66577
-261234 0;
#X obj 347 59 cnv 15 16 28 empty elapsed_time_Xs empty 2 14 0 20 -66577
-261234 0;
#X obj 364 59 cnv 15 12 28 empty empty : 0 14 0 20 -66577 -261234 0
;
#X obj 377 59 cnv 15 16 28 empty elapsed_time_msXX empty 2 14 0 20
-66577 -261234 0;
#X obj 394 59 cnv 15 16 28 empty elapsed_time_XmsX empty 2 14 0 20
-66577 -261234 0;
#X obj 411 59 cnv 15 19 28 empty elapsed_time_XXms empty 2 14 0 20
-66577 -261234 0;
#X obj 10 211 cnv 15 590 28 empty empty empty 18 40 0 12 -228856 -262144
0;
#X obj 16 215 hsl 579 20 1 7189 0 0 scroll_snd scroll_rcv <---scroll--->
240 10 0 12 -162280 -13381 -262144 0 1;
#X obj 449 54 cnv 15 24 144 empty empty empty 18 40 0 12 -228856 -262144
0;
#X obj 451 56 bng 20 250 50 0 1_frame_back_snd empty frame_backward
28 10 0 14 -261682 -1 -262144;
#X obj 451 86 bng 20 250 50 0 1_frame_forward_snd empty frame_forward
28 12 0 14 -261682 -13381 -262144;
#X obj 451 146 tgl 20 0 playstop_snd playstop_rcv play/stop 28 9 0
14 -4034 -13381 -262144 0 1;
#X obj 451 116 bng 20 250 50 0 beginning empty beginning 28 9 0 14
-204800 -4160 -262144;
#X obj 178 88 cnv 15 58 14 empty empty elapsed 2 8 0 12 -162280 -262144
0;
#X obj 233 88 cnv 15 34 14 empty empty frames 2 8 0 12 -162280 -262144
0;
#X obj 318 88 cnv 15 58 14 empty empty elapsed 2 8 0 12 -162280 -262144
0;
#X obj 374 88 cnv 15 34 14 empty empty time 2 8 0 12 -162280 -262144
0;
#X obj 176 115 cnv 15 104 50 empty empty empty 25 40 0 12 -162280 -262144
0;
#X obj 180 119 cnv 15 25 28 empty total_frames_54321 empty 11 14 0
20 -66577 -4032 0;
#X obj 206 119 cnv 15 16 28 empty total_frames_4321 empty 2 14 0 20
-66577 -4032 0;
#X obj 223 119 cnv 15 16 28 empty total_frames_321 empty 2 14 0 20
-66577 -4032 0;
#X obj 240 119 cnv 15 16 28 empty total_frames_21 empty 2 14 0 20 -66577
-4032 0;
#X obj 257 119 cnv 15 19 28 empty total_frames_1 empty 2 14 0 20 -66577
-4032 0;
#X obj 185 148 cnv 15 58 14 empty empty total 2 8 0 12 -162280 -262144
0;
#X obj 226 148 cnv 15 34 14 empty empty frames 2 8 0 12 -162280 -262144
0;
#X obj 293 115 cnv 20 141 50 empty empty empty 22 40 0 12 -162280 -262144
0;
#X obj 297 119 cnv 15 19 28 empty total_time_m empty 5 14 0 20 -66577
-260097 0;
#X obj 317 119 cnv 15 12 28 empty empty : 0 14 0 20 -66577 -260097
0;
#X obj 330 119 cnv 15 16 28 empty total_time_sX empty 2 14 0 20 -66577
-260097 0;
#X obj 347 119 cnv 15 16 28 empty total_time_Xs empty 2 14 0 20 -66577
-260097 0;
#X obj 364 119 cnv 15 12 28 empty empty : 0 14 0 20 -66577 -260097
0;
#X obj 377 119 cnv 15 16 28 empty total_time_msXX empty 2 14 0 20 -66577
-260097 0;
#X obj 394 119 cnv 15 16 28 empty total_time_XmsX empty 2 14 0 20 -66577
-260097 0;
#X obj 411 119 cnv 15 19 28 empty total_time_XXms empty 2 14 0 20 -66577
-260097 0;
#X obj 326 148 cnv 15 58 14 empty empty total 2 8 0 12 -162280 -262144
0;
#X obj 366 148 cnv 15 34 14 empty empty time 2 8 0 12 -162280 -262144
0;
#X obj 176 176 cnv 15 258 28 empty empty empty 25 40 0 12 -162280 -262144
0;
#X obj 183 180 hsl 245 20 -3 3 0 0 speedplay_snd speedplay_rcv -3x..-2x..-1x...0...+1x..+2x..+3x
6 10 0 12 -204800 -1 -1 12200 1;
#X obj 10 12 cnv 15 590 28 empty empty empty 18 40 0 12 -228856 -262144
0;
#X obj 320 16 cnv 15 70 20 empty empty Player 20 9 0 16 -228856 -13330
0;
#X obj 137 174 cnv 15 24 24 empty empty empty 18 40 0 12 -228856 -262144
0;
#X obj 139 176 bng 20 250 50 0 open_settings_window_snd no_rcv settings
-72 10 0 14 -162280 -204786 -262144;
#X obj 451 176 tgl 20 0 loop_snd no_rcv loop 28 9 0 14 -262130 -13381
-262144 0 1;
#X obj 519 71 cnv 8 8 4 empty empty empty 18 40 0 12 -66577 -262144
0;
#X obj 519 103 cnv 8 8 4 empty empty empty 18 40 0 12 -66577 -262144
0;
#X obj 260 16 cnv 15 70 20 empty empty Video 20 9 0 16 -228856 -13330
0;
#X obj 210 16 cnv 15 70 20 empty empty Only 20 9 0 16 -228856 -13330
0;
#X obj 524 16 cnv 15 70 20 empty empty v0.1 20 9 0 16 -228856 -13330
0;
#X coords 0 -1 1 1 610 250 1 0 0;
#X restore 7 -576 pd control_panel;
#X coords 0 269 1 268 610 250 0;
