#N canvas 3 23 353 621 12;
#X declare -lib mrpeach;
#N canvas 21 55 590 631 engines 0;
#X obj 348 0 cnv 15 220 600 empty empty empty 20 12 0 14 -229361 -66577
0;
#X obj 1 1 cnv 10 340 600 empty empty empty 12 26 0 20 -1 -13381 0
;
#X obj 3 3 cnv 25 336 596 empty empty Record_Wii_Myo_and_Audio 38 20
0 18 -233280 -1 0;
#X obj 266 91 entry 30 20 white black;
#X obj 226 91 entry 20 20 white black;
#X obj 276 202 entry 20 20 white black;
#X obj 3 188 cnv 2 336 2 empty empty empty 20 12 0 14 -191407 -66577
0;
#X obj 275 253 bng 21 250 50 0 \$0-setready \$0-nono empty 17 7 0 10
-257985 -1 -1;
#X obj 186 91 entry 20 20 white black;
#X text 183 112 day;
#X text 217 112 month;
#X text 266 112 year;
#X obj 359 323 s \$0-partic;
#X text 34 93 1) enter the date;
#N canvas 510 402 352 75 day_month_year_hub 0;
#X obj -230 -14 s \$0-day;
#X obj -161 -14 s \$0-month;
#X obj -80 -14 s \$0-year;
#X obj -80 -44 inlet year;
#X obj -161 -44 inlet month;
#X obj -230 -44 inlet day;
#X connect 3 0 2 0;
#X connect 4 0 1 0;
#X connect 5 0 0 0;
#X restore 359 202 pd day_month_year_hub;
#N canvas 645 181 294 201 set_partic 0;
#X obj 189 104 symbol;
#X msg 84 74 normal;
#X msg 189 74 disabled;
#X msg 189 134 option state \$1;
#X obj 15 14 r \$0-clrp;
#X msg 15 114 clear;
#X obj 15 164 outlet to participant number input;
#X obj 84 14 r loadbang;
#X obj 15 44 t b b;
#X obj 94 44 r \$0-setready;
#X obj 189 14 r \$0-setnormal;
#X connect 0 0 3 0;
#X connect 1 0 0 0;
#X connect 2 0 0 0;
#X connect 3 0 6 0;
#X connect 4 0 8 0;
#X connect 5 0 6 0;
#X connect 7 0 1 0;
#X connect 7 0 5 0;
#X connect 8 0 5 0;
#X connect 8 1 1 0;
#X connect 9 0 1 0;
#X connect 10 0 2 0;
#X restore 359 293 pd set_partic;
#N canvas 523 251 374 254 set_date 0;
#X obj 34 50 symbol;
#X msg -85 20 normal;
#X msg 34 20 disabled;
#X msg 34 80 option state \$1;
#X msg -95 60 clear;
#X obj -95 110 outlet day month year;
#X obj 34 -10 r \$0-setready;
#X obj -95 -10 inlet loadbang;
#X connect 0 0 3 0;
#X connect 1 0 0 0;
#X connect 2 0 0 0;
#X connect 3 0 5 0;
#X connect 4 0 5 0;
#X connect 6 0 2 0;
#X connect 7 0 1 0;
#X connect 7 0 4 0;
#X restore 359 63 pd set_date;
#X text 350 -4 -------------------------;
#X obj 275 153 bng 21 250 50 0 \$0-opentestw \$0-nono empty 17 7 0
10 -2752 -1 -1;
#X text 34 153 2) click to set \, adjust and test;
#X obj 3 551 cnv 2 336 2 empty empty empty 20 12 0 14 -191407 -66577
0;
#X obj 3 549 cnv 2 336 2 empty empty empty 20 12 0 14 -1 -66577 0;
#N canvas 650 22 228 326 startup 0;
#X obj 94 -25 s loadbang;
#X msg 94 105 0;
#X obj 94 175 outlet loadbang;
#X obj 94 15 import mrpeach;
#X msg 94 55 \; pd dsp 1;
#X obj 4 -95 loadbang;
#X obj 94 135 s \$0-icounter;
#N canvas 647 22 768 794 defaults_1 0;
#X obj 79 125 cnv 15 280 598 empty empty empty 88 12 0 12 -233280 -86853
0;
#X obj 88 136 cnv 15 262 329 empty empty empty 43 12 0 10 -1 -13381
0;
#X obj 89 137 cnv 15 260 327 empty empty empty 60 12 0 10 -249661 -13381
0;
#X obj 99 169 cnv 15 74 50 empty empty empty 43 12 0 10 -191407 -1
0;
#X obj 182 169 cnv 15 74 50 empty empty empty 43 12 0 10 -262144 -13381
0;
#X obj 265 169 cnv 15 74 50 empty empty empty 43 12 0 10 -191407 -13381
0;
#X obj 265 147 cnv 15 74 20 empty empty Audio 11 10 0 12 -191407 -1
0;
#X obj 311 147 cnv 15 20 20 empty empty In 4 10 0 12 -191407 -1 0;
#X obj 182 147 cnv 15 74 20 empty empty Myo 26 10 0 12 -262144 -228856
0;
#X obj 99 195 cnv 15 74 20 empty empty on/off 15 10 0 12 -191407 -1
0;
#X obj 127 180 tgl 15 0 \$0-onoff_wii_rcv empty empty 17 7 0 10 -262144
-1 -1 0 1;
#X obj 265 194 cnv 15 74 20 empty empty on/off 15 10 0 12 -191407 -1
0;
#X obj 293 179 tgl 15 0 \$0-onoff_audioin_rcv empty empty 17 7 0 10
-262144 -1 -1 0 1;
#X obj 182 194 cnv 15 74 20 empty empty on/off 15 10 0 12 -262144 -228856
0;
#X obj 210 179 tgl 15 0 \$0-onoff_myo_rcv empty empty 17 7 0 10 -262144
-1 -1 0 1;
#X obj 99 221 cnv 15 74 50 empty empty empty 43 12 0 10 -191407 -1
0;
#X obj 99 249 cnv 15 74 20 empty empty port 23 10 0 12 -191407 -1 0
;
#X floatatom 118 231 5 0 0 0 - - #0-oscport_wii_rcv;
#X obj 182 221 cnv 15 74 50 empty empty empty 43 12 0 10 -262144 -13381
0;
#X floatatom 201 231 5 0 0 0 - - #0-oscport_myo_rcv;
#X obj 182 249 cnv 15 74 20 empty empty port 23 10 0 12 -262144 -228856
0;
#X obj 99 273 cnv 15 74 172 empty empty empty 43 12 0 10 -191407 -1
0;
#X obj 182 273 cnv 15 74 172 empty empty empty 43 12 0 10 -262144 -1
0;
#X obj 186 293 tgl 15 1 \$0-tglmyo_accel_rcv empty accel 19 7 0 12
-262144 -1 -228856 0 1;
#X obj 186 313 tgl 15 1 \$0-tglmyo_emg_rcv empty EMG 19 7 0 12 -262144
-1 -228856 0 1;
#X obj 186 332 tgl 15 1 \$0-tglmyo_gyro_rcv empty gyro 19 7 0 12 -262144
-1 -228856 0 1;
#X obj 186 352 tgl 15 1 \$0-tglmyo_orient_rcv empty orient 19 7 0 12
-262144 -1 -228856 0 1;
#X obj 186 373 tgl 15 1 \$0-tglmyo_pose_rcv empty pose 19 7 0 12 -262144
-1 -228856 0 1;
#X obj 112 403 tgl 15 1 \$0-print_wii_rcv empty print 20 7 0 12 -262144
-1 -1 0 1;
#X obj 192 403 tgl 15 1 \$0-print_myo_rcv empty print 20 7 0 12 -262144
-1 -228856 0 1;
#X obj 380 435 cnv 15 220 288 empty empty empty 88 12 0 12 -233280
-86853 0;
#X text 384 442 Real-time Qualisys Tracker;
#X floatatom 386 544 5 0 0 0 - - #0-QS_commport_rcv;
#X symbolatom 386 584 16 0 0 0 - - #0-QS_ip_rcv;
#X text 384 462 Recording Start/Stop Settings;
#X symbolatom 386 673 29 0 0 0 - - #0-QS_cmd_res_disp_rcv;
#X obj 386 698 bng 15 250 50 0 \$0-QS_getversion_snd \$0-QS_getversion_rcv
empty 17 7 0 10 -228856 -1 -1;
#X floatatom 386 504 5 0 0 0 - - #0-syncport_2_rcv;
#X text 428 504 local receiving port;
#X text 428 544 send to Qualisys port;
#X text 508 584 Qualisys IP;
#X obj 123 756 s \$0-prg_path;
#X msg 621 341 1;
#X obj 99 147 cnv 15 74 20 empty empty Wiimote 11 10 0 12 -191407 -1
0;
#X msg 621 81 0;
#X msg 16 276 0;
#X msg 621 241 0;
#X msg 16 206 5600;
#X msg 621 503 22225;
#X msg 621 463 7000;
#X obj 16 686 bang;
#X msg 16 166 7777;
#X obj 112 421 tgl 15 1 \$0-plot_wii_rcv empty plot 20 7 0 12 -262144
-1 -1 0 1;
#X obj 192 421 tgl 15 1 \$0-plot_myo_rcv empty plot 20 7 0 12 -262144
-1 -228856 0 1;
#X msg 16 536 0;
#X obj 102 293 tgl 15 1 \$0-tglwii_accel_rcv empty accel 19 7 0 12
-262144 -1 -1 0 1;
#X obj 102 313 tgl 15 1 \$0-tglwii_orient_rcv empty orient 19 7 0 12
-262144 -1 -1 0 1;
#X obj 102 332 tgl 15 1 \$0-tglwii_btns_rcv empty buttons 19 7 0 12
-262144 -1 -1 0 1;
#X msg 621 543 symbol 192.168.1.1;
#X msg 123 726 symbol <---click_to_set_path;
#X obj 265 221 cnv 15 74 50 empty empty empty 43 12 0 10 -191407 -1
0;
#X obj 265 273 cnv 15 74 172 empty empty empty 43 12 0 10 -191407 -1
0;
#X obj 319 318 vu 8 80 empty empty -1 -8 0 10 -1 -1 0 0;
#X obj 286 318 vsl 10 79 0 1 0 0 \$0-infader_1_rcv empty empty 0 -9
0 10 -1 -228856 -1 0 1;
#X obj 293 409 tgl 15 0 \$0-tgltestin_rcv empty empty 17 7 0 10 -262144
-1 -1 1 1;
#X text 291 425 VU;
#X obj 278 297 tgl 15 0 \$0-sel_audioin_1_rcv empty empty 3 -6 0 10
-262144 -1 -1 0 1;
#X obj 265 250 cnv 15 74 20 empty empty inputs 14 10 0 12 -191407 -1
0;
#X obj 310 297 tgl 15 0 \$0-sel_audioin_2_rcv empty empty 3 -6 0 10
-262144 -1 -1 0 1;
#X obj 307 318 vsl 10 79 0 1 0 0 \$0-infader_2_rcv empty empty 0 -9
0 10 -1 -228856 -1 0 1;
#X obj 265 274 cnv 15 74 20 empty empty channels 8 10 0 12 -191407
-1 0;
#X floatatom 275 229 3 0 8 0 - - #0-audioin_1_ch_rcv;
#X floatatom 306 229 3 0 8 0 - - #0-audioin_2_ch_rcv;
#X msg 621 121 3;
#X obj 88 530 cnv 10 262 161 empty empty empty 46 12 0 10 -1 -13381
0;
#X obj 88 692 cnv 10 262 20 empty empty empty 108 12 0 10 -1 -13381
0;
#X obj 89 531 cnv 20 260 159 empty empty empty 46 12 0 10 -249661 -13381
0;
#X obj 250 661 bng 19 250 50 0 empty empty empty 20 7 0 10 -1 -4034
-1;
#X text 118 601 keyboard spacebar;
#X obj 88 456 cnv 10 262 74 empty empty empty 46 12 0 10 -1 -13381
0;
#X obj 89 457 cnv 20 260 72 empty empty empty 46 12 0 10 -249661 -13381
0;
#X obj 250 583 vradio 19 1 1 4 \$0-rectrig_sel_start_snd \$0-rectrig_sel_start_rcv
empty 0 -8 0 10 -204786 -1 -1 0;
#X obj 186 485 hradio 22 1 1 3 \$0-rt_rate_rcv empty empty 0 -8 0 20
-262130 -1 -1 2;
#X text 209 505 10;
#X text 192 505 4;
#X text 110 462 Wii AND Myo RECORDING RATE (Hz);
#X text 229 505 100;
#X text 153 643 Qualisys QTM;
#X text 209 581 none;
#X obj 288 583 vradio 19 1 1 4 \$0-rectrig_sel_stop_rcv empty empty
0 -8 0 10 -261234 -1 -1 0;
#X obj 89 692 bng 19 250 50 0 \$0-openpanel_load_prg \$0-nono empty
17 7 0 10 -4032 -1 -1;
#X symbolatom 109 692 34 0 0 0 - #0-prg_path #0-nosend;
#X text 210 663 test;
#X obj 288 661 bng 19 250 50 0 empty empty empty 20 7 0 10 -1 -258113
-1;
#X text 157 536 EXTERNAL TRIGGERS;
#X text 125 622 Wiimote A button;
#X text 240 564 START STOP;
#X msg 16 456 2;
#X text 404 696 check QTM connection;
#X obj 388 624 cnv 15 28 28 empty empty empty 20 12 0 14 -191407 -66577
0;
#X obj 390 626 cnv 18 24 24 empty empty . -17 -19 0 100 -1 -1 0;
#X text 420 635 Black/Red: Not connected;
#X text 420 621 Green: Connected;
#X msg 621 633 symbol;
#X obj 276 318 vu 8 80 empty empty -1 -8 0 10 -1 -1 0 0;
#X msg 621 151 5;
#X obj 16 6 inlet;
#X obj 16 36 bng 15 250 50 0 empty empty reset 17 7 0 10 -262144 -1
-1;
#X connect 42 0 49 0;
#X connect 42 0 64 0;
#X connect 44 0 10 0;
#X connect 44 0 14 0;
#X connect 44 0 12 0;
#X connect 44 0 73 0;
#X connect 45 0 28 0;
#X connect 45 0 97 0;
#X connect 45 0 52 0;
#X connect 45 0 55 0;
#X connect 45 0 56 0;
#X connect 45 0 57 0;
#X connect 46 0 23 0;
#X connect 46 0 24 0;
#X connect 46 0 25 0;
#X connect 46 0 26 0;
#X connect 46 0 27 0;
#X connect 46 0 29 0;
#X connect 46 0 42 0;
#X connect 46 0 53 0;
#X connect 46 0 66 0;
#X connect 46 0 68 0;
#X connect 46 0 63 0;
#X connect 46 0 69 0;
#X connect 47 0 17 0;
#X connect 47 0 45 0;
#X connect 48 0 32 0;
#X connect 48 0 58 0;
#X connect 49 0 37 0;
#X connect 49 0 48 0;
#X connect 50 0 59 0;
#X connect 51 0 19 0;
#X connect 51 0 47 0;
#X connect 54 0 50 0;
#X connect 54 0 81 0;
#X connect 54 0 89 0;
#X connect 58 0 33 0;
#X connect 58 0 103 0;
#X connect 59 0 41 0;
#X connect 73 0 105 0;
#X connect 73 0 71 0;
#X connect 97 0 54 0;
#X connect 97 0 82 0;
#X connect 103 0 35 0;
#X connect 105 0 46 0;
#X connect 105 0 72 0;
#X connect 106 0 107 0;
#X connect 107 0 51 0;
#X connect 107 0 44 0;
#X restore 94 -65 pd defaults_1;
#X connect 1 0 6 0;
#X connect 5 0 4 0;
#X connect 5 0 0 0;
#X connect 5 0 3 0;
#X connect 5 0 1 0;
#X connect 5 0 2 0;
#X connect 5 0 7 0;
#X restore 359 33 pd startup W+A;
#X obj 275 443 bng 21 250 50 0 \$0-stop_rec_gui \$0-noreceive empty
17 7 0 10 -258113 -1 -1;
#X obj 275 513 bng 21 250 50 0 \$0-clrp \$0-restartfrom3 empty 17 7
0 10 -159808 -1 -1;
#X text 34 513 7) click to restart from (3);
#X text 34 443 6) click to stop and save data;
#X text 68 573 Juan Ignacio Mendoza - 2016;
#N canvas 361 23 289 622 \$0-set-adjust-test 0;
#N canvas 950 23 299 733 adjust_and_test_SUBa 0;
#X obj 11 11 cnv 15 280 598 empty empty empty 88 12 0 12 -233280 -86853
0;
#X obj 10 648 f \$0;
#X obj 10 618 r \$0-opentestw;
#X obj 20 415 cnv 10 262 161 empty empty empty 46 12 0 10 -1 -13381
0;
#X obj 20 577 cnv 10 262 20 empty empty empty 108 12 0 10 -1 -13381
0;
#X obj 21 416 cnv 20 260 159 empty empty empty 46 12 0 10 -249661 -13381
0;
#X obj 182 546 bng 19 250 50 0 empty \$0-rectrig_start_test empty 20
7 0 10 -1 -4034 -1;
#X text 50 486 keyboard spacebar;
#X obj 20 341 cnv 10 262 74 empty empty empty 46 12 0 10 -1 -13381
0;
#X obj 21 342 cnv 20 260 72 empty empty empty 46 12 0 10 -249661 -13381
0;
#X obj 182 468 vradio 19 1 0 4 \$0-rectrig_sel_start_snd \$0-rectrig_sel_start_rcv
empty 0 -8 0 10 -204786 -1 -1 3;
#X msg 10 683 \; pd-\$1-set-adjust-test vis 1;
#X obj 118 370 hradio 22 1 1 3 \$0-rt_rate \$0-rt_rate_rcv empty 0
-8 0 20 -262130 -1 -1 2;
#X text 141 390 10;
#X text 124 390 4;
#X text 42 347 Wii AND Myo RECORDING RATE (Hz);
#X text 161 390 100;
#X text 85 528 Qualisys QTM;
#X text 141 466 none;
#X obj 220 468 vradio 19 1 0 4 \$0-rectrig_sel_stop_snd \$0-rectrig_sel_stop_rcv
empty 0 -8 0 10 -261234 -1 -1 3;
#X obj 20 20 cnv 15 262 321 empty empty empty 43 12 0 10 -1 -13381
0;
#X obj 21 21 cnv 15 260 319 empty empty empty 43 12 0 10 -249661 -13381
0;
#X obj 114 53 cnv 15 74 50 empty empty empty 43 12 0 10 -99865 -13381
0;
#X obj 199 53 cnv 15 74 50 empty empty empty 43 12 0 10 -191407 -13381
0;
#X obj 199 31 cnv 15 74 20 empty empty Audio 11 10 0 12 -191407 -1
0;
#X obj 245 31 cnv 15 20 20 empty empty In 4 10 0 12 -191407 -1 0;
#X obj 114 31 cnv 15 74 20 empty empty Myo 26 10 0 12 -99865 -228856
0;
#X obj 199 78 cnv 15 74 20 empty empty on/off 15 10 0 12 -191407 -1
0;
#X obj 227 63 tgl 15 0 \$0-onoff_audioin \$0-onoff_audioin_rcv empty
17 7 0 10 -262144 -1 -1 0 1;
#X obj 114 78 cnv 15 74 20 empty empty on/off 15 10 0 12 -99865 -228856
0;
#X obj 142 63 tgl 15 0 \$0-onoff_myo \$0-onoff_myo_rcv empty 17 7 0
10 -262144 -1 -1 0 1;
#X obj 114 105 cnv 15 74 50 empty empty empty 43 12 0 10 -99865 -13381
0;
#X floatatom 133 115 5 0 0 0 - #0-oscport_myo_rcv #0-oscport_myo_snd
;
#X obj 114 133 cnv 15 74 20 empty empty port 23 10 0 12 -99865 -228856
0;
#X obj 199 105 cnv 15 74 50 empty empty empty 43 12 0 10 -191407 -1
0;
#X obj 114 157 cnv 15 74 172 empty empty empty 43 12 0 10 -99865 -1
0;
#X obj 118 182 tgl 15 1 \$0-tglmyo_accel \$0-tglmyo_accel_rcv accel
19 7 0 12 -262144 -1 -228856 0 1;
#X obj 118 202 tgl 15 1 \$0-tglmyo_emg \$0-tglmyo_emg_rcv EMG 19 7
0 12 -262144 -1 -228856 0 1;
#X obj 118 221 tgl 15 1 \$0-tglmyo_gyro \$0-tglmyo_gyro_rcv gyro 19
7 0 12 -262144 -1 -228856 0 1;
#X obj 118 241 tgl 15 1 \$0-tglmyo_orient \$0-tglmyo_orient_rcv orient
19 7 0 12 -262144 -1 -228856 0 1;
#X obj 118 262 tgl 15 1 \$0-tglmyo_pose \$0-tglmyo_pose_rcv pose 19
7 0 12 -262144 -1 -228856 0 1;
#X obj 199 157 cnv 15 74 172 empty empty empty 43 12 0 10 -191407 -1
0;
#X obj 209 202 vu 9 80 \$0-vul empty -1 -8 0 10 -1 -1 0 0;
#X obj 253 202 vu 9 80 \$0-vur empty -1 -8 0 10 -1 -1 0 0;
#X obj 220 202 vsl 10 79 0 1 0 0 \$0-infader_1 \$0-infader_1_rcv empty
0 -9 0 10 -1 -228856 -1 0 1;
#X obj 227 293 tgl 15 0 \$0-tgltestin \$0-tgltestin_rcv empty 17 7
0 10 -262144 -1 -1 1 1;
#X text 225 309 VU;
#X obj 128 287 tgl 15 1 \$0-print_myo \$0-print_myo_rcv print 20 7
0 12 -262144 -1 -228856 0 1;
#X obj 212 181 tgl 15 0 \$0-sel_audioin_1 \$0-sel_audioin_1_rcv empty
3 -6 0 10 -262144 -1 -1 0 1;
#X obj 199 134 cnv 15 74 20 empty empty inputs 14 10 0 12 -191407 -1
0;
#X obj 244 181 tgl 15 0 \$0-sel_audioin_2 \$0-sel_audioin_2_rcv empty
3 -6 0 10 -262144 -1 -1 0 1;
#X obj 241 202 vsl 10 79 0 1 0 0 \$0-infader_2 \$0-infader_2_rcv empty
0 -9 0 10 -1 -228856 -1 0 1;
#X obj 128 307 tgl 15 1 \$0-plot_myo \$0-plot_myo_rcv plot 20 7 0 12
-262144 -1 -228856 0 1;
#X obj 199 158 cnv 15 74 20 empty empty channels 8 10 0 12 -191407
-1 0;
#X floatatom 209 113 3 0 8 0 - #0-audioin_1_ch_rcv #0-audioin_1_ch_snd
;
#X floatatom 240 113 3 0 8 0 - #0-audioin_2_ch_rcv #0-audioin_2_ch_snd
;
#X obj 29 53 cnv 15 74 50 empty empty empty 43 12 0 10 -191407 -1 0
;
#X obj 29 31 cnv 15 74 20 empty empty Wiimote 11 10 0 12 -191407 -1
0;
#X obj 29 80 cnv 15 74 20 empty empty on/off 15 10 0 12 -191407 -1
0;
#X obj 57 65 tgl 15 0 \$0-onoff_wii \$0-onoff_wii_rcv empty 17 7 0
10 -262144 -1 -1 0 1;
#X obj 29 105 cnv 15 74 50 empty empty empty 43 12 0 10 -191407 -1
0;
#X obj 29 133 cnv 15 74 20 empty empty port 23 10 0 12 -191407 -1 0
;
#X floatatom 48 115 5 0 0 0 - #0-oscport_wii_rcv #0-oscport_wii_snd
;
#X obj 29 157 cnv 15 74 172 empty empty empty 43 12 0 10 -191407 -1
0;
#X obj 32 182 tgl 15 1 \$0-tglwii_accel \$0-tglwii_accel_rcv accel
19 7 0 12 -262144 -1 -1 0 1;
#X obj 32 202 tgl 15 1 \$0-tglwii_orient \$0-tglwii_orient_rcv orient
19 7 0 12 -262144 -1 -1 0 1;
#X obj 42 287 tgl 15 1 \$0-print_wii \$0-print_wii_rcv print 20 7 0
12 -262144 -1 -1 0 1;
#X obj 42 307 tgl 15 1 \$0-plot_wii \$0-plot_wii_rcv plot 20 7 0 12
-262144 -1 -1 0 1;
#X obj 32 221 tgl 15 1 \$0-tglwii_btns \$0-tglwii_btns_rcv buttons
19 7 0 12 -262144 -1 -1 0 1;
#X obj 21 577 bng 19 250 50 0 \$0-openpanel_load_prg \$0-nono empty
17 7 0 10 -4032 -1 -1;
#X symbolatom 41 577 34 0 0 0 - #0-prg_path #0-nosend;
#X obj 220 546 bng 19 250 50 0 empty \$0-rectrig_stop_test empty 20
7 0 10 -1 -258113 -1;
#X text 89 421 EXTERNAL TRIGGERS;
#X text 57 507 Wiimote A button;
#X text 172 449 START STOP;
#X text 135 548 check;
#X connect 1 0 11 0;
#X connect 2 0 1 0;
#X coords 0 -1 1 1 282 600 1 10 10;
#X restore -187 -4 pd adjust_and_test_SUBa;
#X coords 0 0 1 1 452 226 0;
#X restore 359 233 pd \$0-set-adjust-test W_M_A;
#X obj 107 29 cnv 10 12 10 empty empty empty 38 20 0 22 -233280 -1
0;
#X obj 150 29 cnv 10 12 10 empty empty empty 38 20 0 22 -233280 -1
0;
#X obj 193 29 cnv 10 12 10 empty empty empty 38 20 0 22 -233280 -1
0;
#X obj 238 29 cnv 10 12 10 empty empty empty 38 20 0 22 -233280 -1
0;
#X text 148 15 \,;
#N canvas 407 733 154 78 record_triggers 0;
#N canvas 119 22 861 548 start_triggers 0;
#X obj -197 214 select 32;
#X text -129 213 space;
#X obj -197 -17 key;
#X obj -197 123 spigot;
#X obj 171 123 spigot;
#X obj 404 123 spigot;
#X obj 404 -17 r \$0-osc_sync_trig;
#X obj 496 123 s \$0-onoff_oscsync;
#X msg 443 73 1;
#X msg 496 73 0;
#X msg 210 73 1;
#X msg 263 73 0;
#X msg -158 73 1;
#X msg -105 73 0;
#X obj 404 273 select 1;
#X obj 171 243 tgl 15 0 empty empty empty 17 7 0 10 -262144 -1 -1 0
1;
#X obj 171 273 select 1;
#X obj 171 -17 r \$0-wii_osc;
#X obj 171 153 routeOSC /button;
#X obj 171 213 select /a;
#X obj 171 183 unpack s;
#X obj 31 -17 r \$0-start_rec_gui;
#X obj -158 44 select 1;
#X obj 210 44 select 2;
#X obj 443 43 select 3;
#X obj -158 13 r \$0-rectrig_sel_start_snd;
#X obj 210 13 r \$0-rectrig_sel_start_snd;
#X obj 443 13 r \$0-rectrig_sel_start_snd;
#X obj -149 493 s \$0-rectrig_start_test;
#X obj 31 353 bang;
#X obj 110 413 r \$0-tgl_ready;
#X obj 31 493 s \$0-rectrig_rcv;
#X obj 31 463 spigot;
#X msg 70 413 0;
#X connect 0 0 29 0;
#X connect 2 0 3 0;
#X connect 3 0 0 0;
#X connect 4 0 18 0;
#X connect 5 0 14 0;
#X connect 6 0 5 0;
#X connect 8 0 5 1;
#X connect 8 0 7 0;
#X connect 9 0 5 1;
#X connect 9 0 7 0;
#X connect 10 0 4 1;
#X connect 11 0 4 1;
#X connect 12 0 3 1;
#X connect 13 0 3 1;
#X connect 14 0 29 0;
#X connect 15 0 16 0;
#X connect 16 0 29 0;
#X connect 17 0 4 0;
#X connect 18 0 20 0;
#X connect 19 0 15 0;
#X connect 20 0 19 0;
#X connect 21 0 29 0;
#X connect 22 0 12 0;
#X connect 22 1 13 0;
#X connect 23 0 10 0;
#X connect 23 1 11 0;
#X connect 24 0 8 0;
#X connect 24 1 9 0;
#X connect 25 0 22 0;
#X connect 26 0 23 0;
#X connect 27 0 24 0;
#X connect 29 0 28 0;
#X connect 29 0 32 0;
#X connect 30 0 32 1;
#X connect 32 0 31 0;
#X connect 32 0 33 0;
#X connect 33 0 32 1;
#X restore -27 10 pd start_triggers;
#N canvas 938 301 843 547 stop_triggers 0;
#X obj -197 214 select 32;
#X text -129 213 space;
#X obj -197 -17 key;
#X obj -197 123 spigot;
#X obj 171 123 spigot;
#X obj 404 123 spigot;
#X obj 404 -17 r \$0-osc_sync_trig;
#X obj 496 123 s \$0-onoff_oscsync;
#X msg 443 73 1;
#X msg 496 73 0;
#X msg 210 73 1;
#X msg 263 73 0;
#X msg -158 73 1;
#X msg -105 73 0;
#X obj 31 463 spigot;
#X msg 70 413 0;
#X obj 171 243 tgl 15 0 empty empty empty 17 7 0 10 -262144 -1 -1 0
1;
#X obj 171 273 select 1;
#X obj 171 -17 r \$0-wii_osc;
#X obj 171 153 routeOSC /button;
#X obj 171 213 select /a;
#X obj 171 183 unpack s;
#X obj -158 44 select 1;
#X obj 210 44 select 2;
#X obj 443 43 select 3;
#X obj -158 13 r \$0-rectrig_sel_stop_snd;
#X obj 210 13 r \$0-rectrig_sel_stop_snd;
#X obj 443 13 r \$0-rectrig_sel_stop_snd;
#X obj 31 493 s \$0-stop_rec;
#X obj 31 353 bang;
#X obj 31 -17 r \$0-stop_rec_gui;
#X obj 404 273 select 0;
#X obj -139 493 s \$0-rectrig_stop_test;
#X msg 110 413 1;
#X obj 110 383 delay 500;
#X obj 110 353 r \$0-rectrig_rcv;
#X connect 0 0 29 0;
#X connect 2 0 3 0;
#X connect 3 0 0 0;
#X connect 4 0 19 0;
#X connect 5 0 31 0;
#X connect 6 0 5 0;
#X connect 8 0 5 1;
#X connect 8 0 7 0;
#X connect 9 0 5 1;
#X connect 9 0 7 0;
#X connect 10 0 4 1;
#X connect 11 0 4 1;
#X connect 12 0 3 1;
#X connect 13 0 3 1;
#X connect 14 0 15 0;
#X connect 14 0 28 0;
#X connect 15 0 14 1;
#X connect 16 0 17 0;
#X connect 17 0 29 0;
#X connect 18 0 4 0;
#X connect 19 0 21 0;
#X connect 20 0 16 0;
#X connect 21 0 20 0;
#X connect 22 0 12 0;
#X connect 22 1 13 0;
#X connect 23 0 10 0;
#X connect 23 1 11 0;
#X connect 24 0 8 0;
#X connect 24 1 9 0;
#X connect 25 0 22 0;
#X connect 26 0 23 0;
#X connect 27 0 24 0;
#X connect 29 0 14 0;
#X connect 29 0 32 0;
#X connect 30 0 29 0;
#X connect 31 0 29 0;
#X connect 33 0 14 1;
#X connect 34 0 33 0;
#X connect 35 0 34 0;
#X restore -27 40 pd stop_triggers;
#X restore 359 263 pd record_triggers W_M_A;
#X text 53 279 -------------------------;
#N canvas 657 368 222 273 VU_display_W+A 0;
#X obj -113 139 env~;
#X obj -50 139 env~;
#X obj -113 108 *~;
#X obj -95 8 r \$0-tgltestin;
#X obj -50 108 *~;
#X obj -32 68 r \$0-tgltestin;
#X obj -113 -22 r~ audioin_post_1;
#X obj -50 38 r~ audioin_post_2;
#X obj -113 169 - 100;
#X obj -50 169 - 100;
#X obj -113 199 s \$0-vul;
#X obj -50 199 s \$0-vur;
#X connect 0 0 8 0;
#X connect 1 0 9 0;
#X connect 2 0 0 0;
#X connect 3 0 2 1;
#X connect 4 0 1 0;
#X connect 5 0 4 1;
#X connect 6 0 2 0;
#X connect 7 0 4 0;
#X connect 8 0 10 0;
#X connect 9 0 11 0;
#X restore 360 353 pd VU_display_W+A;
#N canvas 796 22 516 518 make_file_name 0;
#X obj 167 334 s \$0-datafilename;
#X obj 214 -116 r \$0-make_file_name;
#X msg 258 4 set \$1;
#X obj 84 -26 r \$0-year;
#X obj -1 -26 r \$0-month;
#X obj -72 -26 r \$0-day;
#X obj 258 -26 r \$0-partic;
#X msg 84 4 set \$1;
#X msg -1 4 set \$1;
#X msg -72 4 set \$1;
#X msg 258 94 1;
#X obj 167 274 symbol;
#X msg 178 94 1;
#X msg 218 94 1;
#X msg 138 94 1;
#X obj 164 -56 delay 100;
#N canvas 235 588 383 259 add_path_n_filename 0;
#X obj 250 -28 inlet;
#X obj 229 162 outlet;
#X obj 7 -28 r \$0-prg_path;
#X msg 7 62 /Users/research/Desktop;
#X obj 229 102 pack s s;
#X obj 282 61 l2s;
#X obj 229 132 makesymbol %s/%s;
#X obj 250 2 t b a;
#X msg 7 12 set \$1;
#X connect 0 0 7 0;
#X connect 2 0 8 0;
#X connect 3 0 4 0;
#X connect 4 0 6 0;
#X connect 5 0 4 1;
#X connect 6 0 1 0;
#X connect 7 0 3 0;
#X connect 7 1 5 0;
#X connect 8 0 3 0;
#X restore 167 304 pd add_path_n_filename;
#X obj 258 -56 s \$0-datetrig;
#X obj 214 -86 bang;
#X obj 164 -26 t b b b b;
#X obj 167 214 pack f f f f f f;
#X msg 167 244 \$1_\$2_\$3_p\$4_t\$5_f\$6;
#N canvas 797 409 162 215 filecounter 0;
#X obj -28 45 cup;
#X obj -2 -15 t b b;
#X msg 30 15 1;
#X obj -28 -105 r \$0-filecounter;
#X obj -28 75 outlet;
#X obj 18 -45 loadbang;
#X obj -2 -75 r \$0-clrp;
#X connect 0 0 4 0;
#X connect 1 0 0 0;
#X connect 1 1 2 0;
#X connect 2 0 0 0;
#X connect 3 0 0 0;
#X connect 5 0 1 0;
#X connect 6 0 1 0;
#X restore 276 184 pd filecounter W_M_A;
#N canvas 1288 22 152 219 trialcounter 0;
#X obj -28 45 cup;
#X obj -2 -15 t b b;
#X obj -28 75 outlet;
#X obj 18 -45 loadbang;
#X obj -2 -75 r \$0-clrp;
#X obj -28 -105 r \$0-trialcounter;
#X msg 30 15 0;
#X connect 0 0 2 0;
#X connect 1 0 0 0;
#X connect 1 1 6 0;
#X connect 3 0 1 0;
#X connect 4 0 1 0;
#X connect 5 0 0 0;
#X connect 6 0 0 0;
#X restore 254 154 pd trialcounter W_M_A;
#X text 75 359 d_m_y_participantnumber_trialnumber_filenumber;
#X connect 1 0 18 0;
#X connect 2 0 10 0;
#X connect 3 0 7 0;
#X connect 4 0 8 0;
#X connect 5 0 9 0;
#X connect 6 0 2 0;
#X connect 7 0 13 0;
#X connect 8 0 12 0;
#X connect 9 0 14 0;
#X connect 10 0 20 3;
#X connect 11 0 16 0;
#X connect 12 0 20 1;
#X connect 13 0 20 2;
#X connect 14 0 20 0;
#X connect 15 0 19 0;
#X connect 16 0 0 0;
#X connect 18 0 15 0;
#X connect 18 0 17 0;
#X connect 19 0 14 0;
#X connect 19 1 12 0;
#X connect 19 2 13 0;
#X connect 19 3 10 0;
#X connect 20 0 21 0;
#X connect 21 0 11 0;
#X connect 22 0 20 5;
#X connect 23 0 20 4;
#X restore 360 507 pd make_file_name W_M_A;
#X text 351 6 USER INTERFACE;
#N canvas 811 106 349 410 a_datacap_rec 0;
#X obj -86 -49 r \$0-recdone;
#X obj -56 151 s \$0-rec_disp;
#X obj -126 21 select 1;
#X msg -126 101 color 22 16 \, label .;
#X obj -126 -219 r \$0-rectrig_rcv;
#X obj -106 -79 s \$0-stop_alternator;
#X msg -126 -19 1;
#X msg -86 -19 0;
#N canvas 1070 22 370 370 start/stop_recording 0;
#X obj 98 328 s \$0-tglrtdatacap;
#X obj 47 218 r \$0-recsync;
#X msg 1 278 1;
#X obj 47 188 s \$0-startaudiorec;
#X obj 1 88 moses 8;
#X obj 1 -4 inlet start;
#X obj 226 -4 inlet stop;
#X msg 187 278 0;
#X obj 226 188 s \$0-stopaudiorec;
#X obj 187 158 gate 2;
#X msg 137 128 1;
#X msg 187 128 2;
#X obj 226 218 r \$0-recdone;
#X obj 1 58 f;
#N canvas 1065 22 370 251 what_source 0;
#X obj 231 16 r \$0-onoff_audioin;
#X obj 121 16 r \$0-onoff_myo;
#X obj 11 16 r \$0-onoff_wii;
#X obj 11 46 select 1;
#X obj 121 46 select 1;
#X obj 231 46 select 1;
#X obj 88 186 expr $f2 + $f3 + $f4;
#X msg 64 76 0;
#X msg 174 76 0;
#X obj 11 106 t b f;
#X obj 121 106 t b f;
#X obj 231 106 t b f;
#X msg 11 76 3;
#X msg 121 76 4;
#X msg 231 76 9;
#X obj 88 216 outlet;
#X msg 284 76 0;
#X connect 0 0 5 0;
#X connect 1 0 4 0;
#X connect 2 0 3 0;
#X connect 3 0 12 0;
#X connect 3 1 7 0;
#X connect 4 0 13 0;
#X connect 4 1 8 0;
#X connect 5 0 14 0;
#X connect 5 1 16 0;
#X connect 6 0 15 0;
#X connect 7 0 9 0;
#X connect 8 0 10 0;
#X connect 9 0 6 0;
#X connect 9 1 6 1;
#X connect 10 0 6 0;
#X connect 10 1 6 2;
#X connect 11 0 6 0;
#X connect 11 1 6 3;
#X connect 12 0 9 0;
#X connect 13 0 10 0;
#X connect 14 0 11 0;
#X connect 16 0 11 0;
#X restore 19 28 pd what_source;
#X connect 1 0 2 0;
#X connect 2 0 0 0;
#X connect 4 0 2 0;
#X connect 4 0 10 0;
#X connect 4 1 3 0;
#X connect 4 1 11 0;
#X connect 5 0 13 0;
#X connect 6 0 9 1;
#X connect 7 0 0 0;
#X connect 9 0 7 0;
#X connect 9 1 8 0;
#X connect 10 0 9 0;
#X connect 11 0 9 0;
#X connect 12 0 7 0;
#X connect 13 0 4 0;
#X connect 14 0 13 1;
#X restore -86 -119 pd start/stop_recording;
#X obj 72 -219 r \$0-stop_rec;
#X obj -126 61 pipe 260;
#X msg 44 101 color 22 22 \, label .;
#X obj 44 61 loadbang;
#X obj -66 -149 s \$0-trialcounter;
#X obj -126 -189 t b b b b;
#X connect 0 0 7 0;
#X connect 2 0 10 0;
#X connect 2 1 11 0;
#X connect 3 0 1 0;
#X connect 4 0 14 0;
#X connect 6 0 2 0;
#X connect 7 0 2 0;
#X connect 9 0 5 0;
#X connect 9 0 8 1;
#X connect 10 0 3 0;
#X connect 11 0 1 0;
#X connect 12 0 11 0;
#X connect 14 0 6 0;
#X connect 14 1 5 0;
#X connect 14 2 8 0;
#X connect 14 3 13 0;
#X restore 360 417 pd a_datacap_rec W_M_A;
#N canvas 544 22 206 286 setready 0;
#X obj -82 148 s \$0-restartfrom3;
#X obj -82 88 key;
#X obj -82 118 route 27;
#N canvas 1119 236 198 148 path 0;
#X obj 8 7 r \$0-openpanel_load_prg;
#X obj 8 67 splitfilename;
#X obj 8 98 s \$0-prg_path;
#X obj 8 37 savepanel;
#X connect 0 0 3 0;
#X connect 1 0 2 0;
#X connect 3 0 1 0;
#X restore -82 58 pd path W_M_A;
#X text -19 118 esc;
#X obj -82 -94 r \$0-setready;
#X obj -59 -1 s \$0-trig_headers;
#X obj -36 -33 s \$0-clear_buffer;
#X obj -82 -64 t b b b;
#N canvas 190 23 522 860 check_system_ready 0;
#X obj 0 18 r \$0-year;
#X obj 0 -12 r \$0-month;
#X obj -68 -12 r \$0-day;
#X obj 77 18 r \$0-partic;
#X obj -68 67 route bang;
#X obj 49 789 s \$0-rec_disp;
#N canvas 446 362 355 312 alternator 0;
#X obj 149 55 tgl 15 0 empty empty empty 17 7 0 10 -262144 -1 -1 0
1;
#X obj 149 196 outlet;
#X obj 237 196 outlet;
#X obj 149 24 metro 250;
#X obj 149 85 route 1;
#X obj 237 86 delay;
#X obj 110 -56 inlet start red;
#X obj 237 -56 inlet stop;
#X obj 110 125 gate 2;
#X msg 149 -6 1;
#X msg 237 -6 0;
#N canvas 501 191 229 164 colors 0;
#N canvas 16 80 277 282 sphere_color 0;
#X obj 12 27 bng 15 250 50 0 empty empty empty 0 -6 0 8 -262144 -1
-1;
#X msg 12 139 0;
#X obj 12 226 outlet;
#X obj 12 43 bng 15 250 50 0 empty empty empty 0 -6 0 8 -166441 -1
-1;
#X msg 12 160 1;
#X obj 12 59 bng 15 250 50 0 empty empty empty 0 -6 0 8 -66577 -1 -1
;
#X obj 60 27 bng 15 250 50 0 empty empty empty 0 -6 0 8 -261689 -1
-1;
#X msg 12 181 2;
#X msg 60 139 3;
#X obj 76 27 bng 15 250 50 0 empty empty empty 0 -6 0 8 -261681 -1
-1;
#X obj 92 27 bng 15 250 50 0 empty empty empty 0 -6 0 8 -262131 -1
-1;
#X obj 108 27 bng 15 250 50 0 empty empty empty 0 -6 0 8 -225271 -1
-1;
#X obj 124 27 bng 15 250 50 0 empty empty empty 0 -6 0 8 -225280 -1
-1;
#X msg 76 139 4;
#X msg 92 139 5;
#X msg 108 139 6;
#X msg 124 139 7;
#X obj 140 27 bng 15 250 50 0 empty empty empty 0 -6 0 8 -228992 -1
-1;
#X obj 156 27 bng 15 250 50 0 empty empty empty 0 -6 0 8 -257472 -1
-1;
#X msg 140 139 8;
#X msg 156 139 9;
#X obj 28 27 bng 15 250 50 0 empty empty empty 0 -6 0 8 -233017 -1
-1;
#X obj 28 43 bng 15 250 50 0 empty empty empty 0 -6 0 8 -128992 -1
-1;
#X obj 28 59 bng 15 250 50 0 empty empty empty 0 -6 0 8 -33289 -1 -1
;
#X obj 60 43 bng 15 250 50 0 empty empty empty 0 -6 0 8 -258699 -1
-1;
#X obj 76 43 bng 15 250 50 0 empty empty empty 0 -6 0 8 -260818 -1
-1;
#X obj 92 43 bng 15 250 50 0 empty empty empty 0 -6 0 8 -241291 -1
-1;
#X obj 108 43 bng 15 250 50 0 empty empty empty 0 -6 0 8 -24198 -1
-1;
#X obj 124 43 bng 15 250 50 0 empty empty empty 0 -6 0 8 -44926 -1
-1;
#X obj 140 43 bng 15 250 50 0 empty empty empty 0 -6 0 8 -62784 -1
-1;
#X obj 156 43 bng 15 250 50 0 empty empty empty 0 -6 0 8 -250685 -1
-1;
#X msg 60 160 13;
#X msg 76 160 14;
#X msg 92 160 15;
#X msg 108 160 16;
#X msg 124 160 17;
#X msg 140 160 18;
#X msg 156 160 19;
#X msg 28 139 10;
#X msg 28 160 11;
#X msg 28 181 12;
#X obj 44 27 bng 15 250 50 0 empty empty empty 0 -6 0 8 -195568 -1
-1;
#X obj 44 43 bng 15 250 50 0 empty empty empty 0 -6 0 8 -99865 -1 -1
;
#X obj 44 59 bng 15 250 50 0 empty empty empty 0 -6 0 8 -1 -1 -1;
#X obj 60 59 bng 15 250 50 0 empty empty empty 0 -6 0 8 -143491 -1
-1;
#X obj 76 59 bng 15 250 50 0 empty empty empty 0 -6 0 8 -90881 -1 -1
;
#X obj 92 59 bng 15 250 50 0 empty empty empty 0 -6 0 8 -123526 -1
-1;
#X obj 108 59 bng 15 250 50 0 empty empty empty 0 -6 0 8 -42246 -1
-1;
#X obj 124 59 bng 15 250 50 0 empty empty empty 0 -6 0 8 -1109 -1 -1
;
#X obj 140 59 bng 15 250 50 0 empty empty empty 0 -6 0 8 -355 -1 -1
;
#X obj 156 59 bng 15 250 50 0 empty empty empty 0 -6 0 8 -90133 -1
-1;
#X msg 60 181 23;
#X msg 76 181 24;
#X msg 92 181 25;
#X msg 108 181 26;
#X msg 124 181 27;
#X msg 140 181 28;
#X msg 156 181 29;
#X msg 44 139 20;
#X msg 44 160 21;
#X msg 44 181 22;
#X connect 0 0 1 0;
#X connect 1 0 2 0;
#X connect 3 0 4 0;
#X connect 4 0 2 0;
#X connect 5 0 7 0;
#X connect 6 0 8 0;
#X connect 7 0 2 0;
#X connect 8 0 2 0;
#X connect 9 0 13 0;
#X connect 10 0 14 0;
#X connect 11 0 15 0;
#X connect 12 0 16 0;
#X connect 13 0 2 0;
#X connect 14 0 2 0;
#X connect 15 0 2 0;
#X connect 16 0 2 0;
#X connect 17 0 19 0;
#X connect 18 0 20 0;
#X connect 19 0 2 0;
#X connect 20 0 2 0;
#X connect 21 0 38 0;
#X connect 22 0 39 0;
#X connect 23 0 40 0;
#X connect 24 0 31 0;
#X connect 25 0 32 0;
#X connect 26 0 33 0;
#X connect 27 0 34 0;
#X connect 28 0 35 0;
#X connect 29 0 36 0;
#X connect 30 0 37 0;
#X connect 31 0 2 0;
#X connect 32 0 2 0;
#X connect 33 0 2 0;
#X connect 34 0 2 0;
#X connect 35 0 2 0;
#X connect 36 0 2 0;
#X connect 37 0 2 0;
#X connect 38 0 2 0;
#X connect 39 0 2 0;
#X connect 40 0 2 0;
#X connect 41 0 58 0;
#X connect 42 0 59 0;
#X connect 43 0 60 0;
#X connect 44 0 51 0;
#X connect 45 0 52 0;
#X connect 46 0 53 0;
#X connect 47 0 54 0;
#X connect 48 0 55 0;
#X connect 49 0 56 0;
#X connect 50 0 57 0;
#X connect 51 0 2 0;
#X connect 52 0 2 0;
#X connect 53 0 2 0;
#X connect 54 0 2 0;
#X connect 55 0 2 0;
#X connect 56 0 2 0;
#X connect 57 0 2 0;
#X connect 58 0 2 0;
#X connect 59 0 2 0;
#X connect 60 0 2 0;
#X coords 0 0 1 1 200 100 2 0 0;
#X restore 15 6 pd sphere_color;
#X floatatom 15 120 5 0 0 0 - - -;
#X connect 0 0 1 0;
#X restore -14 196 pd colors;
#X msg 70 85 1;
#X msg 110 85 2;
#X msg 110 155 16;
#X msg 149 155 13;
#X obj -30 -56 inlet start green;
#X connect 0 0 4 0;
#X connect 3 0 0 0;
#X connect 4 0 8 1;
#X connect 4 1 2 0;
#X connect 5 0 2 0;
#X connect 6 0 13 0;
#X connect 6 0 9 0;
#X connect 7 0 10 0;
#X connect 8 0 14 0;
#X connect 8 1 15 0;
#X connect 9 0 3 0;
#X connect 10 0 5 0;
#X connect 10 0 3 0;
#X connect 12 0 8 0;
#X connect 13 0 8 0;
#X connect 14 0 1 0;
#X connect 15 0 1 0;
#X connect 16 0 12 0;
#X connect 16 0 9 0;
#X restore -1 720 pd alternator;
#X obj 67 188 r \$0-prg_path;
#X obj -1 138 spigot;
#X msg 296 98 1;
#X msg 38 98 0;
#X msg -1 98 1;
#X obj 87 660 r \$0-stop_alternator;
#X obj 87 630 s \$0-tgl_ready;
#X msg 126 600 0;
#X msg 87 600 1;
#X msg -68 98 0;
#X obj 180 47 s \$0-datetrig;
#X obj 67 218 bang;
#X msg 67 248 1;
#X msg 107 749 color 22 22;
#X msg -21 749 color \$1 \$1;
#X obj 107 690 r \$0-clrp;
#X obj 167 188 loadbang;
#X msg 167 248 0;
#X obj 167 218 delay 1000;
#X text -90 163 ------------------------------------------------------------
;
#X text -90 273 ------------------------------------------------------------
;
#X text -90 -47 ------------------------------------------------------------
;
#X text -90 -37 check date and participant:;
#X text -90 173 check path:;
#X text -90 503 ------------------------------------------------------------
;
#X obj 180 -22 inlet check;
#X obj 180 18 trigger bang bang;
#X obj -1 560 select 3;
#X obj -1 530 expr $f1 + $f2 + $f3;
#X text -90 283 check sources:;
#X text -90 513 inform:;
#N canvas 90 22 299 364 write_enable_wii 0;
#X obj 59 75 r \$0-tglwii_orient;
#X obj 9 45 r \$0-tglwii_btns;
#X obj 109 105 r \$0-tglwii_accel;
#X obj 59 105 t b f;
#X obj 109 135 t b f;
#X obj -52 235 moses 1;
#X msg 8 265 1;
#X obj 8 315 s \$0-write_enable_wii;
#X obj -52 315 outlet;
#X obj -52 15 r \$0-onoff_wii;
#X obj 9 75 t b f;
#X obj -52 205 expr $f1 * ($f2 + $f3 + $f4);
#X connect 0 0 3 0;
#X connect 1 0 10 0;
#X connect 2 0 4 0;
#X connect 3 0 11 0;
#X connect 3 1 11 2;
#X connect 4 0 11 0;
#X connect 4 1 11 3;
#X connect 5 0 7 0;
#X connect 5 0 8 0;
#X connect 5 1 6 0;
#X connect 6 0 7 0;
#X connect 6 0 8 0;
#X connect 9 0 11 0;
#X connect 10 0 11 0;
#X connect 10 1 11 1;
#X connect 11 0 5 0;
#X restore 166 291 pd write_enable_wii;
#N canvas 174 22 463 377 write_enable_myo 0;
#X obj -112 225 moses 1;
#X msg -52 255 1;
#X obj -52 305 s \$0-write_enable_myo;
#X obj -112 305 outlet;
#X obj -112 195 expr $f1 * ($f2 + $f3 + $f4 + $f5 + $f6);
#X obj 31 85 t b f;
#X obj -34 55 t b f;
#X obj -84 -5 r \$0-tglmyo_pose;
#X obj -34 25 r \$0-tglmyo_orient;
#X obj 31 55 r \$0-tglmyo_gyro;
#X obj 101 115 t b f;
#X obj 171 145 t b f;
#X obj 101 85 r \$0-tglmyo_emg;
#X obj 171 115 r \$0-tglmyo_accel;
#X obj -84 25 t b f;
#X obj -112 -35 r \$0-onoff_myo;
#X connect 0 0 2 0;
#X connect 0 0 3 0;
#X connect 0 1 1 0;
#X connect 1 0 2 0;
#X connect 1 0 3 0;
#X connect 4 0 0 0;
#X connect 5 0 4 0;
#X connect 5 1 4 3;
#X connect 6 0 4 0;
#X connect 6 1 4 2;
#X connect 7 0 14 0;
#X connect 8 0 6 0;
#X connect 9 0 5 0;
#X connect 10 0 4 0;
#X connect 10 1 4 4;
#X connect 11 0 4 0;
#X connect 11 1 4 5;
#X connect 12 0 10 0;
#X connect 13 0 11 0;
#X connect 14 0 4 0;
#X connect 14 1 4 1;
#X connect 15 0 4 0;
#X restore 216 321 pd write_enable_myo;
#N canvas 165 22 263 305 write_enable_audio 0;
#X obj -142 155 moses 1;
#X msg -82 185 1;
#X obj -142 235 outlet;
#X obj -142 -15 r \$0-onoff_audioin;
#X obj -23 75 t b f;
#X obj -23 45 r \$0-sel_audioin_2;
#X obj -75 15 r \$0-sel_audioin_1;
#X obj -75 45 t b f;
#X obj -142 125 expr $f1 * ($f2 + $f3);
#X connect 0 0 2 0;
#X connect 0 1 1 0;
#X connect 1 0 2 0;
#X connect 3 0 8 0;
#X connect 4 0 8 0;
#X connect 4 1 8 2;
#X connect 5 0 4 0;
#X connect 6 0 7 0;
#X connect 7 0 8 0;
#X connect 7 1 8 1;
#X connect 8 0 0 0;
#X restore 266 351 pd write_enable_audio;
#X obj 216 351 t b f;
#X obj 266 380 t b f;
#X msg 166 480 0;
#X msg 219 480 1;
#X obj 166 450 select 0;
#X obj 166 321 t b f;
#X obj 166 420 expr $f2 + $f3 + $f4;
#X connect 0 0 4 0;
#X connect 1 0 4 0;
#X connect 2 0 4 0;
#X connect 3 0 4 0;
#X connect 4 0 16 0;
#X connect 4 1 11 0;
#X connect 6 0 21 0;
#X connect 6 1 20 0;
#X connect 7 0 18 0;
#X connect 8 0 10 0;
#X connect 8 0 35 0;
#X connect 9 0 8 1;
#X connect 10 0 8 1;
#X connect 11 0 8 0;
#X connect 12 0 6 2;
#X connect 14 0 13 0;
#X connect 15 0 13 0;
#X connect 16 0 35 0;
#X connect 18 0 19 0;
#X connect 19 0 35 1;
#X connect 20 0 5 0;
#X connect 21 0 5 0;
#X connect 22 0 6 2;
#X connect 23 0 25 0;
#X connect 24 0 35 1;
#X connect 25 0 24 0;
#X connect 32 0 33 0;
#X connect 33 0 17 0;
#X connect 33 1 9 0;
#X connect 34 0 15 0;
#X connect 34 0 6 0;
#X connect 34 1 6 1;
#X connect 34 1 14 0;
#X connect 35 0 34 0;
#X connect 38 0 46 0;
#X connect 39 0 41 0;
#X connect 40 0 42 0;
#X connect 41 0 47 0;
#X connect 41 1 47 2;
#X connect 42 0 47 0;
#X connect 42 1 47 3;
#X connect 43 0 35 2;
#X connect 44 0 35 2;
#X connect 45 0 43 0;
#X connect 45 1 44 0;
#X connect 46 0 47 0;
#X connect 46 1 47 1;
#X connect 47 0 45 0;
#X restore -82 28 pd check_system_ready;
#X connect 1 0 2 0;
#X connect 2 0 0 0;
#X connect 5 0 8 0;
#X connect 8 0 9 0;
#X connect 8 1 6 0;
#X connect 8 2 7 0;
#X restore 359 153 pd setready W_M_A;
#N canvas 1088 379 352 423 audio_file_recorder 0;
#X obj -56 -90 r \$0-startaudiorec;
#X obj -126 100 spigot;
#X msg -24 0 1;
#X msg 14 0 0;
#X obj -186 0 r \$0-datafilename;
#X obj -186 -30 s \$0-make_file_name;
#X msg -103 201 start;
#X msg 13 161 stop;
#X obj -56 -60 t b b;
#X msg -126 130 open \$1;
#X obj 14 -60 r \$0-setready;
#X obj -126 161 t b b a;
#X obj -126 281 s \$0-filecounter;
#X obj -103 251 s \$0-recsync;
#X obj 13 201 s \$0-recdone;
#X msg -6 91 stop;
#X obj -186 130 bang;
#X msg -126 70 0;
#X obj -137 25 r loadbang;
#N canvas 1338 367 327 313 audio_inputs 0;
#N canvas 1265 117 653 303 create_audioin_1 0;
#X msg 451 172 clear;
#X obj 451 233 s pd-\$0-audioin_1_dyn;
#N canvas 67 414 147 94 \$0-audioin_1_dyn 0;
#X restore 451 263 pd \$0-audioin_1_dyn;
#X obj 421 12 inlet;
#X msg 23 172 clear \, obj 1 1 adc~ \$1 \, obj 1 50 throw~ audioin_1
\, connect 0 0 1 0;
#X msg 23 142 3;
#X obj -29 12 r \$0-audioin_1_ch_snd;
#X obj -29 42 t b f;
#X obj -29 112 spigot;
#X obj 421 52 route 1 0;
#X msg 23 72 set \$1;
#X connect 0 0 1 0;
#X connect 3 0 8 1;
#X connect 3 0 9 0;
#X connect 4 0 1 0;
#X connect 5 0 4 0;
#X connect 6 0 7 0;
#X connect 7 0 8 0;
#X connect 7 1 10 0;
#X connect 8 0 5 0;
#X connect 9 0 5 0;
#X connect 9 1 0 0;
#X connect 10 0 5 0;
#X restore -124 85 pd create_audioin_1;
#X obj -104 -25 r \$0-onoff_audioin;
#X obj -124 -55 r \$0-sel_audioin_1;
#X obj 36 -55 r \$0-sel_audioin_2;
#X obj -104 5 select 0;
#X msg -104 35 0;
#X obj -124 115 catch~ audioin_1;
#X obj 36 115 catch~ audioin_2;
#X obj -124 175 *~;
#X obj 36 175 *~;
#X obj -124 205 s~ audioin_post_1;
#X obj 36 205 s~ audioin_post_2;
#X obj -106 145 r \$0-infader_1;
#X obj 54 145 r \$0-infader_2;
#N canvas 1265 117 653 303 create_audioin_2 0;
#X msg 451 172 clear;
#X obj 421 12 inlet;
#X msg 23 142 5;
#X obj -29 42 t b f;
#X obj -29 112 spigot;
#X obj 421 52 route 1 0;
#X msg 23 72 set \$1;
#X obj -29 12 r \$0-audioin_2_ch_snd;
#X msg 23 172 clear \, obj 1 1 adc~ \$1 \, obj 1 50 throw~ audioin_2
\, connect 0 0 1 0;
#X obj 451 233 s pd-\$0-audioin_2_dyn;
#N canvas 67 414 147 94 \$0-audioin_2_dyn 0;
#X restore 451 263 pd \$0-audioin_2_dyn;
#X connect 0 0 9 0;
#X connect 1 0 4 1;
#X connect 1 0 5 0;
#X connect 2 0 8 0;
#X connect 3 0 4 0;
#X connect 3 1 6 0;
#X connect 4 0 2 0;
#X connect 5 0 2 0;
#X connect 5 1 0 0;
#X connect 6 0 2 0;
#X connect 7 0 3 0;
#X connect 8 0 9 0;
#X restore 36 85 pd create_audioin_2;
#X connect 1 0 4 0;
#X connect 2 0 0 0;
#X connect 3 0 14 0;
#X connect 4 0 5 0;
#X connect 5 0 0 0;
#X connect 5 0 14 0;
#X connect 6 0 8 0;
#X connect 7 0 9 0;
#X connect 8 0 10 0;
#X connect 9 0 11 0;
#X connect 12 0 8 1;
#X connect 13 0 9 1;
#X restore -186 -90 pd audio_inputs;
#N canvas 526 23 512 540 write_soundfile 0;
#X obj 75 361 s pd-\$0-writesf_dyn;
#N canvas 912 22 314 114 \$0-writesf_dyn 0;
#X restore 8 483 pd \$0-writesf_dyn;
#X obj 8 19 r \$0-sel_audioin_1;
#X obj 28 49 r \$0-sel_audioin_2;
#X obj 8 179 expr $f1 + $f2;
#X obj 81 139 t b f;
#X obj 28 79 select 1;
#X msg 28 109 2;
#X msg 75 299 clear \, obj 0 0 r to_writesf \, obj 20 30 r~ audioin_post_1
\, obj 160 30 r~ audioin_post_2 \, obj 0 70 writesf~ 2 \, connect 0
0 3 0 \, connect 1 0 3 0 \, connect 2 0 3 1;
#X obj 8 453 s pd-\$0-writesf_dyn;
#X msg 8 299 1;
#X msg 41 299 2;
#X msg 8 391 clear \, obj 0 0 r to_writesf \, obj 20 30 r~ audioin_post_\$1
\, obj 0 70 writesf~ 1 \, connect 0 0 2 0 \, connect 1 0 2 0;
#X obj 8 209 select 1 2 3;
#X obj 99 269 s pd-\$0-writesf_dyn;
#X msg 99 239 clear;
#X connect 2 0 4 0;
#X connect 3 0 6 0;
#X connect 4 0 13 0;
#X connect 5 0 4 0;
#X connect 5 1 4 1;
#X connect 6 0 7 0;
#X connect 6 1 5 0;
#X connect 7 0 5 0;
#X connect 8 0 0 0;
#X connect 10 0 12 0;
#X connect 11 0 12 0;
#X connect 12 0 9 0;
#X connect 13 0 10 0;
#X connect 13 1 11 0;
#X connect 13 2 8 0;
#X connect 13 3 15 0;
#X connect 15 0 14 0;
#X restore -6 281 pd write_soundfile;
#X obj -6 251 s to_writesf;
#X obj 13 131 r \$0-stopaudiorec;
#X connect 0 0 8 0;
#X connect 1 0 9 0;
#X connect 1 0 16 0;
#X connect 2 0 1 1;
#X connect 3 0 1 1;
#X connect 3 0 15 0;
#X connect 4 0 1 0;
#X connect 6 0 13 0;
#X connect 6 0 21 0;
#X connect 7 0 14 0;
#X connect 7 0 21 0;
#X connect 8 0 5 0;
#X connect 8 1 2 0;
#X connect 9 0 11 0;
#X connect 10 0 3 0;
#X connect 11 0 12 0;
#X connect 11 1 6 0;
#X connect 11 2 21 0;
#X connect 15 0 21 0;
#X connect 16 0 17 0;
#X connect 17 0 1 1;
#X connect 18 0 17 0;
#X connect 22 0 7 0;
#X restore 360 447 pd audio_file_recorder W_M_A;
#X obj 359 93 r \$0-datetrig;
#N canvas 594 22 766 316 capture_save_wii_myo 0;
#N canvas 1086 674 114 131 rt_rate 0;
#X obj -3 -6 r \$0-rt_rate;
#X obj -3 24 route 0 1 2;
#X obj -3 94 outlet;
#X msg -3 54 250;
#X msg 37 54 100;
#X msg 77 54 10;
#X connect 0 0 1 0;
#X connect 1 0 3 0;
#X connect 1 1 4 0;
#X connect 1 2 5 0;
#X connect 3 0 2 0;
#X connect 4 0 2 0;
#X connect 5 0 2 0;
#X restore 345 -164 pd rt_rate;
#X obj 285 -134 metro 250;
#N canvas 191 60 412 521 wii_to_textfile 0;
#X obj -50 -7 inlet metro;
#X obj -50 474 outlet to textfile;
#X obj -9 94 r \$0-wii_y;
#X obj 11 124 r \$0-wii_z;
#X obj 32 154 r \$0-wii_roll;
#X obj 52 184 r \$0-wii_pitch;
#X obj -30 66 r \$0-wii_x;
#X obj -50 444 r \$0-wii_to_file;
#X obj 198 63 s \$0-trig_wii_header;
#X obj -50 33 spigot;
#X obj 53 -7 r \$0-onoff_wii;
#X obj 168 33 gate;
#X obj 193 -7 r \$0-trig_headers;
#N canvas 148 58 387 399 wii_signals_and_header_switch 0;
#X obj -67 106 t b f;
#X obj -132 76 t b f;
#X obj -51 286 route 1;
#X obj -218 286 route 1;
#X obj -135 286 route 1;
#X obj -132 177 t l b;
#X obj -100 207 s \$0-clear_add_lists;
#N canvas 186 108 577 561 make_add_wii_header 0;
#X text 127 1 -------------------------;
#X text 36 23 all this makes the "add" message with the header;
#X text 146 43 of the text file;
#X obj 90 188 symbol;
#X obj 51 298 t l;
#X msg 91 298 bang;
#X obj 10 358 l2s;
#X obj 340 88 inlet;
#X obj 170 88 inlet;
#X obj 10 88 inlet;
#X obj 91 268 r \$0-clear_add_lists;
#X obj 256 268 f \$0;
#X obj 90 218 t s b;
#X obj 90 498 s pd-\$0-add_wii_head_prov;
#N canvas 157 22 597 268 \$0-add_wii_head_prov 0;
#X obj 231 11 r 1002-trig_wii_header;
#X msg 11 120 add wii_acc_x wii_acc_y wii_acc_z;
#X obj 451 230 s 1002-wii_to_file;
#X obj 231 41 t b b;
#X msg 451 90 add 100;
#X connect 0 0 3 0;
#X connect 1 0 2 0;
#X connect 3 0 1 0;
#X connect 3 1 4 0;
#X connect 4 0 2 0;
#X restore 90 528 pd \$0-add_wii_head_prov;
#X obj 306 269 r \$0-rt_rate;
#X obj 306 299 select 0 1 2;
#X obj 90 388 pack s f f;
#X msg 306 335 4;
#X msg 346 335 10;
#X msg 386 335 100;
#X msg 340 118 wii_acc_x \, wii_acc_y \, wii_acc_z;
#X obj 10 328 list prepend;
#X msg 90 418 clear \, obj 231 11 r \$2-trig_wii_header \, msg 11 120
add \$1 \, obj 451 230 s \$2-wii_to_file \, obj 231 41 t b b \, msg
451 90 add \$3 \, connect 0 0 3 0 \, connect 1 0 2 0 \, connect 3 0
1 0 \, connect 3 1 4 0 \, connect 4 0 2 0;
#X msg 170 118 wii_ori_r \, wii_ori_p;
#X msg 10 118 wii_btn_n \, wii_btn_a;
#X connect 3 0 12 0;
#X connect 4 0 22 1;
#X connect 5 0 22 1;
#X connect 6 0 17 0;
#X connect 7 0 21 0;
#X connect 8 0 24 0;
#X connect 9 0 25 0;
#X connect 10 0 5 0;
#X connect 11 0 17 1;
#X connect 12 0 22 0;
#X connect 12 1 11 0;
#X connect 15 0 16 0;
#X connect 16 0 18 0;
#X connect 16 1 19 0;
#X connect 16 2 20 0;
#X connect 17 0 23 0;
#X connect 18 0 17 2;
#X connect 19 0 17 2;
#X connect 20 0 17 2;
#X connect 21 0 3 0;
#X connect 22 0 4 0;
#X connect 22 0 6 0;
#X connect 23 0 13 0;
#X connect 24 0 3 0;
#X connect 25 0 3 0;
#X restore -77 345 pd make_add_wii_header;
#X obj -132 46 r \$0-tglwii_orient;
#X obj -172 16 r \$0-tglwii_btns;
#X obj -67 76 r \$0-tglwii_accel;
#X obj -132 147 pack f f f;
#X obj -132 237 unpack f f f;
#N canvas 73 23 527 557 make_add_wii_signals 0;
#X msg 1 194 symbol $;
#X obj 1 224 makefilename %s;
#X obj 70 264 pack s f;
#X obj 70 324 l2s;
#X msg 70 294 \$1\$2;
#X obj 111 324 t l;
#X msg 151 324 bang;
#X obj 70 384 l2s;
#X msg 150 84 2 \, 3 \, 4;
#X obj 70 354 list prepend;
#X obj 100 54 inlet;
#X obj 150 54 inlet;
#X obj 50 54 inlet;
#X text 116 23 corresponding to the selected signals;
#X text 76 3 all this makes the "add" message with the variables;
#X obj 100 154 t b f b;
#X obj 316 294 f \$0;
#X obj 70 414 pack s f;
#X obj 151 294 r \$0-clear_add_lists;
#X msg 100 84 5 \, 6;
#X msg 50 84 7;
#X obj 70 494 s pd-\$0-add_wii_sig_prov;
#N canvas 220 185 454 108 \$0-add_wii_sig_prov 0;
#X obj 1 1 r 1002-all_wii_signals;
#X msg 1 30 add \$2 \$3 \$4;
#X obj 1 70 s 1002-wii_to_file;
#X connect 0 0 1 0;
#X connect 1 0 2 0;
#X restore 70 524 pd \$0-add_wii_sig_prov;
#X msg 70 444 clear \, obj 1 1 r \$2-all_wii_signals \, msg 1 30 add
\$1 \, obj 1 70 s \$2-wii_to_file \, connect 0 0 1 0 \, connect 1 0
2 0;
#X connect 0 0 1 0;
#X connect 1 0 2 0;
#X connect 2 0 4 0;
#X connect 3 0 9 0;
#X connect 4 0 3 0;
#X connect 5 0 9 1;
#X connect 6 0 9 1;
#X connect 7 0 17 0;
#X connect 8 0 15 0;
#X connect 9 0 5 0;
#X connect 9 0 7 0;
#X connect 10 0 19 0;
#X connect 11 0 8 0;
#X connect 12 0 20 0;
#X connect 15 0 0 0;
#X connect 15 1 2 1;
#X connect 15 2 16 0;
#X connect 16 0 17 1;
#X connect 17 0 23 0;
#X connect 18 0 6 0;
#X connect 19 0 15 0;
#X connect 20 0 15 0;
#X connect 23 0 21 0;
#X restore -278 346 pd make_add_wii_signals;
#X connect 0 0 11 0;
#X connect 0 1 11 2;
#X connect 1 0 11 0;
#X connect 1 1 11 1;
#X connect 2 0 7 2;
#X connect 2 0 13 2;
#X connect 3 0 7 0;
#X connect 3 0 13 0;
#X connect 4 0 7 1;
#X connect 4 0 13 1;
#X connect 5 0 12 0;
#X connect 5 1 6 0;
#X connect 8 0 1 0;
#X connect 9 0 11 0;
#X connect 10 0 0 0;
#X connect 11 0 5 0;
#X connect 12 0 3 0;
#X connect 12 1 4 0;
#X connect 12 2 2 0;
#X restore -50 414 pd wii_signals_and_header_switch;
#X obj -50 354 pack f f f f f f s;
#X obj 73 214 r \$0-wii_btns;
#X obj -50 384 s \$0-all_wii_signals;
#X obj 73 244 t b a;
#X msg 168 318 0 0;
#X obj 168 348 l2s;
#X obj 207 131 r \$0-rt_rate;
#X obj 207 161 route 0 1 2;
#X msg 207 191 300;
#X msg 247 191 120;
#X msg 287 191 12;
#X obj 215 284 delay;
#X connect 0 0 9 0;
#X connect 2 0 14 2;
#X connect 3 0 14 3;
#X connect 4 0 14 4;
#X connect 5 0 14 5;
#X connect 6 0 14 1;
#X connect 7 0 1 0;
#X connect 9 0 14 0;
#X connect 10 0 9 1;
#X connect 10 0 11 0;
#X connect 11 0 8 0;
#X connect 11 0 18 0;
#X connect 12 0 11 1;
#X connect 14 0 16 0;
#X connect 15 0 17 0;
#X connect 17 0 25 0;
#X connect 17 1 14 6;
#X connect 18 0 19 0;
#X connect 19 0 14 6;
#X connect 20 0 21 0;
#X connect 21 0 22 0;
#X connect 21 1 23 0;
#X connect 21 2 24 0;
#X connect 22 0 25 1;
#X connect 23 0 25 1;
#X connect 24 0 25 1;
#X connect 25 0 18 0;
#X restore 115 -54 pd wii_to_textfile;
#N canvas 331 51 407 767 myo_to_textfile 0;
#X obj -20 714 outlet to textfile;
#X obj -4 54 r \$0-myo_acc_x;
#X obj 12 84 r \$0-myo_acc_y;
#X obj 28 114 r \$0-myo_acc_z;
#X obj 60 174 r \$0-myo_emg_2;
#X obj 77 204 r \$0-myo_emg_3;
#X obj 93 234 r \$0-myo_emg_4;
#X obj 109 264 r \$0-myo_emg_5;
#X obj 125 294 r \$0-myo_emg_6;
#X obj 141 324 r \$0-myo_emg_7;
#X obj 157 354 r \$0-myo_emg_8;
#X obj 174 384 r \$0-myo_gyr_x;
#X obj 190 414 r \$0-myo_gyr_y;
#X obj 206 444 r \$0-myo_gyr_z;
#X obj 222 474 r \$0-myo_ori_y;
#X obj 254 534 r \$0-myo_ori_r;
#X obj 271 564 r \$0-myo_pose;
#X obj -20 624 s \$0-all_myo_signals;
#X obj 238 504 r \$0-myo_ori_p;
#X obj 44 144 r \$0-myo_emg_1;
#X obj -20 684 r \$0-myo_to_file;
#X obj -20 -16 inlet metro;
#X obj -20 24 spigot;
#X obj 198 24 gate;
#X obj 93 -16 r \$0-onoff_myo;
#X obj 223 -16 r \$0-trig_headers;
#X obj 198 54 s \$0-trig_myo_header;
#X obj -20 594 pack f f f f f f f f f f f f f f f f f f s;
#N canvas 447 22 525 495 myo_signals_and_header_switch 0;
#X obj 95 98 t b f;
#X obj 30 68 t b f;
#X obj 93 348 route 1;
#X obj -74 348 route 1;
#X obj 9 348 route 1;
#X obj 39 238 t l b;
#N canvas 367 77 527 557 make_add_myo_signals 0;
#X msg 1 194 symbol $;
#X obj 1 224 makefilename %s;
#X obj 70 264 pack s f;
#X obj 70 324 l2s;
#X msg 70 294 \$1\$2;
#X obj 111 324 t l;
#X msg 151 324 bang;
#X obj 70 384 l2s;
#X msg 451 84 2 \, 3 \, 4;
#X obj 70 354 list prepend;
#X obj 151 54 inlet;
#X obj 241 54 inlet;
#X obj 451 54 inlet;
#X msg 241 84 5 \, 6 \, 7 \, 8 \, 9 \, 10 \, 11 \, 12;
#X msg 151 84 13 \, 14 \, 15;
#X obj 61 54 inlet;
#X msg 61 84 16 \, 17 \, 18;
#X obj 11 54 inlet;
#X msg 11 84 19;
#X text 116 23 corresponding to the selected signals;
#X text 76 3 all this makes the "add" message with the variables;
#X obj 70 494 s pd-\$0-add_myo_sig_prov;
#N canvas 965 22 454 108 \$0-add_myo_sig_prov 0;
#X obj 1 1 r 1002-all_myo_signals;
#X msg 1 30 add \$5 \$6 \$7 \$8 \$9 \$10 \$11 \$12;
#X obj 1 70 s 1002-myo_to_file;
#X connect 0 0 1 0;
#X connect 1 0 2 0;
#X restore 70 524 pd \$0-add_myo_sig_prov;
#X obj 100 154 t b f b;
#X obj 316 294 f \$0;
#X obj 70 414 pack s f;
#X msg 70 444 clear \, obj 1 1 r \$2-all_myo_signals \, msg 1 30 add
\$1 \, obj 1 70 s \$2-myo_to_file \, connect 0 0 1 0 \, connect 1 0
2 0;
#X obj 151 294 r \$0-clear_add_lists;
#X connect 0 0 1 0;
#X connect 1 0 2 0;
#X connect 2 0 4 0;
#X connect 3 0 9 0;
#X connect 4 0 3 0;
#X connect 5 0 9 1;
#X connect 6 0 9 1;
#X connect 7 0 25 0;
#X connect 8 0 23 0;
#X connect 9 0 5 0;
#X connect 9 0 7 0;
#X connect 10 0 14 0;
#X connect 11 0 13 0;
#X connect 12 0 8 0;
#X connect 13 0 23 0;
#X connect 14 0 23 0;
#X connect 15 0 16 0;
#X connect 16 0 23 0;
#X connect 17 0 18 0;
#X connect 18 0 23 0;
#X connect 23 0 0 0;
#X connect 23 1 2 1;
#X connect 23 2 24 0;
#X connect 24 0 25 1;
#X connect 25 0 26 0;
#X connect 26 0 21 0;
#X connect 27 0 6 0;
#X restore -74 408 pd make_add_myo_signals;
#N canvas 784 22 591 795 make_add_myo_header 0;
#X text 127 1 -------------------------;
#X text 36 23 all this makes the "add" message with the header;
#X text 146 43 of the text file;
#X obj 10 398 symbol;
#X obj 51 508 t l;
#X msg 91 508 bang;
#X obj 10 568 l2s;
#X obj 10 538 list prepend;
#X obj 130 88 inlet;
#X obj 180 88 inlet;
#X obj 230 88 inlet;
#X obj 80 88 inlet;
#X obj 10 88 inlet;
#X obj 91 478 r \$0-clear_add_lists;
#X msg 10 128 myo_pose;
#X msg 80 318 myo_ori_y \, myo_ori_p \, myo_ori_r;
#X msg 130 258 myo_gyr_x \, myo_gyr_y \, myo_gyr_z;
#X msg 180 178 myo_emg_1 \, myo_emg_2 \, myo_emg_3 \, myo_emg_4 \,
myo_emg_5 \, myo_emg_6 \, myo_emg_7 \, myo_emg_8;
#X msg 230 118 myo_acc_x \, myo_acc_y \, myo_acc_z;
#X obj 230 148 s \$0-myo_signal_names;
#X obj 180 228 s \$0-myo_signal_names;
#X obj 130 288 s \$0-myo_signal_names;
#X obj 80 358 r \$0-myo_signal_names;
#X obj 256 477 f \$0;
#X obj 10 428 t s b;
#X obj 150 708 s pd-\$0-add_myo_head_prov;
#N canvas 872 22 601 276 \$0-add_myo_head_prov 0;
#X obj 231 11 r 1002-trig_myo_header;
#X msg 11 120 add myo_emg_1 myo_emg_2 myo_emg_3 myo_emg_4 myo_emg_5
myo_emg_6 myo_emg_7 myo_emg_8;
#X obj 451 230 s 1002-myo_to_file;
#X obj 231 41 t b b;
#X msg 451 90 add 100;
#X connect 0 0 3 0;
#X connect 1 0 2 0;
#X connect 3 0 1 0;
#X connect 3 1 4 0;
#X connect 4 0 2 0;
#X restore 150 738 pd \$0-add_myo_head_prov;
#X obj 296 477 r \$0-rt_rate;
#X obj 150 598 pack s f f;
#X obj 296 507 select 0 1 2;
#X msg 296 543 4;
#X msg 336 543 10;
#X msg 376 543 100;
#X msg 150 628 clear \, obj 231 11 r \$2-trig_myo_header \, msg 11
120 add \$1 \, obj 451 230 s \$2-myo_to_file \, obj 231 41 t b b \,
msg 451 90 add \$3 \, connect 0 0 3 0 \, connect 1 0 2 0 \, connect
3 0 1 0 \, connect 3 1 4 0 \, connect 4 0 2 0;
#X connect 3 0 24 0;
#X connect 4 0 7 1;
#X connect 5 0 7 1;
#X connect 6 0 28 0;
#X connect 7 0 4 0;
#X connect 7 0 6 0;
#X connect 8 0 16 0;
#X connect 9 0 17 0;
#X connect 10 0 18 0;
#X connect 11 0 15 0;
#X connect 12 0 14 0;
#X connect 13 0 5 0;
#X connect 14 0 3 0;
#X connect 15 0 3 0;
#X connect 16 0 21 0;
#X connect 17 0 20 0;
#X connect 18 0 19 0;
#X connect 22 0 3 0;
#X connect 23 0 28 1;
#X connect 24 0 7 0;
#X connect 24 1 23 0;
#X connect 27 0 29 0;
#X connect 28 0 33 0;
#X connect 29 0 30 0;
#X connect 29 1 31 0;
#X connect 29 2 32 0;
#X connect 30 0 28 2;
#X connect 31 0 28 2;
#X connect 32 0 28 2;
#X connect 33 0 25 0;
#X restore 106 408 pd make_add_myo_header;
#X obj 39 208 pack f f f f f;
#X obj -10 8 r \$0-tglmyo_pose;
#X obj 30 38 r \$0-tglmyo_orient;
#X obj 95 68 r \$0-tglmyo_gyro;
#X obj 165 128 t b f;
#X obj 235 158 t b f;
#X obj 165 98 r \$0-tglmyo_emg;
#X obj 235 128 r \$0-tglmyo_accel;
#X obj 39 298 unpack f f f f f;
#X obj 257 348 route 1;
#X obj 177 348 route 1;
#X obj 71 268 s \$0-clear_add_lists;
#X connect 0 0 8 0;
#X connect 0 1 8 2;
#X connect 1 0 8 0;
#X connect 1 1 8 1;
#X connect 2 0 6 2;
#X connect 2 0 7 2;
#X connect 3 0 6 0;
#X connect 3 0 7 0;
#X connect 4 0 6 1;
#X connect 4 0 7 1;
#X connect 5 0 16 0;
#X connect 5 1 19 0;
#X connect 8 0 5 0;
#X connect 9 0 8 0;
#X connect 10 0 1 0;
#X connect 11 0 0 0;
#X connect 12 0 8 0;
#X connect 12 1 8 3;
#X connect 13 0 8 0;
#X connect 13 1 8 4;
#X connect 14 0 12 0;
#X connect 15 0 13 0;
#X connect 16 0 3 0;
#X connect 16 1 4 0;
#X connect 16 2 2 0;
#X connect 16 3 18 0;
#X connect 16 4 17 0;
#X connect 17 0 6 4;
#X connect 17 0 7 4;
#X connect 18 0 6 3;
#X connect 18 0 7 3;
#X restore -20 654 pd myo_signals_and_header_switch;
#X connect 1 0 27 1;
#X connect 2 0 27 2;
#X connect 3 0 27 3;
#X connect 4 0 27 5;
#X connect 5 0 27 6;
#X connect 6 0 27 7;
#X connect 7 0 27 8;
#X connect 8 0 27 9;
#X connect 9 0 27 10;
#X connect 10 0 27 11;
#X connect 11 0 27 12;
#X connect 12 0 27 13;
#X connect 13 0 27 14;
#X connect 14 0 27 15;
#X connect 15 0 27 17;
#X connect 16 0 27 18;
#X connect 18 0 27 16;
#X connect 19 0 27 4;
#X connect 20 0 0 0;
#X connect 21 0 22 0;
#X connect 22 0 27 0;
#X connect 23 0 26 0;
#X connect 24 0 22 1;
#X connect 24 0 23 0;
#X connect 25 0 23 1;
#X connect 27 0 17 0;
#X restore 425 -54 pd myo_to_textfile;
#N canvas 710 425 467 420 write_textfile 0;
#X obj 47 154 r \$0-datafilename;
#X obj 180 374 s \$0-filecounter;
#X obj 180 254 pack s s;
#X obj 180 284 makesymbol %s%s;
#X obj 180 344 bang;
#X obj 47 224 spigot;
#X msg 86 184 0;
#X msg 190 184 1;
#X msg 27 84 clear;
#X obj 47 124 s \$0-make_file_name;
#X obj 187 14 inlet file extension (triggers write);
#X obj 187 54 t b b s;
#X obj 7 14 inlet add data;
#X obj 27 54 r \$0-clear_buffer;
#X obj 7 374 textfile;
#X msg 180 314 write \$1 cr;
#X connect 0 0 5 0;
#X connect 2 0 3 0;
#X connect 3 0 15 0;
#X connect 4 0 1 0;
#X connect 5 0 2 0;
#X connect 5 0 6 0;
#X connect 6 0 5 1;
#X connect 7 0 5 1;
#X connect 8 0 14 0;
#X connect 10 0 11 0;
#X connect 11 0 9 0;
#X connect 11 1 7 0;
#X connect 11 2 2 1;
#X connect 12 0 14 0;
#X connect 13 0 8 0;
#X connect 15 0 4 0;
#X connect 15 0 14 0;
#X restore 425 76 pd write_textfile;
#N canvas 335 305 459 412 write_textfile 0;
#X obj 7 374 textfile;
#X obj 37 154 r \$0-datafilename;
#X obj 180 374 s \$0-filecounter;
#X obj 180 254 pack s s;
#X obj 180 284 makesymbol %s%s;
#X obj 180 344 bang;
#X obj 37 224 spigot;
#X msg 76 184 0;
#X msg 190 184 1;
#X msg 27 84 clear;
#X obj 37 124 s \$0-make_file_name;
#X obj 187 14 inlet file extension (triggers write);
#X obj 187 54 t b b s;
#X obj 7 14 inlet add data;
#X obj 27 54 r \$0-clear_buffer;
#X msg 180 314 write \$1 cr;
#X connect 1 0 6 0;
#X connect 3 0 4 0;
#X connect 4 0 15 0;
#X connect 5 0 2 0;
#X connect 6 0 3 0;
#X connect 6 0 7 0;
#X connect 7 0 6 1;
#X connect 8 0 6 1;
#X connect 9 0 0 0;
#X connect 11 0 12 0;
#X connect 12 0 10 0;
#X connect 12 1 8 0;
#X connect 12 2 3 1;
#X connect 13 0 0 0;
#X connect 14 0 9 0;
#X connect 15 0 0 0;
#X connect 15 0 5 0;
#X restore 115 76 pd write_textfile;
#X obj 541 16 spigot;
#X obj 231 16 spigot;
#X obj 285 -194 r \$0-tglrtdatacap;
#X obj 160 -24 r \$0-write_wii;
#X obj 470 -24 r \$0-write_myo;
#X obj 10 6 s \$0-write_wii;
#X obj -22 66 s \$0-write_myo;
#X obj -22 36 delay 500;
#X obj -22 -64 select 0;
#X obj -22 -34 t b b;
#X obj 270 -24 r \$0-write_enable_wii;
#X obj 580 -24 r \$0-write_enable_myo;
#X msg 231 46 symbol .wii;
#X msg 541 46 symbol .myo;
#X connect 0 0 1 1;
#X connect 1 0 2 0;
#X connect 1 0 3 0;
#X connect 2 0 5 0;
#X connect 3 0 4 0;
#X connect 6 0 19 0;
#X connect 7 0 18 0;
#X connect 8 0 1 0;
#X connect 8 0 14 0;
#X connect 9 0 7 0;
#X connect 10 0 6 0;
#X connect 13 0 12 0;
#X connect 14 0 15 0;
#X connect 15 0 13 0;
#X connect 15 1 11 0;
#X connect 16 0 7 1;
#X connect 17 0 6 1;
#X connect 18 0 5 1;
#X connect 19 0 4 1;
#X restore 360 477 pd capture_save_wii_myo;
#X text 34 203 3) enter participant/dataset;
#X text 144 43 v 0.1.2;
#N canvas 614 23 826 170 UDP_OSC 0;
#X obj -133 34 unpackOSC;
#N canvas 740 22 162 261 OSC_Wii 0;
#X obj -50 -88 inlet OSC messages;
#X obj -50 -58 routeOSC /wii;
#X obj -50 -28 s \$0-wii_osc;
#N canvas 653 363 225 448 plot_wii_display 0;
#N canvas 905 22 226 527 plot_wii 0;
#X obj 1 1 cnv 15 204 25 empty empty Wiimote 72 12 0 14 -128992 -262144
0;
#X obj 1 29 cnv 15 204 200 empty empty acceleration 54 12 0 14 -128992
-262144 0;
#X obj 3 52 cnv 15 200 174 empty empty empty 88 12 0 14 -262144 -262144
0;
#X obj 1 232 cnv 15 204 134 empty empty orientation 56 12 0 14 -128992
-262144 0;
#X obj 3 255 cnv 15 200 108 empty empty empty 88 12 0 14 -262144 -262144
0;
#X obj 1 369 cnv 15 204 50 empty empty buttons 72 12 0 14 -128992 -262144
0;
#X obj 0 -95 r \$0-plot_wii;
#X msg 0 -55 \; pd-plot_wii_display vis \$1;
#N canvas 1136 418 210 186 plot_wii_accel_display 0;
#N canvas 936 22 363 528 plot_myo_accel 0;
#X obj 179 -151 spigot;
#X obj 229 -151 spigot;
#X obj 279 -151 spigot;
#X obj 48 -151 r \$0-rt_rate;
#X obj 48 -121 select 0 1 2;
#X msg 88 -85 100;
#X msg 48 -85 250;
#X msg 128 -85 10;
#N canvas 751 414 506 359 plotter_3 0;
#X floatatom 130 44 5 0 0 0 - - -;
#X obj 20 73 metro 10;
#X obj 20 -27 tgl 15 0 empty empty empty 17 7 0 10 -262144 -1 -1 0
1;
#X obj 100 123 write_table;
#X obj 20 -56 inlet onoff;
#X obj 100 183 write_table;
#X obj 100 243 write_table;
#X obj 130 -56 inlet rate;
#X obj 40 3 select 1;
#X obj 353 -56 inlet;
#X obj 403 -56 inlet;
#X obj 453 -56 inlet;
#X connect 0 0 1 1;
#X connect 1 0 3 0;
#X connect 1 0 5 0;
#X connect 1 0 6 0;
#X connect 2 0 1 0;
#X connect 2 0 8 0;
#X connect 4 0 2 0;
#X connect 7 0 0 0;
#X connect 8 0 0 0;
#X connect 9 0 3 1;
#X connect 10 0 5 1;
#X connect 11 0 6 1;
#X coords 0 -1 1 1 200 194 2 100 100;
#X restore 0 -21 pd plotter_3;
#X obj 179 -342 r \$0-wii_x;
#X obj 229 -311 r \$0-wii_y;
#X obj 279 -281 r \$0-wii_z;
#X obj 179 -85 / 10;
#X obj 229 -85 / 10;
#X obj 279 -85 / 10;
#N canvas 0 22 231 309 enable_plot_wii_accel 0;
#X obj 10 -202 r \$0-plot_wii;
#X obj 90 -112 r \$0-tglwii_accel;
#X obj 90 -82 t b f;
#X obj 40 -172 r \$0-onoff_wii;
#X obj 40 -142 t b f;
#X obj 10 -32 expr $f1 + $f2 + $f3;
#X obj 10 -2 select 3;
#X msg 10 28 1;
#X msg 63 28 0;
#X obj 10 68 outlet;
#X connect 0 0 5 0;
#X connect 1 0 2 0;
#X connect 2 0 5 0;
#X connect 2 1 5 2;
#X connect 3 0 4 0;
#X connect 4 0 5 0;
#X connect 4 1 5 1;
#X connect 5 0 6 0;
#X connect 6 0 7 0;
#X connect 6 1 8 0;
#X connect 7 0 9 0;
#X connect 8 0 9 0;
#X restore 0 -342 pd enable_plot_wii_accel;
#X connect 0 0 12 0;
#X connect 1 0 13 0;
#X connect 2 0 14 0;
#X connect 3 0 4 0;
#X connect 4 0 6 0;
#X connect 4 1 5 0;
#X connect 4 2 7 0;
#X connect 5 0 8 1;
#X connect 6 0 8 1;
#X connect 7 0 8 1;
#X connect 9 0 0 0;
#X connect 10 0 1 0;
#X connect 11 0 2 0;
#X connect 12 0 8 2;
#X connect 13 0 8 3;
#X connect 14 0 8 4;
#X connect 15 0 8 0;
#X connect 15 0 0 1;
#X connect 15 0 2 1;
#X connect 15 0 1 1;
#X coords 0 0 1 1 200 174 2 0 0;
#X restore 0 0 pd plot_myo_accel;
#X coords 0 -1 1 1 200 174 2 0 0;
#X restore 3 52 pd plot_wii_accel_display;
#N canvas 1015 22 210 133 plot_wii_orient_display 0;
#N canvas 765 22 379 393 plot_wii_orient 0;
#X obj 205 -130 spigot;
#X obj 265 -130 spigot;
#X obj 64 -130 r \$0-rt_rate;
#X obj 64 -100 select 0 1 2;
#X msg 104 -64 100;
#X msg 64 -64 250;
#X msg 144 -64 10;
#N canvas 392 67 506 359 plotter_2 0;
#X floatatom 30 -79 5 0 0 0 - - -;
#X obj -80 -50 metro 10;
#X obj -80 -150 tgl 15 0 empty empty empty 17 7 0 10 -262144 -1 -1
0 1;
#X obj 0 0 write_table;
#X obj -80 -179 inlet onoff;
#X obj 0 60 write_table;
#X obj 30 -179 inlet rate;
#X obj -60 -120 select 1;
#X obj 253 -179 inlet;
#X obj 303 -179 inlet;
#X connect 0 0 1 1;
#X connect 1 0 3 0;
#X connect 1 0 5 0;
#X connect 2 0 1 0;
#X connect 2 0 7 0;
#X connect 4 0 2 0;
#X connect 6 0 0 0;
#X connect 7 0 0 0;
#X connect 8 0 3 1;
#X connect 9 0 5 1;
#X coords 0 -1 1 1 200 110 2 0 0;
#X restore 0 0 pd plotter_2;
#X obj 205 -265 r \$0-wii_roll;
#X obj 265 -234 r \$0-wii_pitch;
#X obj 205 -60 * 0.8;
#X obj 265 -60 * 0.8;
#N canvas 236 22 231 309 enable_plot_wii_orient 0;
#X obj 10 -202 r \$0-plot_wii;
#X obj 90 -82 t b f;
#X obj 40 -172 r \$0-onoff_wii;
#X obj 40 -142 t b f;
#X obj 10 -32 expr $f1 + $f2 + $f3;
#X obj 10 -2 select 3;
#X msg 10 28 1;
#X msg 63 28 0;
#X obj 10 68 outlet;
#X obj 90 -112 r \$0-tglwii_orient;
#X connect 0 0 4 0;
#X connect 1 0 4 0;
#X connect 1 1 4 2;
#X connect 2 0 3 0;
#X connect 3 0 4 0;
#X connect 3 1 4 1;
#X connect 4 0 5 0;
#X connect 5 0 6 0;
#X connect 5 1 7 0;
#X connect 6 0 8 0;
#X connect 7 0 8 0;
#X connect 9 0 1 0;
#X restore 0 -265 pd enable_plot_wii_orient;
#X connect 0 0 10 0;
#X connect 1 0 11 0;
#X connect 2 0 3 0;
#X connect 3 0 5 0;
#X connect 3 1 4 0;
#X connect 3 2 6 0;
#X connect 4 0 7 1;
#X connect 5 0 7 1;
#X connect 6 0 7 1;
#X connect 8 0 0 0;
#X connect 9 0 1 0;
#X connect 10 0 7 2;
#X connect 11 0 7 3;
#X connect 12 0 0 1;
#X connect 12 0 1 1;
#X connect 12 0 7 0;
#X coords 0 -1 1 1 200 110 2 0 0;
#X restore 0 -1 pd plot_wii_orient;
#X coords 0 -1 1 1 200 108 2 0 0;
#X restore 3 255 pd plot_wii_orient_display;
#N canvas 1006 22 314 223 plot_wii_btns_display 0;
#X obj 2 2 cnv 15 200 24 empty \$0-wii_btns_display empty 2 12 0 14
-262144 -66577 0;
#X msg 1 -79 label \$1;
#X obj 221 -119 loadbang;
#X msg 141 -79 label;
#X obj 71 -39 s \$0-wii_btns_display;
#X obj 1 -169 r \$0-wii_btns;
#N canvas 236 22 231 309 enable_plot_wii_btns 0;
#X obj 10 -202 r \$0-plot_wii;
#X obj 90 -82 t b f;
#X obj 40 -172 r \$0-onoff_wii;
#X obj 40 -142 t b f;
#X obj 10 -32 expr $f1 + $f2 + $f3;
#X obj 10 -2 select 3;
#X msg 10 28 1;
#X msg 63 28 0;
#X obj 10 68 outlet;
#X obj 90 -112 r \$0-tglwii_btns;
#X connect 0 0 4 0;
#X connect 1 0 4 0;
#X connect 1 1 4 2;
#X connect 2 0 3 0;
#X connect 3 0 4 0;
#X connect 3 1 4 1;
#X connect 4 0 5 0;
#X connect 5 0 6 0;
#X connect 5 1 7 0;
#X connect 6 0 8 0;
#X connect 7 0 8 0;
#X connect 9 0 1 0;
#X restore 141 -169 pd enable_plot_wii_btns;
#X obj 141 -119 select 0;
#X obj 1 -119 spigot;
#X connect 1 0 4 0;
#X connect 2 0 3 0;
#X connect 3 0 4 0;
#X connect 5 0 8 0;
#X connect 6 0 8 1;
#X connect 6 0 7 0;
#X connect 7 0 3 0;
#X connect 8 0 1 0;
#X coords 0 -1 1 1 202 26 2 1 1;
#X restore 2 391 pd plot_wii_btns_display;
#X connect 6 0 7 0;
#X coords 0 -1 1 1 206 420 2 0 0;
#X restore 6 8 pd plot_wii;
#X restore -50 12 pd plot_wii_display;
#X obj -50 142 outlet print;
#N canvas 951 161 270 275 wii_accel 0;
#X obj -102 68 spigot;
#X obj -102 238 outlet print;
#X obj -102 8 r \$0-wii_osc;
#X obj -63 38 r \$0-tglwii_accel;
#X obj -102 98 routeOSC /acc;
#X obj -2 238 s \$0-wii_x;
#X obj -2 138 unpack f f f;
#X obj 38 208 s \$0-wii_y;
#X obj 79 178 s \$0-wii_z;
#X connect 0 0 4 0;
#X connect 2 0 0 0;
#X connect 3 0 0 1;
#X connect 4 0 1 0;
#X connect 4 0 6 0;
#X connect 6 0 5 0;
#X connect 6 1 7 0;
#X connect 6 2 8 0;
#X restore -50 52 pd wii_accel;
#N canvas 680 199 217 294 wii_btns 0;
#X obj -109 62 spigot;
#X obj -109 252 outlet print;
#X obj -70 32 r \$0-tglwii_btns;
#X obj -109 1 r \$0-wii_osc;
#X obj -13 252 s \$0-wii_btns;
#X obj -13 222 l2s;
#X obj -69 122 unpack s f;
#X obj -109 92 routeOSC /button;
#X obj -109 152 splitfilename;
#X obj -55 182 pack s f;
#X msg -109 222 \$1 \$2;
#X connect 0 0 7 0;
#X connect 2 0 0 1;
#X connect 3 0 0 0;
#X connect 5 0 4 0;
#X connect 6 0 8 0;
#X connect 6 1 9 1;
#X connect 7 0 6 0;
#X connect 8 1 9 0;
#X connect 9 0 10 0;
#X connect 9 0 5 0;
#X connect 10 0 1 0;
#X restore -10 112 pd wii_btns;
#N canvas 1048 22 228 264 wii_orient 0;
#X obj 13 72 spigot;
#X obj 13 232 outlet print;
#X obj 13 102 routeOSC /orientation;
#X obj 33 142 unpack f f;
#X obj 33 202 s \$0-wii_roll;
#X obj 100 172 s \$0-wii_pitch;
#X obj 52 42 r \$0-tglwii_orient;
#X obj 13 12 r \$0-wii_osc;
#X connect 0 0 2 0;
#X connect 2 0 1 0;
#X connect 2 0 3 0;
#X connect 3 0 4 0;
#X connect 3 1 5 0;
#X connect 6 0 0 1;
#X connect 7 0 0 0;
#X restore -40 82 pd wii_orient;
#X connect 0 0 1 0;
#X connect 1 0 2 0;
#X connect 5 0 4 0;
#X connect 6 0 4 0;
#X connect 7 0 4 0;
#X restore -133 64 pd OSC_Wii W_M_A;
#X obj 447 34 unpackOSC;
#X obj -10 -27 r \$0-oscport_wii_snd;
#X obj 157 34 unpackOSC;
#N canvas 317 134 158 341 OSC_Myo 0;
#X obj -35 -55 inlet OSC messages;
#X obj -35 -25 routeOSC /myo;
#X obj -35 5 s \$0-myo_osc;
#N canvas 286 40 310 283 myo_accel 0;
#X obj -102 68 spigot;
#X obj -102 98 routeOSC /accel;
#X obj -102 8 r \$0-myo_osc;
#X obj -63 38 r \$0-tglmyo_accel;
#X obj -102 238 outlet print;
#X obj -32 138 unpack s f f f f;
#X obj 22 238 s \$0-myo_acc_x;
#X obj 49 208 s \$0-myo_acc_y;
#X obj 77 178 s \$0-myo_acc_z;
#X connect 0 0 1 0;
#X connect 1 0 4 0;
#X connect 1 0 5 0;
#X connect 2 0 0 0;
#X connect 3 0 0 1;
#X connect 5 2 6 0;
#X connect 5 3 7 0;
#X connect 5 4 8 0;
#X restore -35 85 pd myo_accel;
#N canvas 375 165 231 281 myo_gyro 0;
#X obj -97 52 spigot;
#X obj -97 82 routeOSC /gyro;
#X obj -97 -8 r \$0-myo_osc;
#X obj -58 22 r \$0-tglmyo_gyro;
#X obj -97 242 outlet print;
#X obj -87 122 unpack s f f f f;
#X obj -33 212 s \$0-myo_gyr_x;
#X obj -6 182 s \$0-myo_gyr_y;
#X obj 22 152 s \$0-myo_gyr_z;
#X connect 0 0 1 0;
#X connect 1 0 4 0;
#X connect 1 0 5 0;
#X connect 2 0 0 0;
#X connect 3 0 0 1;
#X connect 5 2 6 0;
#X connect 5 3 7 0;
#X connect 5 4 8 0;
#X restore -15 145 pd myo_gyro;
#N canvas 649 275 254 286 myo_orient 0;
#X obj -91 61 spigot;
#X obj -91 91 routeOSC /orientation;
#X obj -91 1 r \$0-myo_osc;
#X obj -52 31 r \$0-tglmyo_orient;
#X obj -91 251 outlet print;
#X obj -17 221 s \$0-myo_ori_y;
#X obj 10 191 s \$0-myo_ori_p;
#X obj 38 161 s \$0-myo_ori_r;
#X obj -71 131 unpack s f f f f;
#X connect 0 0 1 0;
#X connect 1 0 4 0;
#X connect 1 0 8 0;
#X connect 2 0 0 0;
#X connect 3 0 0 1;
#X connect 8 2 5 0;
#X connect 8 3 6 0;
#X connect 8 4 7 0;
#X restore -5 175 pd myo_orient;
#N canvas 704 253 209 230 myo_pose 0;
#X obj -97 62 spigot;
#X obj -97 92 routeOSC /pose;
#X obj -97 2 r \$0-myo_osc;
#X obj -58 32 r \$0-tglmyo_pose;
#X obj -6 162 s \$0-myo_pose;
#X obj -97 192 outlet print;
#X obj -87 132 unpack s f s;
#X connect 0 0 1 0;
#X connect 1 0 5 0;
#X connect 1 0 6 0;
#X connect 2 0 0 0;
#X connect 3 0 0 1;
#X connect 6 2 4 0;
#X restore 5 205 pd myo_pose;
#X obj -35 235 outlet print;
#N canvas 154 71 345 472 myo_emg 0;
#X obj 13 72 spigot;
#X obj 13 102 routeOSC /emg;
#X obj 13 12 r \$0-myo_osc;
#X obj 52 42 r \$0-tglmyo_emg;
#X obj 13 428 outlet print;
#X obj 33 142 unpack s f f f f f f f f f;
#X obj 72 392 s \$0-myo_emg_1;
#X obj 92 362 s \$0-myo_emg_2;
#X obj 112 332 s \$0-myo_emg_3;
#X obj 132 302 s \$0-myo_emg_4;
#X obj 152 272 s \$0-myo_emg_5;
#X obj 172 242 s \$0-myo_emg_6;
#X obj 192 212 s \$0-myo_emg_7;
#X obj 212 182 s \$0-myo_emg_8;
#X connect 0 0 1 0;
#X connect 1 0 4 0;
#X connect 1 0 5 0;
#X connect 2 0 0 0;
#X connect 3 0 0 1;
#X connect 5 2 6 0;
#X connect 5 3 7 0;
#X connect 5 4 8 0;
#X connect 5 5 9 0;
#X connect 5 6 10 0;
#X connect 5 7 11 0;
#X connect 5 8 12 0;
#X connect 5 9 13 0;
#X restore -25 115 pd myo_emg;
#N canvas 897 23 637 557 plot_myo_display 0;
#N canvas 682 57 634 678 plot_myo 0;
#X obj 0 -95 r \$0-plot_myo;
#X obj 1 29 cnv 15 204 500 empty empty EMG 88 12 0 14 -128992 -262144
0;
#X obj 3 52 cnv 15 200 474 empty empty empty 88 12 0 14 -262144 -262144
0;
#N canvas 780 112 215 497 plot_myo_emg_display 0;
#N canvas 625 22 619 850 plot_myo_emg 0;
#N canvas 392 67 899 670 plotter_8 0;
#X floatatom 0 44 5 0 0 0 - - -;
#X obj -110 73 metro 10;
#X obj -110 -27 tgl 15 0 empty empty empty 17 7 0 10 -262144 -1 -1
0 1;
#X obj 100 123 write_table;
#X obj -110 -56 inlet onoff;
#X obj 353 -56 inlet;
#X obj 403 -56 inlet;
#X obj 453 -56 inlet;
#X obj 503 -56 inlet;
#X obj 553 -56 inlet;
#X obj 603 -56 inlet;
#X obj 653 -56 inlet;
#X obj 703 -56 inlet;
#X obj 100 183 write_table;
#X obj 100 243 write_table;
#X obj 100 303 write_table;
#X obj 100 363 write_table;
#X obj 100 423 write_table;
#X obj 100 483 write_table;
#X obj 100 543 write_table;
#X obj 0 -56 inlet rate;
#X obj -90 3 select 1;
#X connect 0 0 1 1;
#X connect 1 0 3 0;
#X connect 1 0 13 0;
#X connect 1 0 14 0;
#X connect 1 0 15 0;
#X connect 1 0 16 0;
#X connect 1 0 17 0;
#X connect 1 0 18 0;
#X connect 1 0 19 0;
#X connect 2 0 1 0;
#X connect 2 0 21 0;
#X connect 4 0 2 0;
#X connect 5 0 3 1;
#X connect 6 0 13 1;
#X connect 7 0 14 1;
#X connect 8 0 15 1;
#X connect 9 0 16 1;
#X connect 10 0 17 1;
#X connect 11 0 18 1;
#X connect 12 0 19 1;
#X connect 20 0 0 0;
#X connect 21 0 0 0;
#X coords 0 -1 1 1 200 494 1 100 100;
#X restore 0 -21 pd plotter_8;
#X obj 142 -85 spigot;
#X obj 192 -85 spigot;
#X obj 242 -85 spigot;
#X obj 292 -85 spigot;
#X obj 342 -85 spigot;
#X obj 392 -85 spigot;
#X obj 442 -85 spigot;
#X obj 492 -85 spigot;
#X obj 492 -135 r \$0-myo_emg_8;
#X obj 472 -165 r \$0-myo_emg_7;
#X obj 452 -195 r \$0-myo_emg_6;
#X obj 432 -225 r \$0-myo_emg_5;
#X obj 422 -255 r \$0-myo_emg_4;
#X obj 402 -285 r \$0-myo_emg_3;
#X obj 382 -315 r \$0-myo_emg_2;
#X obj 361 -346 r \$0-myo_emg_1;
#X obj 21 -151 r \$0-rt_rate;
#X obj 21 -121 select 0 1 2;
#X msg 61 -85 100;
#X msg 21 -85 250;
#X msg 101 -85 10;
#N canvas 0 22 231 309 enable_plot_myo_emg 0;
#X obj 90 -82 t b f;
#X obj 40 -142 t b f;
#X obj 10 -32 expr $f1 + $f2 + $f3;
#X obj 10 -2 select 3;
#X msg 10 28 1;
#X msg 63 28 0;
#X obj 10 68 outlet;
#X obj 10 -202 r \$0-plot_myo;
#X obj 40 -172 r \$0-onoff_myo;
#X obj 90 -112 r \$0-tglmyo_emg;
#X connect 0 0 2 0;
#X connect 0 1 2 2;
#X connect 1 0 2 0;
#X connect 1 1 2 1;
#X connect 2 0 3 0;
#X connect 3 0 4 0;
#X connect 3 1 5 0;
#X connect 4 0 6 0;
#X connect 5 0 6 0;
#X connect 7 0 2 0;
#X connect 8 0 1 0;
#X connect 9 0 0 0;
#X restore 0 -346 pd enable_plot_myo_emg;
#X connect 1 0 0 2;
#X connect 2 0 0 3;
#X connect 3 0 0 4;
#X connect 4 0 0 5;
#X connect 5 0 0 6;
#X connect 6 0 0 7;
#X connect 7 0 0 8;
#X connect 8 0 0 9;
#X connect 9 0 8 0;
#X connect 10 0 7 0;
#X connect 11 0 6 0;
#X connect 12 0 5 0;
#X connect 13 0 4 0;
#X connect 14 0 3 0;
#X connect 15 0 2 0;
#X connect 16 0 1 0;
#X connect 17 0 18 0;
#X connect 18 0 20 0;
#X connect 18 1 19 0;
#X connect 18 2 21 0;
#X connect 19 0 0 1;
#X connect 20 0 0 1;
#X connect 21 0 0 1;
#X connect 22 0 0 0;
#X connect 22 0 1 1;
#X connect 22 0 2 1;
#X connect 22 0 3 1;
#X connect 22 0 4 1;
#X connect 22 0 5 1;
#X connect 22 0 6 1;
#X connect 22 0 7 1;
#X connect 22 0 8 1;
#X coords 0 -1 1 1 200 474 2 0 0;
#X restore 0 0 pd plot_myo_emg;
#X coords 0 -1 1 1 200 474 2 0 0;
#X restore 3 52 pd plot_myo_emg_display;
#X obj 1 1 cnv 15 620 25 empty empty Myo 298 12 0 14 -128992 -262144
0;
#X obj 209 29 cnv 15 204 200 empty empty acceleration 54 12 0 14 -128992
-262144 0;
#X obj 211 52 cnv 15 200 174 empty empty empty 88 12 0 14 -262144 -262144
0;
#N canvas 860 106 210 186 plot_myo_accel_display 0;
#N canvas 362 22 396 472 plot_myo_accel 0;
#X obj 179 -151 spigot;
#X obj 229 -151 spigot;
#X obj 279 -151 spigot;
#X obj 48 -151 r \$0-rt_rate;
#X obj 48 -121 select 0 1 2;
#X msg 88 -85 100;
#X msg 48 -85 250;
#X msg 128 -85 10;
#N canvas 392 67 506 359 plotter_3 0;
#X floatatom 130 44 5 0 0 0 - - -;
#X obj 20 73 metro 10;
#X obj 20 -27 tgl 15 0 empty empty empty 17 7 0 10 -262144 -1 -1 0
1;
#X obj 100 123 write_table;
#X obj 20 -56 inlet onoff;
#X obj 100 183 write_table;
#X obj 100 243 write_table;
#X obj 130 -56 inlet rate;
#X obj 40 3 select 1;
#X obj 353 -56 inlet;
#X obj 403 -56 inlet;
#X obj 453 -56 inlet;
#X connect 0 0 1 1;
#X connect 1 0 3 0;
#X connect 1 0 5 0;
#X connect 1 0 6 0;
#X connect 2 0 1 0;
#X connect 2 0 8 0;
#X connect 4 0 2 0;
#X connect 7 0 0 0;
#X connect 8 0 0 0;
#X connect 9 0 3 1;
#X connect 10 0 5 1;
#X connect 11 0 6 1;
#X coords 0 -1 1 1 200 194 2 100 100;
#X restore 0 -21 pd plotter_3;
#X obj 279 -225 r \$0-myo_acc_z;
#X obj 229 -255 r \$0-myo_acc_y;
#X obj 179 -286 r \$0-myo_acc_x;
#X obj 179 -85 * 10;
#X obj 229 -85 * 10;
#X obj 279 -85 * 10;
#N canvas 0 22 231 309 enable_plot_myo_accel 0;
#X obj 90 -82 t b f;
#X obj 40 -142 t b f;
#X obj 10 -32 expr $f1 + $f2 + $f3;
#X obj 10 -2 select 3;
#X msg 10 28 1;
#X msg 63 28 0;
#X obj 10 68 outlet;
#X obj 90 -112 r \$0-tglmyo_accel;
#X obj 10 -202 r \$0-plot_myo;
#X obj 40 -172 r \$0-onoff_myo;
#X connect 0 0 2 0;
#X connect 0 1 2 2;
#X connect 1 0 2 0;
#X connect 1 1 2 1;
#X connect 2 0 3 0;
#X connect 3 0 4 0;
#X connect 3 1 5 0;
#X connect 4 0 6 0;
#X connect 5 0 6 0;
#X connect 7 0 0 0;
#X connect 8 0 2 0;
#X connect 9 0 1 0;
#X restore 0 -286 pd enable_plot_myo_accel;
#X connect 0 0 12 0;
#X connect 1 0 13 0;
#X connect 2 0 14 0;
#X connect 3 0 4 0;
#X connect 4 0 6 0;
#X connect 4 1 5 0;
#X connect 4 2 7 0;
#X connect 5 0 8 1;
#X connect 6 0 8 1;
#X connect 7 0 8 1;
#X connect 9 0 2 0;
#X connect 10 0 1 0;
#X connect 11 0 0 0;
#X connect 12 0 8 2;
#X connect 13 0 8 3;
#X connect 14 0 8 4;
#X connect 15 0 0 1;
#X connect 15 0 1 1;
#X connect 15 0 2 1;
#X connect 15 0 8 0;
#X coords 0 -1 1 1 200 174 2 0 0;
#X restore 0 0 pd plot_myo_accel;
#X coords 0 -1 1 1 200 174 2 0 0;
#X restore 211 52 pd plot_myo_accel_display;
#X msg 0 -56 \; pd-plot_myo_display vis \$1;
#X obj 209 233 cnv 15 204 200 empty empty gyroscope 64 12 0 14 -128992
-262144 0;
#X obj 211 256 cnv 15 200 174 empty empty empty 88 12 0 14 -262144
-262144 0;
#N canvas 1224 22 210 186 plot_myo_gyro_display 0;
#N canvas 1033 22 396 471 plot_myo_gyro 0;
#X obj 179 -151 spigot;
#X obj 229 -151 spigot;
#X obj 279 -151 spigot;
#X obj 48 -151 r \$0-rt_rate;
#X obj 48 -121 select 0 1 2;
#X msg 88 -85 100;
#X msg 48 -85 250;
#X msg 128 -85 10;
#N canvas 392 67 506 359 plotter_3 0;
#X floatatom 130 44 5 0 0 0 - - -;
#X obj 20 73 metro 10;
#X obj 20 -27 tgl 15 0 empty empty empty 17 7 0 10 -262144 -1 -1 0
1;
#X obj 100 123 write_table;
#X obj 20 -56 inlet onoff;
#X obj 100 183 write_table;
#X obj 100 243 write_table;
#X obj 130 -56 inlet rate;
#X obj 40 3 select 1;
#X obj 353 -56 inlet;
#X obj 403 -56 inlet;
#X obj 453 -56 inlet;
#X connect 0 0 1 1;
#X connect 1 0 3 0;
#X connect 1 0 5 0;
#X connect 1 0 6 0;
#X connect 2 0 1 0;
#X connect 2 0 8 0;
#X connect 4 0 2 0;
#X connect 7 0 0 0;
#X connect 8 0 0 0;
#X connect 9 0 3 1;
#X connect 10 0 5 1;
#X connect 11 0 6 1;
#X coords 0 -1 1 1 200 194 2 100 100;
#X restore 0 -21 pd plotter_3;
#X obj 179 -286 r \$0-myo_gyr_x;
#X obj 229 -255 r \$0-myo_gyr_y;
#X obj 279 -225 r \$0-myo_gyr_z;
#X obj 179 -85 / 4;
#X obj 229 -85 / 4;
#X obj 279 -85 / 4;
#N canvas 0 22 231 309 enable_plot_myo_gyro 0;
#X obj 90 -82 t b f;
#X obj 40 -142 t b f;
#X obj 10 -32 expr $f1 + $f2 + $f3;
#X obj 10 -2 select 3;
#X msg 10 28 1;
#X msg 63 28 0;
#X obj 10 68 outlet;
#X obj 10 -202 r \$0-plot_myo;
#X obj 40 -172 r \$0-onoff_myo;
#X obj 90 -112 r \$0-tglmyo_gyro;
#X connect 0 0 2 0;
#X connect 0 1 2 2;
#X connect 1 0 2 0;
#X connect 1 1 2 1;
#X connect 2 0 3 0;
#X connect 3 0 4 0;
#X connect 3 1 5 0;
#X connect 4 0 6 0;
#X connect 5 0 6 0;
#X connect 7 0 2 0;
#X connect 8 0 1 0;
#X connect 9 0 0 0;
#X restore 0 -286 pd enable_plot_myo_gyro;
#X connect 0 0 12 0;
#X connect 1 0 13 0;
#X connect 2 0 14 0;
#X connect 3 0 4 0;
#X connect 4 0 6 0;
#X connect 4 1 5 0;
#X connect 4 2 7 0;
#X connect 5 0 8 1;
#X connect 6 0 8 1;
#X connect 7 0 8 1;
#X connect 9 0 0 0;
#X connect 10 0 1 0;
#X connect 11 0 2 0;
#X connect 12 0 8 2;
#X connect 13 0 8 3;
#X connect 14 0 8 4;
#X connect 15 0 8 0;
#X connect 15 0 0 1;
#X connect 15 0 1 1;
#X connect 15 0 2 1;
#X coords 0 -1 1 1 200 174 2 0 0;
#X restore 0 0 pd plot_myo_gyro;
#X coords 0 -1 1 1 200 174 2 0 0;
#X restore 211 256 pd plot_myo_gyro_display;
#X obj 417 29 cnv 15 204 200 empty empty orientation 56 12 0 14 -128992
-262144 0;
#X obj 419 52 cnv 15 200 174 empty empty empty 88 12 0 14 -262144 -262144
0;
#N canvas 1005 150 210 186 plot_myo_orient_display 0;
#N canvas 737 22 414 496 plot_myo_orient 0;
#X obj 179 -151 spigot;
#X obj 229 -151 spigot;
#X obj 279 -151 spigot;
#X obj 48 -151 r \$0-rt_rate;
#X obj 48 -121 select 0 1 2;
#X msg 88 -85 100;
#X msg 48 -85 250;
#X msg 128 -85 10;
#N canvas 392 67 506 359 plotter_3 0;
#X floatatom 130 44 5 0 0 0 - - -;
#X obj 20 73 metro 10;
#X obj 20 -27 tgl 15 0 empty empty empty 17 7 0 10 -262144 -1 -1 0
1;
#X obj 100 123 write_table;
#X obj 20 -56 inlet onoff;
#X obj 100 183 write_table;
#X obj 100 243 write_table;
#X obj 130 -56 inlet rate;
#X obj 40 3 select 1;
#X obj 353 -56 inlet;
#X obj 403 -56 inlet;
#X obj 453 -56 inlet;
#X connect 0 0 1 1;
#X connect 1 0 3 0;
#X connect 1 0 5 0;
#X connect 1 0 6 0;
#X connect 2 0 1 0;
#X connect 2 0 8 0;
#X connect 4 0 2 0;
#X connect 7 0 0 0;
#X connect 8 0 0 0;
#X connect 9 0 3 1;
#X connect 10 0 5 1;
#X connect 11 0 6 1;
#X coords 0 -1 1 1 200 194 2 100 100;
#X restore 0 -21 pd plotter_3;
#X obj 179 -256 r \$0-myo_ori_y;
#X obj 229 -225 r \$0-myo_ori_p;
#X obj 279 -195 r \$0-myo_ori_r;
#X obj 279 -85 * 100;
#X obj 229 -85 * 100;
#X obj 179 -85 * 100;
#N canvas 0 22 231 309 enable_plot_myo_orient 0;
#X obj 90 -82 t b f;
#X obj 40 -142 t b f;
#X obj 10 -32 expr $f1 + $f2 + $f3;
#X obj 10 -2 select 3;
#X msg 10 28 1;
#X msg 63 28 0;
#X obj 10 68 outlet;
#X obj 10 -202 r \$0-plot_myo;
#X obj 40 -172 r \$0-onoff_myo;
#X obj 90 -112 r \$0-tglmyo_orient;
#X connect 0 0 2 0;
#X connect 0 1 2 2;
#X connect 1 0 2 0;
#X connect 1 1 2 1;
#X connect 2 0 3 0;
#X connect 3 0 4 0;
#X connect 3 1 5 0;
#X connect 4 0 6 0;
#X connect 5 0 6 0;
#X connect 7 0 2 0;
#X connect 8 0 1 0;
#X connect 9 0 0 0;
#X restore 0 -286 pd enable_plot_myo_orient;
#X connect 0 0 14 0;
#X connect 1 0 13 0;
#X connect 2 0 12 0;
#X connect 3 0 4 0;
#X connect 4 0 6 0;
#X connect 4 1 5 0;
#X connect 4 2 7 0;
#X connect 5 0 8 1;
#X connect 6 0 8 1;
#X connect 7 0 8 1;
#X connect 9 0 0 0;
#X connect 10 0 1 0;
#X connect 11 0 2 0;
#X connect 12 0 8 4;
#X connect 13 0 8 3;
#X connect 14 0 8 2;
#X connect 15 0 8 0;
#X connect 15 0 0 1;
#X connect 15 0 1 1;
#X connect 15 0 2 1;
#X coords 0 -1 1 1 200 174 2 0 0;
#X restore 0 0 pd plot_myo_orient;
#X coords 0 -1 1 1 200 174 2 0 0;
#X restore 419 52 pd plot_myo_orient_display;
#X obj 417 232 cnv 15 204 52 empty empty pose 84 12 0 14 -128992 -262144
0;
#N canvas 887 302 314 223 plot_myo_pose_display 0;
#X msg 1 -79 label \$1;
#X obj 221 -119 loadbang;
#X msg 141 -79 label;
#X obj 141 -119 select 0;
#X obj 1 -119 spigot;
#X obj 1 1 cnv 15 198 24 empty \$0-myo_pose_display empty 2 12 0 14
-262144 -99865 0;
#X obj 71 -39 s \$0-myo_pose_display;
#N canvas 236 22 231 309 enable_plot_myo_pose 0;
#X obj 90 -82 t b f;
#X obj 40 -142 t b f;
#X obj 10 -32 expr $f1 + $f2 + $f3;
#X obj 10 -2 select 3;
#X msg 10 28 1;
#X msg 63 28 0;
#X obj 10 68 outlet;
#X obj 10 -202 r \$0-plot_myo;
#X obj 40 -172 r \$0-onoff_myo;
#X obj 90 -112 r \$0-tglmyo_pose;
#X connect 0 0 2 0;
#X connect 0 1 2 2;
#X connect 1 0 2 0;
#X connect 1 1 2 1;
#X connect 2 0 3 0;
#X connect 3 0 4 0;
#X connect 3 1 5 0;
#X connect 4 0 6 0;
#X connect 5 0 6 0;
#X connect 7 0 2 0;
#X connect 8 0 1 0;
#X connect 9 0 0 0;
#X restore 141 -169 pd enable_plot_myo_pose;
#X obj 1 -169 r \$0-myo_pose;
#X connect 0 0 6 0;
#X connect 1 0 2 0;
#X connect 2 0 6 0;
#X connect 3 0 2 0;
#X connect 4 0 0 0;
#X connect 7 0 4 1;
#X connect 7 0 3 0;
#X connect 8 0 4 0;
#X coords 0 -1 1 1 200 26 2 0 0;
#X restore 419 256 pd plot_myo_pose_display;
#X connect 0 0 8 0;
#X coords 0 -1 1 1 622 530 2 0 0;
#X restore 4 -452 pd plot_myo;
#X restore -35 45 pd plot_myo_display;
#X connect 0 0 1 0;
#X connect 1 0 2 0;
#X connect 3 0 7 0;
#X connect 4 0 7 0;
#X connect 5 0 7 0;
#X connect 6 0 7 0;
#X connect 8 0 7 0;
#X restore 157 64 pd OSC_Myo;
#X obj 280 -27 r \$0-oscport_myo_snd;
#X obj -133 -27 r \$0-onoff_wii;
#N canvas 105 34 482 310 udp_receive_wii 0;
#X obj 198 205 outlet;
#X msg -154 135 clear;
#X msg -44 -15 set \$1;
#X obj -44 15 t a a;
#X obj -124 75 bng 15 250 50 0 empty empty empty 17 7 0 10 -262144
-1 -1;
#X obj -154 -15 route 0 1;
#X msg -124 105 5600;
#X obj -154 -45 inlet on/off;
#X obj -44 -45 inlet port;
#X obj -102 176 s pd-\$0-udp_wii_prov;
#N canvas 1085 386 147 94 \$0-udp_wii_prov 0;
#X restore -102 206 pd \$0-udp_wii_prov;
#X msg -102 135 clear \, obj 1 1 udpreceive \$1 \, obj 1 50 send udprecout_wii
\, connect 0 0 1 0;
#X obj 198 176 r udprecout_wii;
#X connect 1 0 9 0;
#X connect 2 0 3 0;
#X connect 3 0 4 0;
#X connect 3 1 6 0;
#X connect 4 0 6 0;
#X connect 5 0 1 0;
#X connect 5 1 4 0;
#X connect 6 0 11 0;
#X connect 7 0 5 0;
#X connect 8 0 2 0;
#X connect 11 0 9 0;
#X connect 12 0 0 0;
#X restore -133 4 pd udp_receive_wii;
#N canvas 168 23 469 292 udp_receive_myo 0;
#X obj 198 205 outlet;
#X msg -154 135 clear;
#X msg -44 -15 set \$1;
#X obj -44 15 t a a;
#X obj -124 75 bng 15 250 50 0 empty empty empty 17 7 0 10 -262144
-1 -1;
#X obj -154 -15 route 0 1;
#X msg -124 105 7777;
#X obj -154 -45 inlet on/off;
#X obj -44 -45 inlet port;
#X msg -102 135 clear \, obj 1 1 udpreceive \$1 \, obj 1 50 send udprecout_myo
\, connect 0 0 1 0;
#X obj -102 176 s pd-\$0-udp_myo_prov;
#N canvas 1237 172 147 94 \$0-udp_myo_prov 0;
#X restore -102 206 pd \$0-udp_myo_prov;
#X obj 198 176 r udprecout_myo;
#X connect 1 0 10 0;
#X connect 2 0 3 0;
#X connect 3 0 4 0;
#X connect 3 1 6 0;
#X connect 4 0 6 0;
#X connect 5 0 1 0;
#X connect 5 1 4 0;
#X connect 6 0 9 0;
#X connect 7 0 5 0;
#X connect 8 0 2 0;
#X connect 9 0 10 0;
#X connect 12 0 0 0;
#X restore 157 4 pd udp_receive_myo;
#N canvas 906 23 342 200 OSC_sync 0;
#X obj -40 72 s \$0-osc_sync_trig;
#X obj -40 -78 inlet OSC messages;
#X obj -40 -48 routeOSC /qtm;
#X obj -40 2 routeOSC /event;
#X obj 100 2 routeOSC /cmd_res;
#N canvas 500 22 359 392 start/stop_sync 0;
#X obj 9 35 strcmp;
#X obj 89 205 outlet;
#X msg 48 -55 list Capture Started;
#X obj 89 35 strcmp;
#X obj 9 65 select 0;
#X obj 48 -85 loadbang;
#X obj 89 65 select 0;
#X obj 9 -145 inlet;
#X obj 9 -115 symbol;
#X obj 9 -85 s2l;
#X msg 128 5 list Camera Settings Changed;
#X msg 184 35 list Capture Stopped;
#X obj 89 145 spigot;
#X msg 89 175 0;
#X msg 9 95 1;
#X obj 128 -25 loadbang;
#X msg 198 65 list Capture Saved;
#X connect 0 0 4 0;
#X connect 2 0 0 1;
#X connect 3 0 6 0;
#X connect 4 0 14 0;
#X connect 5 0 2 0;
#X connect 6 0 12 0;
#X connect 7 0 8 0;
#X connect 8 0 9 0;
#X connect 9 0 0 0;
#X connect 9 0 3 0;
#X connect 10 0 3 1;
#X connect 12 0 13 0;
#X connect 13 0 1 0;
#X connect 13 0 12 1;
#X connect 14 0 1 0;
#X connect 14 0 12 1;
#X connect 15 0 10 0;
#X restore -40 42 pd start/stop_sync;
#X obj 100 72 s \$0-QS_cmd_res_disp_rcv;
#X obj 100 42 l2s;
#N canvas 180 23 330 645 connection_tests 0;
#X obj 81 -18 inlet;
#X obj -2 570 outlet;
#X obj 81 222 spigot;
#X msg 120 172 1;
#X obj -2 172 bang;
#X msg -2 550 set \$1;
#X obj -2 520 l2s;
#X msg 160 172 0;
#X obj -2 280 spigot;
#X msg 81 250 0;
#X obj 81 52 bang;
#X obj -2 222 delay 2000;
#X obj 159 82 r \$0-onoff_oscsync;
#X obj 120 52 r \$0-QS_getversion_snd;
#X obj 120 112 spigot;
#X obj 18 420 r \$0-sync_udpsend_status;
#X obj 18 450 select 0;
#X text 21 392 Inform when disconnected:;
#X text 91 22 Check if receiving OSC from QTM:;
#X msg 78 310 1;
#X msg 118 310 0;
#X obj 106 350 s \$0-check_QTM_warning;
#X msg -2 490 QTM RT Interface disconnected;
#X connect 0 0 10 0;
#X connect 2 0 9 0;
#X connect 3 0 2 1;
#X connect 3 0 8 1;
#X connect 4 0 11 0;
#X connect 5 0 1 0;
#X connect 6 0 5 0;
#X connect 7 0 2 1;
#X connect 8 0 22 0;
#X connect 8 0 19 0;
#X connect 9 0 8 1;
#X connect 10 0 2 0;
#X connect 10 0 20 0;
#X connect 11 0 8 0;
#X connect 11 0 7 0;
#X connect 12 0 14 1;
#X connect 13 0 14 0;
#X connect 14 0 3 0;
#X connect 14 0 4 0;
#X connect 15 0 16 0;
#X connect 16 0 22 0;
#X connect 19 0 21 0;
#X connect 20 0 21 0;
#X connect 22 0 6 0;
#X restore 140 42 pd connection_tests;
#X connect 1 0 2 0;
#X connect 2 0 3 0;
#X connect 2 0 4 0;
#X connect 3 0 5 0;
#X connect 4 0 7 0;
#X connect 4 0 8 0;
#X connect 5 0 0 0;
#X connect 7 0 6 0;
#X connect 8 0 6 0;
#X restore 447 64 pd OSC_sync;
#X obj 157 -27 r \$0-onoff_myo;
#N canvas 295 22 412 143 print_data 0;
#X obj 120 113 print;
#X obj 98 22 r \$0-print_wii;
#X obj 298 22 r \$0-print_myo;
#X obj 20 22 inlet wii;
#X obj 220 22 inlet Myo;
#X obj 20 62 spigot;
#X obj 220 63 spigot;
#X connect 1 0 5 1;
#X connect 2 0 6 1;
#X connect 3 0 5 0;
#X connect 4 0 6 0;
#X connect 5 0 0 0;
#X connect 6 0 0 0;
#X restore -3 114 pd print_data;
#N canvas 451 22 1010 637 udp_send-receive_qualisys_sync 0;
#X obj -102 275 outlet;
#X msg -154 135 clear;
#X msg -4 -15 set \$1;
#X obj -154 -15 route 0 1;
#X msg -124 105 7000;
#X obj -102 176 s pd-\$0-udp_sync_prov;
#N canvas 1237 172 147 94 \$0-udp_sync_prov 0;
#X obj 1 1 udpreceive 7000;
#X obj 1 50 send udprecout_sync;
#X connect 0 0 1 0;
#X restore -102 206 pd \$0-udp_sync_prov;
#X obj -102 246 r udprecout_sync;
#X msg -102 135 clear \, obj 1 1 udpreceive \$1 \, obj 1 50 send udprecout_sync
\, connect 0 0 1 0;
#X obj 346 496 udpsend;
#X obj 376 426 packOSC;
#X msg 445 427 disconnect;
#X msg 577 196 send /qtm disconnect;
#X msg 572 352 send /qtm Version;
#X msg 376 356 send /qtm connect \$1;
#X msg 376 326 7000;
#X obj -154 -45 r \$0-onoff_oscsync;
#X obj 576 -45 r \$0-onoff_oscsync;
#X obj -4 -45 r \$0-syncport_snd;
#X obj 545 156 t b b;
#X obj 545 386 delay 500;
#X msg 548 536 connect 192.168.1.1 22225;
#X msg 346 156 connect \$2 \$3;
#X obj 346 126 spigot;
#X obj 413 -14 r \$0-QS_commport_snd;
#X obj 346 -44 r \$0-QS_ip_snd;
#X obj 346 -14 t b s;
#X obj 413 16 t b f;
#X obj 576 -15 t f f;
#X obj 572 322 r \$0-QS_getversion_snd;
#X text 544 512 defaults:;
#X obj -102 386 f \$0;
#N canvas 654 23 241 315 \$0-qs_settings 0;
#N canvas 718 25 250 349 \$0-qs_settings_SUB 0;
#X obj 1 1 cnv 15 223 288 empty empty empty 88 12 0 12 -233280 -86853
0;
#X text 5 6 Real-time Qualisys Tracker;
#X floatatom 7 108 6 0 0 0 - #0-QS_commport_rcv #0-QS_commport_snd
;
#X symbolatom 7 148 16 0 0 0 - #0-QS_ip_rcv #0-QS_ip_snd;
#X text 5 26 Recording Start/Stop Settings;
#X symbolatom 7 237 30 0 0 0 - #0-QS_cmd_res_disp_rcv #0-QS_cmd_res_disp_snd
;
#X obj 7 262 bng 15 250 50 0 \$0-QS_getversion_snd \$0-QS_getversion_rcv
empty 17 7 0 10 -228856 -1 -1;
#X floatatom 7 68 5 0 0 0 - #0-syncport_2_rcv #0-syncport_2_snd;
#X text 59 68 local receiving port;
#X text 59 108 send to Qualisys port;
#X text 129 148 Qualisys IP;
#X obj 7 188 cnv 15 28 28 empty empty empty 20 12 0 14 -191407 -66577
0;
#X obj 9 190 cnv 18 24 24 empty \$0-sync_status_disp . -17 -19 0 100
-24198 -24198 0;
#X text 39 199 Black/Red: Not connected;
#N canvas 78 394 424 355 sync_status_display 0;
#X obj 127 307 s \$0-sync_status_disp;
#X msg 285 217 color 16 16;
#X msg 25 217 color 13 13;
#X msg 127 217 color 22 22;
#N canvas 446 362 133 200 alternator_2 0;
#X obj -21 5 tgl 15 0 empty empty empty 17 7 0 10 -262144 -1 -1 0 1
;
#X obj -21 106 outlet;
#X obj 37 106 outlet;
#X obj -21 -26 metro 250;
#X obj -21 35 route 1;
#X obj -21 -56 inlet tgl;
#X obj -21 65 bang;
#X obj 25 65 bang;
#X connect 0 0 4 0;
#X connect 3 0 0 0;
#X connect 4 0 6 0;
#X connect 4 1 7 0;
#X connect 5 0 3 0;
#X connect 6 0 1 0;
#X connect 7 0 2 0;
#X restore 25 137 pd alternator_2;
#X obj 285 107 select 0;
#X obj 285 137 delay 100;
#X text 304 199 green;
#X text 147 199 black;
#X text 50 199 red;
#X obj 120 7 r \$0-check_QTM_warning;
#X obj -21 6 r \$0-onoff_oscsync;
#X obj -21 36 select 0;
#X msg -21 96 0;
#X obj 168 137 delay 100;
#X obj 168 106 loadbang;
#X connect 1 0 0 0;
#X connect 2 0 0 0;
#X connect 3 0 0 0;
#X connect 4 0 2 0;
#X connect 4 1 3 0;
#X connect 5 0 6 0;
#X connect 6 0 1 0;
#X connect 10 0 4 0;
#X connect 10 0 5 0;
#X connect 11 0 12 0;
#X connect 12 0 13 0;
#X connect 12 0 14 0;
#X connect 13 0 4 0;
#X connect 14 0 3 0;
#X connect 15 0 14 0;
#X restore 7 304 pd sync_status_display;
#X text 25 260 check QTM connection;
#X text 39 185 Green: Connected;
#X coords 0 -1 1 1 225 290 2 0 0;
#X restore -131 2 pd \$0-qs_settings_SUB;
#X restore -102 515 pd \$0-qs_settings;
#X obj -102 326 r \$0-onoff_oscsync;
#X obj 545 126 spigot;
#X msg 445 497 0;
#X obj 445 467 loadbang;
#X obj 346 86 pack f s f;
#X obj 386 216 r \$0-syncport_2_snd;
#X msg 376 246 set \$1;
#X obj 376 276 t b a;
#X obj -4 15 t b a;
#X obj 231 20 bng 15 250 50 0 empty empty connect! 17 7 0 10 -262144
-1 -1;
#X obj 576 35 select 1;
#X obj 160 246 r \$0-sync_udpsend_status;
#X obj 346 536 s \$0-sync_udpsend_status;
#X obj 666 35 r \$0-sync_udpsend_status;
#X obj 376 186 r \$0-syncport_snd;
#X obj 316 536 tgl 15 0 empty empty empty 17 7 0 10 -262144 -1 -1 1
1;
#X obj 160 276 select 1;
#X obj -102 416 pack f f;
#X msg -102 446 \; pd-\$1-qs_settings vis \$2;
#X obj -102 356 t b f;
#X connect 1 0 5 0;
#X connect 2 0 41 0;
#X connect 3 0 1 0;
#X connect 3 1 4 0;
#X connect 4 0 8 0;
#X connect 7 0 0 0;
#X connect 8 0 5 0;
#X connect 9 0 45 0;
#X connect 9 0 48 0;
#X connect 10 0 9 0;
#X connect 11 0 9 0;
#X connect 12 0 10 0;
#X connect 13 0 10 0;
#X connect 14 0 10 0;
#X connect 15 0 14 0;
#X connect 16 0 3 0;
#X connect 17 0 28 0;
#X connect 18 0 2 0;
#X connect 19 0 20 0;
#X connect 19 1 12 0;
#X connect 20 0 11 0;
#X connect 22 0 9 0;
#X connect 23 0 22 0;
#X connect 24 0 27 0;
#X connect 25 0 26 0;
#X connect 26 0 37 0;
#X connect 26 1 37 1;
#X connect 27 0 37 0;
#X connect 27 1 37 2;
#X connect 28 0 43 0;
#X connect 28 1 23 1;
#X connect 29 0 13 0;
#X connect 31 0 50 0;
#X connect 33 0 52 0;
#X connect 34 0 19 0;
#X connect 35 0 45 0;
#X connect 36 0 35 0;
#X connect 37 0 23 0;
#X connect 38 0 39 0;
#X connect 39 0 40 0;
#X connect 40 0 15 0;
#X connect 40 1 15 0;
#X connect 41 0 4 0;
#X connect 41 1 4 0;
#X connect 42 0 37 0;
#X connect 43 0 37 0;
#X connect 43 1 34 0;
#X connect 44 0 49 0;
#X connect 46 0 34 1;
#X connect 47 0 39 0;
#X connect 49 0 15 0;
#X connect 50 0 51 0;
#X connect 52 0 31 0;
#X connect 52 1 50 1;
#X restore 447 4 pd udp_send-receive_qualisys_sync;
#X connect 0 0 1 0;
#X connect 1 0 12 0;
#X connect 2 0 10 0;
#X connect 3 0 8 1;
#X connect 4 0 5 0;
#X connect 5 0 12 1;
#X connect 6 0 9 1;
#X connect 7 0 8 0;
#X connect 8 0 0 0;
#X connect 9 0 4 0;
#X connect 11 0 9 0;
#X connect 13 0 2 0;
#X restore 359 123 pd UDP_OSC W_M_A;
#X text 352 391 DATA RECORDING;
#X text 34 373 5) click to start recording;
#X obj 275 373 bng 21 250 50 0 \$0-start_rec_gui \$0-noreceive empty
17 7 0 10 -4034 -1 -1;
#X text 54 393 (or use external trigger);
#X text 54 463 (or use external trigger);
#X obj 3 186 cnv 2 336 2 empty empty empty 20 12 0 14 -1 -66577 0;
#X obj 3 77 cnv 2 336 2 empty empty empty 20 12 0 14 -191407 -66577
0;
#X obj 3 75 cnv 2 336 2 empty empty empty 20 12 0 14 -1 -66577 0;
#X obj 182 87 cnv 25 120 26 empty empty empty 38 20 0 18 -233280 -1
0;
#X obj 272 199 cnv 25 30 26 empty empty empty 38 20 0 18 -233280 -1
0;
#X obj 185 90 cnv 10 21 21 empty empty empty 38 20 0 18 -1 -1 0;
#X obj 225 90 cnv 10 21 21 empty empty empty 38 20 0 18 -1 -1 0;
#X obj 265 90 cnv 10 31 21 empty empty empty 38 20 0 18 -1 -1 0;
#X obj 275 201 cnv 10 21 21 empty empty empty 38 20 0 18 -1 -1 0;
#X text 34 256 4) click to set the system ready;
#X obj 40 280 cnv 15 262 66 empty empty empty 20 12 0 14 -1 -66577
0;
#X obj 41 281 cnv 15 260 64 empty empty empty 20 12 0 14 -262130 -66577
0;
#X obj 275 293 cnv 15 21 21 empty empty empty 20 12 0 14 -1 -1 0;
#X obj 276 294 cnv 18 19 19 empty \$0-rec_disp . -20 -22 0 100 -1 -1
0;
#X text 44 283 Green blinking: system ready;
#X text 44 303 Green circle: recording;
#X text 44 323 Red blinking: check (1) \, (2) and (3);
#X obj 3 237 cnv 2 336 1 empty empty empty 20 12 0 14 -1 -66577 0;
#X obj 3 357 cnv 2 336 1 empty empty empty 20 12 0 14 -1 -66577 0;
#X obj 3 137 cnv 2 336 1 empty empty empty 20 12 0 14 -1 -66577 0;
#X obj 3 138 cnv 2 336 2 empty empty empty 20 12 0 14 -191407 -66577
0;
#X obj 3 358 cnv 2 336 2 empty empty empty 20 12 0 14 -191407 -66577
0;
#X obj 3 238 cnv 2 336 2 empty empty empty 20 12 0 14 -191407 -66577
0;
#X obj 3 426 cnv 2 336 1 empty empty empty 20 12 0 14 -1 -66577 0;
#X obj 3 497 cnv 2 336 1 empty empty empty 20 12 0 14 -1 -66577 0;
#X obj 3 427 cnv 2 336 2 empty empty empty 20 12 0 14 -191407 -66577
0;
#X obj 3 498 cnv 2 336 2 empty empty empty 20 12 0 14 -191407 -66577
0;
#X text 352 381 -------------------------;
#X connect 3 0 14 2;
#X connect 4 0 14 1;
#X connect 5 0 12 0;
#X connect 8 0 14 0;
#X connect 15 0 5 0;
#X connect 16 0 8 0;
#X connect 16 0 4 0;
#X connect 16 0 3 0;
#X connect 22 0 16 0;
#X connect 42 0 8 0;
#X connect 42 0 4 0;
#X connect 42 0 3 0;
#X connect 42 0 5 0;
#X coords 0 0 1 1 342 600 1 0 0;
#X restore 6 1 pd engines;
