#N canvas 545 65 1083 622 10;
#X obj -41 261 *~;
#X obj 12 185 line~;
#N canvas 185 178 400 290 limiter 0;
#X obj 24 22 inlet~;
#X msg 121 85 limit 100;
#X obj 121 21 loadbang;
#X obj 24 60 z~ 64;
#X obj 24 169 *~;
#X obj 24 200 outlet~;
#X obj 121 113 limiter~ 10;
#X text 22 245 https://guitarextended.wordpress.com/2013/08/05/making-a-looper-with-pure-data/
;
#X text 22 225 extracted from a patch downloaded from;
#X connect 0 0 3 0;
#X connect 0 0 6 0;
#X connect 1 0 6 0;
#X connect 2 0 1 0;
#X connect 3 0 4 0;
#X connect 4 0 5 0;
#X connect 6 0 4 1;
#X restore -41 291 pd limiter;
#X msg -31 381 start;
#X msg 113 381 stop;
#X obj 752 193 cup;
#X obj 779 313 samplerate~;
#X obj 752 283 t f b;
#N canvas 330 257 467 300 into_blocks 0;
#X obj 173 101 % 64;
#X obj 146 81 t f f;
#X obj 146 59 int;
#X obj 146 17 inlet;
#X obj 146 167 outlet;
#X text 238 67 to be a multiple of the block size.;
#X text 238 49 Force the length of the tables;
#X text 134 261 Pierre Massat \, Guitar extended \, 2013;
#X obj 146 121 +;
#X text 57 118 HACKED ----->;
#X text 56 194 original downloaded from;
#X text 56 214 https://guitarextended.wordpress.com/2013/08/05/making-a-looper-with-pure-data/
;
#X text 210 101 <-- this number is the block size;
#X text 233 117 it should be the same as in the;
#X text 233 134 menu Media - Audio Settings;
#X connect 0 0 8 1;
#X connect 1 0 8 0;
#X connect 1 1 0 0;
#X connect 2 0 1 0;
#X connect 3 0 2 0;
#X connect 8 0 4 0;
#X restore 752 383 pd into_blocks;
#X msg 752 223 set \$1;
#X msg 752 153 0;
#X obj 813 153 metro 1;
#X msg 280 151 0;
#X obj 280 121 delay 50;
#X obj 365 474 bng 15 250 50 0 empty empty empty 17 7 0 10 -159808
-260097 -1;
#N canvas 461 619 450 278 (subpatch) 0;
#X array \$0-buffer1 393262 float 0;
#X coords 0 1 393261 -1 300 50 1 0 0;
#X restore -41 471 graph;
#X obj 235 67 tgl 15 0 empty empty empty 17 7 0 10 -262144 -1 -1 0
1;
#X obj 235 91 select 1;
#X obj 235 41 inlet toggle;
#X text 589 56 |;
#X text 589 131 |;
#X text 589 141 |;
#X text 589 26 |;
#X text 589 36 |;
#X text 589 46 |;
#X text 592 20 -;
#X text 592 144 -;
#X text 589 76 |;
#X text 589 66 |;
#X text 589 96 |;
#X text 589 86 |;
#X text 589 116 |;
#X text 589 106 |;
#X text 587 85 -;
#X text 129 124 execute fade-in;
#X text 129 138 and fade-out;
#X text 898 181 count approximate;
#X text 898 320 convert miliseconds;
#X text 899 340 to sample blocks;
#X obj 752 353 expr ($f1*$f2)/1000;
#X obj 613 63 samplerate~;
#X obj 613 93 expr $f1*240;
#X obj 613 33 bang;
#X text 882 166 |;
#X text 882 261 |;
#X text 880 264 -;
#X text 882 176 |;
#X text 882 186 |;
#X text 884 200 -;
#X text 882 196 |;
#X text 882 206 |;
#X text 882 216 |;
#X text 882 226 |;
#X text 882 236 |;
#X text 882 246 |;
#X text 882 256 |;
#X text 882 156 |;
#X text 882 146 |;
#X text 880 140 -;
#X text 882 296 |;
#X text 882 391 |;
#X text 880 394 -;
#X text 882 306 |;
#X text 882 316 |;
#X text 884 330 -;
#X text 882 326 |;
#X text 882 336 |;
#X text 882 346 |;
#X text 882 356 |;
#X text 882 366 |;
#X text 882 376 |;
#X text 882 386 |;
#X text 882 286 |;
#X text 882 276 |;
#X text 880 270 -;
#X text 589 230 |;
#X text 589 240 |;
#X text 589 250 |;
#X text 589 380 |;
#X text 589 390 |;
#X text 589 410 |;
#X obj 362 315 cnv 15 131 27 empty empty empty 20 12 0 14 -262130 -66577
0;
#X obj 749 408 cnv 15 131 27 empty empty empty 20 12 0 14 -257985 -66577
0;
#X obj 610 118 cnv 15 131 27 empty empty empty 20 12 0 14 -257985 -66577
0;
#X obj 232 216 cnv 15 94 27 empty empty empty 20 12 0 14 -4034 -66577
0;
#X obj 235 221 s \$0-start_rec;
#X obj 749 8 cnv 15 94 27 empty empty empty 20 12 0 14 -204786 -66577
0;
#X obj 752 13 r \$0-start_rec;
#X obj -33 346 cnv 15 94 27 empty empty empty 20 12 0 14 -204786 -66577
0;
#X obj -31 351 r \$0-start_rec;
#X obj 277 176 cnv 15 89 27 empty empty empty 20 12 0 14 -258113 -66577
0;
#X obj 280 181 s \$0-stop_rec;
#X obj 859 8 cnv 15 89 27 empty empty empty 20 12 0 14 -261234 -66577
0;
#X obj 863 13 r \$0-stop_rec;
#X obj 110 346 cnv 15 89 27 empty empty empty 20 12 0 14 -261234 -66577
0;
#X obj 113 351 r \$0-stop_rec;
#X obj 652 219 cnv 15 89 27 empty empty empty 20 12 0 14 -261234 -66577
0;
#X obj 655 224 r \$0-stop_rec;
#X text 589 121 |;
#X text 658 320 |;
#X text 658 330 |;
#X text 658 340 |;
#X text 658 350 |;
#X text 516 320 |;
#X text 516 330 |;
#X text 516 340 |;
#X text 516 350 |;
#X text 214 5 start/stop recording;
#X text -59 26 |;
#X text 7 26 |;
#X text 219 26 |;
#X text 319 25 |;
#X text 115 191 |;
#X text 113 194 -;
#X text 115 116 |;
#X text 117 130 -;
#X text 115 126 |;
#X text 115 136 |;
#X text 115 146 |;
#X text 115 156 |;
#X text 115 186 |;
#X text 115 86 |;
#X text 115 76 |;
#X text 113 70 -;
#X text 234 362 |;
#X text 234 427 |;
#X text 232 430 -;
#X text 234 372 |;
#X text 234 382 |;
#X text 237 384 -;
#X text 234 392 |;
#X text 234 402 |;
#X text 234 412 |;
#X text 234 422 |;
#X text 234 352 |;
#X text 234 342 |;
#X text 232 336 -;
#X text 527 143 4 minutes;
#X text 336 119 <--;
#X text 360 121 give time for;
#X text 360 101 delays the stop to;
#X text 354 146 |;
#X text 354 96 |;
#X text 354 106 |;
#X text 357 90 -;
#X text 357 149 -;
#X text 354 126 |;
#X text 354 116 |;
#X text 354 136 |;
#X text 352 119 -;
#X text 346 595 Juan Ignacio Mendoza - 2015;
#X text 221 19 --------^--------;
#X text -56 20 -----^-----;
#X obj 365 501 pack \$0;
#X obj 365 381 pack \$0 f;
#X obj 365 351 t b f;
#X obj -41 41 inlet~;
#X obj 612 583 outlet~;
#X obj 609 458 cnv 15 94 27 empty empty empty 20 12 0 14 -204786 -66577
0;
#X obj 612 463 r \$0-start_rec;
#X obj 748 458 cnv 15 89 27 empty empty empty 20 12 0 14 -261234 -66577
0;
#X obj 752 463 r \$0-stop_rec;
#X msg 612 493 stop;
#X msg 752 493 bang;
#X text 589 400 |;
#X text 882 476 |;
#X text 882 551 |;
#X text 880 554 -;
#X text 882 486 |;
#X text 882 496 |;
#X text 885 503 -;
#X text 882 506 |;
#X text 882 516 |;
#X text 882 526 |;
#X text 882 536 |;
#X text 882 546 |;
#X text 882 466 |;
#X text 882 456 |;
#X text 880 450 -;
#X text 896 483 Play back;
#X text 896 523 in a loop.;
#X msg 752 253 8917;
#X text 896 503 the tables;
#X obj 612 543 tabplay~ \$0-buffer1;
#X obj -41 421 tabwrite~ \$0-buffer1;
#N canvas 461 619 450 278 (subpatch) 0;
#X array \$0-buffer2 393262 float 0;
#X coords 0 1 393261 -1 300 50 1 0 0;
#X restore -41 551 graph;
#X msg 365 531 \; \$1-buffer1 const 0 \; \$1-buffer2 const 0 \;;
#X msg 365 411 \; \$1-buffer1 resize \$2 \; \$1-buffer2 resize \$2
\;;
#X obj 365 321 r \$0-tables_new_size;
#X obj 752 583 outlet~;
#X obj 752 543 tabplay~ \$0-buffer2;
#X text 801 581 <-- audio outputs;
#X text 384 471 <-- clear the tables;
#X obj 613 123 s \$0-tables_new_size;
#X obj 752 413 s \$0-tables_new_size;
#X text 592 224 -------->;
#X text 592 413 ------------------------>;
#X text -61 6 audio input 1;
#X text 85 26 |;
#X text 151 26 |;
#X text 88 20 -----^-----;
#X obj 103 41 inlet~;
#X text 83 6 audio input 2;
#X text 249 406 to tables;
#X obj 103 261 *~;
#N canvas 185 178 400 290 limiter 0;
#X obj 24 22 inlet~;
#X msg 121 85 limit 100;
#X obj 121 21 loadbang;
#X obj 24 60 z~ 64;
#X obj 24 169 *~;
#X obj 24 200 outlet~;
#X obj 121 113 limiter~ 10;
#X text 22 245 https://guitarextended.wordpress.com/2013/08/05/making-a-looper-with-pure-data/
;
#X text 22 225 extracted from a patch downloaded from;
#X connect 0 0 3 0;
#X connect 0 0 6 0;
#X connect 1 0 6 0;
#X connect 2 0 1 0;
#X connect 3 0 4 0;
#X connect 4 0 5 0;
#X connect 6 0 4 1;
#X restore 103 291 pd limiter;
#X msg -29 155 1 50;
#X msg 12 155 0 50;
#X obj -31 76 cnv 15 94 27 empty empty empty 20 12 0 14 -204786 -66577
0;
#X obj -29 81 r \$0-start_rec;
#X obj 9 116 cnv 15 89 27 empty empty empty 20 12 0 14 -261234 -66577
0;
#X obj 12 121 r \$0-stop_rec;
#X text 240 271 limiters prevent;
#X text 241 291 saturation of;
#X text 241 311 input audio;
#X text 234 317 |;
#X text 234 267 |;
#X text 234 277 |;
#X text 237 261 -;
#X text 237 320 -;
#X text 234 297 |;
#X text 234 287 |;
#X text 234 307 |;
#X text 232 290 -;
#X text 360 141 fade-out;
#X text 169 290 <----------;
#X text 115 96 |;
#X text 115 106 |;
#X text 115 166 |;
#X text 115 176 |;
#X text 490 24 at the start of;
#X text 494 44 each recording;
#X text 477 64 resize the tables;
#X text 507 104 enough space;
#X text 525 124 to record;
#X text 507 84 so they have;
#X text 249 385 writing;
#X text 249 365 start/stop;
#X text 525 299 at the end of each;
#X text 525 313 recording resize the;
#X text 524 327 tables to the duration;
#X text 525 341 of the recording;
#X text 658 300 |;
#X text 658 310 |;
#X text 516 300 |;
#X text 516 310 |;
#X text 518 351 ________________________;
#X text 518 280 ________________________;
#X text 658 290 |;
#X text 516 290 |;
#X text 589 260 |;
#X text 589 270 |;
#X text 589 280 |;
#X text 589 370 |;
#X text 589 360 |;
#X text 501 319 <--;
#X obj 103 421 tabwrite~ \$0-buffer2;
#X text 898 221 start of recording;
#X text 898 201 miliseconds from;
#X msg 235 151 1;
#X connect 0 0 2 0;
#X connect 1 0 0 1;
#X connect 1 0 204 1;
#X connect 2 0 184 0;
#X connect 3 0 184 0;
#X connect 3 0 256 0;
#X connect 4 0 184 0;
#X connect 4 0 256 0;
#X connect 5 0 9 0;
#X connect 6 0 39 1;
#X connect 7 0 39 0;
#X connect 7 1 6 0;
#X connect 8 0 194 0;
#X connect 9 0 181 0;
#X connect 10 0 5 0;
#X connect 11 0 5 0;
#X connect 12 0 91 0;
#X connect 13 0 12 0;
#X connect 14 0 153 0;
#X connect 16 0 17 0;
#X connect 17 0 259 0;
#X connect 17 1 13 0;
#X connect 18 0 16 0;
#X connect 39 0 8 0;
#X connect 40 0 41 0;
#X connect 41 0 193 0;
#X connect 42 0 40 0;
#X connect 87 0 42 0;
#X connect 87 0 10 0;
#X connect 87 0 11 0;
#X connect 89 0 3 0;
#X connect 93 0 11 0;
#X connect 95 0 4 0;
#X connect 97 0 181 0;
#X connect 153 0 186 0;
#X connect 154 0 187 0;
#X connect 155 0 154 0;
#X connect 155 1 154 1;
#X connect 156 0 0 0;
#X connect 159 0 162 0;
#X connect 161 0 163 0;
#X connect 162 0 183 0;
#X connect 162 0 190 0;
#X connect 163 0 183 0;
#X connect 163 0 190 0;
#X connect 181 0 7 0;
#X connect 183 0 157 0;
#X connect 188 0 155 0;
#X connect 190 0 189 0;
#X connect 190 1 163 0;
#X connect 201 0 204 0;
#X connect 204 0 205 0;
#X connect 205 0 256 0;
#X connect 206 0 1 0;
#X connect 207 0 1 0;
#X connect 209 0 206 0;
#X connect 211 0 207 0;
#X connect 259 0 85 0;
